SplineFontDB: 3.0
FontName: ArchivoNarrowDeva-Regular
FullName: Archivo Narrow Devanagari Regular
FamilyName: Archivo Narrow Devanagari
Weight: Regular
Copyright: Copyright (c) 2012-2014, Omnibus-Type (www.omnibus-type.com omnibus.type@gmail.com) with Reserved Font Name 'Archivo'
Version: 001.004
ItalicAngle: 0
UnderlinePosition: -50
UnderlineWidth: 50
Ascent: 800
Descent: 200
sfntRevision: 0x00010106
LayerCount: 2
Layer: 0 0 "Back"  1
Layer: 1 0 "Fore"  0
XUID: [1021 191 1600663927 3639221]
FSType: 8
OS2Version: 3
OS2_WeightWidthSlopeOnly: 0
OS2_UseTypoMetrics: 1
CreationTime: 1409322513
ModificationTime: 1409350089
PfmFamily: 81
TTFWeight: 400
TTFWidth: 5
LineGap: 0
VLineGap: 0
Panose: 0 0 5 0 0 0 0 0 0 0
OS2TypoAscent: 890
OS2TypoAOffset: 0
OS2TypoDescent: -404
OS2TypoDOffset: 0
OS2TypoLinegap: 0
OS2WinAscent: 890
OS2WinAOffset: 0
OS2WinDescent: 404
OS2WinDOffset: 0
HheadAscent: 890
HheadAOffset: 0
HheadDescent: -404
HheadDOffset: 0
OS2SubXSize: 650
OS2SubYSize: 600
OS2SubXOff: 0
OS2SubYOff: 75
OS2SupXSize: 650
OS2SupYSize: 600
OS2SupXOff: 0
OS2SupYOff: 350
OS2StrikeYSize: 50
OS2StrikeYPos: 279
OS2Vendor: 'Omni'
OS2CodePages: 20000093.00000000
OS2UnicodeRanges: 00008007.00000000.00000000.00000000
Lookup: 1 0 0 "'aalt' Access All Alternates lookup 0"  {"'aalt' Access All Alternates lookup 0 subtable"  } ['aalt' ('DFLT' <'dflt' > 'dev2' <'HIN ' 'MAR ' 'NEP ' 'dflt' > 'grek' <'dflt' > 'latn' <'CAT ' 'MOL ' 'ROM ' 'dflt' > ) ]
Lookup: 3 0 0 "'aalt' Access All Alternates lookup 1"  {"'aalt' Access All Alternates lookup 1 subtable"  } ['aalt' ('DFLT' <'dflt' > 'dev2' <'HIN ' 'MAR ' 'NEP ' 'dflt' > 'grek' <'dflt' > 'latn' <'CAT ' 'MOL ' 'ROM ' 'dflt' > ) ]
Lookup: 4 0 0 "Ligature Substitution lookup 2"  {"Ligature Substitution lookup 2 subtable"  } []

StartChar: .notdef
Encoding: 65536 -1 0
Width: 442
Flags: W
HStem: 0 44<71 371> 575 44<71 371>
VStem: 0 44<84 535> 398 44<84 535>
LayerCount: 2
Fore
SplineSet
0 619 m 1
 442 619 l 1
 442 0 l 1
 0 0 l 1
 0 619 l 1
371 575 m 1
 71 575 l 1
 221 349 l 1
 371 575 l 1
44 535 m 1
 44 84 l 1
 194 309 l 1
 44 535 l 1
398 535 m 1
 248 309 l 1
 398 84 l 1
 398 535 l 1
221 270 m 1
 71 44 l 1
 371 44 l 1
 221 270 l 1
EndSplineSet
EndChar

StartChar: A
Encoding: 65 65 1
Width: 473
GlyphClass: 2
Flags: W
HStem: 0 21G<-2 73 391.857 473> 140 62<129 336> 586 20G<184.63 287.337>
AnchorPoint: "Anchor-1" 0 0 basechar 0
AnchorPoint: "Anchor-0" 236 606 basechar 0
LayerCount: 2
Fore
SplineSet
398 0 m 1
 355 140 l 1
 109 140 l 1
 67 0 l 1
 -2 0 l 1
 191 606 l 1
 281 606 l 1
 473 0 l 1
 398 0 l 1
234 554 m 1
 231 554 l 1
 231 554 223 508 218 492 c 2
 129 202 l 1
 336 202 l 1
 248 492 l 1
 242 508 234 554 234 554 c 1
EndSplineSet
Substitution2: "Single Substitution lookup 32 subtable" ordfeminine
Substitution2: "'aalt' Access All Alternates lookup 0 subtable" ordfeminine
Position2: "'cpsp' Capital Spacing lookup 0 subtable" dx=5 dy=0 dh=10 dv=0
EndChar

StartChar: Aacute
Encoding: 193 193 2
Width: 473
GlyphClass: 2
Flags: W
HStem: 0 21G<-2 73 391.857 473> 140 62<129 336> 586 20G<184.63 287.337>
LayerCount: 2
Fore
SplineSet
238 664 m 1
 185 664 l 1
 261 781 l 1
 333 781 l 1
 334 778 l 1
 238 664 l 1
398 0 m 1
 355 140 l 1
 109 140 l 1
 67 0 l 1
 -2 0 l 1
 191 606 l 1
 281 606 l 1
 473 0 l 1
 398 0 l 1
234 554 m 1
 231 554 l 1
 231 554 223 508 218 492 c 2
 129 202 l 1
 336 202 l 1
 248 492 l 1
 242 508 234 554 234 554 c 1
EndSplineSet
Position2: "'cpsp' Capital Spacing lookup 0 subtable" dx=5 dy=0 dh=10 dv=0
EndChar

StartChar: Abreve
Encoding: 258 258 3
Width: 473
GlyphClass: 2
Flags: W
HStem: 0 21G<-2 73 391.857 473> 140 62<129 336> 586 20G<184.63 287.337> 698 53<187.821 284.964>
VStem: 130 53<758.858 781> 288 55<758.858 781>
LayerCount: 2
Fore
SplineSet
288 781 m 1
 343 781 l 1
 343 742 302 698 235 698 c 0
 170 698 130 742 130 781 c 1
 183 781 l 1
 186 768 206 751 235 751 c 0
 265 751 287 768 288 781 c 1
398 0 m 1
 355 140 l 1
 109 140 l 1
 67 0 l 1
 -2 0 l 1
 191 606 l 1
 281 606 l 1
 473 0 l 1
 398 0 l 1
234 554 m 1
 231 554 l 1
 231 554 223 508 218 492 c 2
 129 202 l 1
 336 202 l 1
 248 492 l 1
 242 508 234 554 234 554 c 1
EndSplineSet
Position2: "'cpsp' Capital Spacing lookup 0 subtable" dx=5 dy=0 dh=10 dv=0
EndChar

StartChar: Acircumflex
Encoding: 194 194 4
Width: 473
GlyphClass: 2
Flags: W
HStem: 0 21G<-2 73 391.857 473> 140 62<129 336> 586 20G<184.63 287.337>
LayerCount: 2
Fore
SplineSet
275 660 m 1
 236 732 l 1
 196 660 l 1
 129 660 l 1
 205 780 l 1
 269 780 l 1
 344 660 l 1
 275 660 l 1
398 0 m 1
 355 140 l 1
 109 140 l 1
 67 0 l 1
 -2 0 l 1
 191 606 l 1
 281 606 l 1
 473 0 l 1
 398 0 l 1
234 554 m 1
 231 554 l 1
 231 554 223 508 218 492 c 2
 129 202 l 1
 336 202 l 1
 248 492 l 1
 242 508 234 554 234 554 c 1
EndSplineSet
Position2: "'cpsp' Capital Spacing lookup 0 subtable" dx=5 dy=0 dh=10 dv=0
EndChar

StartChar: Adieresis
Encoding: 196 196 5
Width: 473
GlyphClass: 2
Flags: W
HStem: 0 21G<-2 73 391.857 473> 140 62<129 336> 586 20G<184.63 287.337> 701 80<136 210 263 336>
VStem: 136 74<701 781> 263 73<701 781>
LayerCount: 2
Fore
SplineSet
136 701 m 1
 136 781 l 1
 210 781 l 1
 210 701 l 1
 136 701 l 1
263 701 m 1
 263 781 l 1
 336 781 l 1
 336 701 l 1
 263 701 l 1
398 0 m 1
 355 140 l 1
 109 140 l 1
 67 0 l 1
 -2 0 l 1
 191 606 l 1
 281 606 l 1
 473 0 l 1
 398 0 l 1
234 554 m 1
 231 554 l 1
 231 554 223 508 218 492 c 2
 129 202 l 1
 336 202 l 1
 248 492 l 1
 242 508 234 554 234 554 c 1
EndSplineSet
Position2: "'cpsp' Capital Spacing lookup 0 subtable" dx=5 dy=0 dh=10 dv=0
EndChar

StartChar: Agrave
Encoding: 192 192 6
Width: 473
GlyphClass: 2
Flags: W
HStem: 0 21G<-2 73 391.857 473> 140 62<129 336> 586 20G<184.63 287.337>
LayerCount: 2
Fore
SplineSet
232 664 m 1
 137 778 l 1
 138 781 l 1
 209 781 l 1
 285 664 l 1
 232 664 l 1
398 0 m 1
 355 140 l 1
 109 140 l 1
 67 0 l 1
 -2 0 l 1
 191 606 l 1
 281 606 l 1
 473 0 l 1
 398 0 l 1
234 554 m 1
 231 554 l 1
 231 554 223 508 218 492 c 2
 129 202 l 1
 336 202 l 1
 248 492 l 1
 242 508 234 554 234 554 c 1
EndSplineSet
Position2: "'cpsp' Capital Spacing lookup 0 subtable" dx=5 dy=0 dh=10 dv=0
EndChar

StartChar: Amacron
Encoding: 256 256 7
Width: 473
GlyphClass: 2
Flags: W
HStem: 0 21G<-2 73 391.857 473> 140 62<129 336> 586 20G<184.63 287.337> 671 60<126 347>
LayerCount: 2
Fore
SplineSet
126 671 m 1
 126 731 l 1
 347 731 l 1
 347 671 l 1
 126 671 l 1
398 0 m 1
 355 140 l 1
 109 140 l 1
 67 0 l 1
 -2 0 l 1
 191 606 l 1
 281 606 l 1
 473 0 l 1
 398 0 l 1
234 554 m 1
 231 554 l 1
 231 554 223 508 218 492 c 2
 129 202 l 1
 336 202 l 1
 248 492 l 1
 242 508 234 554 234 554 c 1
EndSplineSet
Position2: "'cpsp' Capital Spacing lookup 0 subtable" dx=5 dy=0 dh=10 dv=0
EndChar

StartChar: Aogonek
Encoding: 260 260 8
Width: 473
GlyphClass: 2
Flags: W
HStem: -159 57<459.512 523.202> -147 45<472.798 524> 0 21G<-2 73> 140 62<129 336> 586 20G<184.63 287.337>
VStem: 390 64<-97.7692 -15.2069>
LayerCount: 2
Fore
SplineSet
524 -102 m 1x7c
 524 -147 l 1x7c
 507 -154 489 -159 472 -159 c 0
 434 -159 390 -140 390 -79 c 0
 390 -40 407 -20 424 0 c 1
 398 0 l 1
 355 140 l 1
 109 140 l 1
 67 0 l 1
 -2 0 l 1
 191 606 l 1
 281 606 l 1
 473 0 l 1
 465 -14 454 -29 454 -53 c 0
 454 -79 465 -102 495 -102 c 2xbc
 524 -102 l 1x7c
336 202 m 1
 248 492 l 1
 242 508 234 554 234 554 c 1
 231 554 l 1
 231 554 223 508 218 492 c 2
 129 202 l 1
 336 202 l 1
EndSplineSet
Position2: "'cpsp' Capital Spacing lookup 0 subtable" dx=5 dy=0 dh=10 dv=0
EndChar

StartChar: Aring
Encoding: 197 197 9
Width: 473
GlyphClass: 2
Flags: W
HStem: 0 21G<-2 73 391.857 473> 140 62<129 336> 586 20G<184.63 287.337> 640 38<198.556 272.346> 771 39<198.338 271.838>
VStem: 150 39<687.507 761.809> 282 38<688.068 761.252>
LayerCount: 2
Fore
SplineSet
235 810 m 0
 285 810 320 771 320 725 c 0
 320 678 283 640 235 640 c 0
 189 640 150 677 150 725 c 0
 150 772 188 810 235 810 c 0
235 771 m 0
 211 771 189 750 189 725 c 0
 189 699 211 678 235 678 c 0
 260 678 282 699 282 725 c 0
 282 750 260 771 235 771 c 0
398 0 m 1
 355 140 l 1
 109 140 l 1
 67 0 l 1
 -2 0 l 1
 191 606 l 1
 281 606 l 1
 473 0 l 1
 398 0 l 1
234 554 m 1
 231 554 l 1
 231 554 223 508 218 492 c 2
 129 202 l 1
 336 202 l 1
 248 492 l 1
 242 508 234 554 234 554 c 1
EndSplineSet
Position2: "'cpsp' Capital Spacing lookup 0 subtable" dx=5 dy=0 dh=10 dv=0
EndChar

StartChar: Aringacute
Encoding: 506 506 10
Width: 473
GlyphClass: 2
Flags: W
HStem: 0 21G<-2 73 391.857 473> 140 62<129 336> 690 36<200.466 272.057>
VStem: 151 39<609.011 680.302> 283 38<609.807 679.744>
LayerCount: 2
Fore
SplineSet
212 750 m 1
 275 846 l 1
 346 846 l 1
 348 842 l 1
 265 750 l 1
 212 750 l 1
236 726 m 0
 284 726 321 689 321 644 c 0
 321 618 309 595 289 579 c 1
 473 0 l 1
 398 0 l 1
 355 140 l 1
 109 140 l 1
 67 0 l 1
 -2 0 l 1
 183 580 l 1
 164 595 151 618 151 644 c 0
 151 690 189 726 236 726 c 0
236 690 m 0
 211 690 190 669 190 644 c 0
 190 621 211 600 236 600 c 0
 261 600 283 621 283 644 c 0
 283 669 261 690 236 690 c 0
234 554 m 1
 231 554 l 1
 231 554 223 508 218 492 c 2
 129 202 l 1
 336 202 l 1
 248 492 l 1
 242 508 234 554 234 554 c 1
EndSplineSet
Position2: "'cpsp' Capital Spacing lookup 0 subtable" dx=5 dy=0 dh=10 dv=0
EndChar

StartChar: Atilde
Encoding: 195 195 11
Width: 473
GlyphClass: 2
Flags: W
HStem: 0 21G<-2 73 391.857 473> 140 62<129 336> 586 20G<184.63 287.337> 694 62<212.058 309.211> 719 62<163.047 260.048>
VStem: 112 50<694 717.628> 310 49<756.598 781>
LayerCount: 2
Fore
SplineSet
310 781 m 1xee
 359 781 l 1xee
 359 742 339 694 287 694 c 0xf6
 251 694 223 719 191 719 c 0xee
 176 719 164 713 162 694 c 1
 112 694 l 1xf6
 112 731 133 781 183 781 c 0xee
 220 781 249 756 281 756 c 0xf6
 296 756 307 761 310 781 c 1xee
398 0 m 1
 355 140 l 1
 109 140 l 1
 67 0 l 1
 -2 0 l 1
 191 606 l 1
 281 606 l 1
 473 0 l 1
 398 0 l 1
234 554 m 1
 231 554 l 1
 231 554 223 508 218 492 c 2
 129 202 l 1
 336 202 l 1
 248 492 l 1
 242 508 234 554 234 554 c 1
EndSplineSet
Position2: "'cpsp' Capital Spacing lookup 0 subtable" dx=5 dy=0 dh=10 dv=0
EndChar

StartChar: AE
Encoding: 198 198 12
Width: 725
GlyphClass: 2
Flags: W
HStem: 0 62<463 694> 140 62<149 359> 279 63<415 650> 545 61<274.874 291.292 355 689>
AnchorPoint: "Anchor-1" 0 0 basechar 0
AnchorPoint: "Anchor-0" 362 606 basechar 0
LayerCount: 2
Fore
SplineSet
355 545 m 1
 401 342 l 1
 650 342 l 1
 650 279 l 1
 415 279 l 1
 463 62 l 1
 694 62 l 1
 694 0 l 1
 402 0 l 1
 371 140 l 1
 125 140 l 1
 71 0 l 1
 1 0 l 1
 254 606 l 1
 689 606 l 1
 689 545 l 1
 355 545 l 1
288 550 m 1
 283 550 l 1
 277 529 271 510 262 489 c 2
 149 202 l 1
 359 202 l 1
 297 489 l 2
 292 510 291 529 288 550 c 1
EndSplineSet
Position2: "'cpsp' Capital Spacing lookup 0 subtable" dx=5 dy=0 dh=10 dv=0
EndChar

StartChar: AEacute
Encoding: 508 508 13
Width: 725
GlyphClass: 2
Flags: W
HStem: 0 62<463 694> 140 62<149 359> 279 63<415 650> 545 61<274.707 290.905 355 689>
LayerCount: 2
Fore
SplineSet
477 664 m 1
 424 664 l 1
 500 781 l 1
 572 781 l 1
 572 778 l 1
 477 664 l 1
355 545 m 1
 401 342 l 1
 650 342 l 1
 650 279 l 1
 415 279 l 1
 463 62 l 1
 694 62 l 1
 694 0 l 1
 402 0 l 1
 371 140 l 1
 125 140 l 1
 71 0 l 1
 1 0 l 1
 254 606 l 1
 689 606 l 1
 689 545 l 1
 355 545 l 1
288 550 m 1
 283 550 l 1
 277 530 272 513 263 492 c 2
 149 202 l 1
 359 202 l 1
 296 491 l 2
 292 512 290 530 288 550 c 1
EndSplineSet
Position2: "'cpsp' Capital Spacing lookup 0 subtable" dx=5 dy=0 dh=10 dv=0
EndChar

StartChar: B
Encoding: 66 66 14
Width: 473
GlyphClass: 2
Flags: W
HStem: 0 62<126 339.625> 279 63<126 322.394> 545 61<126 329.64>
VStem: 58 68<62 279 342 545> 362 72<381.174 512.819> 377 71<99.1375 233.326>
LayerCount: 2
Fore
SplineSet
58 606 m 1xf4
 279 606 l 2
 367 606 434 548 434 459 c 0xf8
 434 389 393 337 341 318 c 1
 341 315 l 1
 401 296 448 239 448 160 c 0
 448 58 371 0 279 0 c 2
 58 0 l 1
 58 606 l 1xf4
126 342 m 1
 259 342 l 2
 320 342 362 389 362 442 c 0
 362 512 323 545 265 545 c 2
 126 545 l 1
 126 342 l 1
126 62 m 1
 272 62 l 2
 332 62 377 100 377 169 c 0xf4
 377 227 332 279 266 279 c 2
 126 279 l 1
 126 62 l 1
EndSplineSet
Position2: "'cpsp' Capital Spacing lookup 0 subtable" dx=5 dy=0 dh=10 dv=0
EndChar

StartChar: C
Encoding: 67 67 15
Width: 523
GlyphClass: 2
Flags: W
HStem: -11 64<189.042 356.253> 552 65<189.205 353.793>
VStem: 39 70<144.801 455.078> 418 67<119.691 215 389 483.351>
AnchorPoint: "Anchor-1" 262 0 basechar 0
AnchorPoint: "Anchor-0" 262 606 basechar 0
LayerCount: 2
Fore
SplineSet
277 617 m 0
 401 617 485 541 485 389 c 1
 417 389 l 1
 417 498 361 552 277 552 c 0
 165 552 109 481 109 325 c 2
 109 281 l 2
 109 125 165 53 276 53 c 0
 362 53 418 106 418 215 c 1
 485 215 l 1
 485 60 400 -11 277 -11 c 0
 118 -11 39 94 39 303 c 0
 39 513 118 617 277 617 c 0
EndSplineSet
Position2: "'cpsp' Capital Spacing lookup 0 subtable" dx=5 dy=0 dh=10 dv=0
EndChar

StartChar: Cacute
Encoding: 262 262 16
Width: 523
GlyphClass: 2
Flags: W
HStem: -11 64<189.042 356.253> 552 65<189.205 353.793>
VStem: 39 70<144.801 455.078> 418 67<119.691 215 389 483.351>
LayerCount: 2
Fore
SplineSet
279 664 m 1
 226 664 l 1
 302 781 l 1
 373 781 l 1
 374 778 l 1
 279 664 l 1
277 617 m 0
 401 617 485 541 485 389 c 1
 417 389 l 1
 417 498 361 552 277 552 c 0
 165 552 109 481 109 325 c 2
 109 281 l 2
 109 125 165 53 276 53 c 0
 362 53 418 106 418 215 c 1
 485 215 l 1
 485 60 400 -11 277 -11 c 0
 118 -11 39 94 39 303 c 0
 39 513 118 617 277 617 c 0
EndSplineSet
Position2: "'cpsp' Capital Spacing lookup 0 subtable" dx=5 dy=0 dh=10 dv=0
EndChar

StartChar: Ccaron
Encoding: 268 268 17
Width: 523
GlyphClass: 2
Flags: W
HStem: -11 64<189.042 356.253> 552 65<189.205 353.793>
VStem: 39 70<144.801 455.078> 418 67<119.691 215 389 483.351>
LayerCount: 2
Fore
SplineSet
151 781 m 1
 219 781 l 1
 260 708 l 1
 298 781 l 1
 367 781 l 1
 289 661 l 1
 226 661 l 1
 151 781 l 1
277 617 m 0
 401 617 485 541 485 389 c 1
 417 389 l 1
 417 498 361 552 277 552 c 0
 165 552 109 481 109 325 c 2
 109 281 l 2
 109 125 165 53 276 53 c 0
 362 53 418 106 418 215 c 1
 485 215 l 1
 485 60 400 -11 277 -11 c 0
 118 -11 39 94 39 303 c 0
 39 513 118 617 277 617 c 0
EndSplineSet
Position2: "'cpsp' Capital Spacing lookup 0 subtable" dx=5 dy=0 dh=10 dv=0
EndChar

StartChar: Ccedilla
Encoding: 199 199 18
Width: 523
GlyphClass: 2
Flags: W
HStem: -161 50<176.989 275.177> -154 43<176 248.826> -11.0911 64.0911<188.211 227 271 355.888> 552 65<189.205 353.793>
VStem: 39 70<146.463 455.078> 276 65<-109.873 -68.7826> 418 67<119.76 215 389 483.351>
LayerCount: 2
Fore
SplineSet
277 617 m 0xbe
 401 617 485 541 485 389 c 1
 417 389 l 1
 417 498 361 552 277 552 c 0
 165 552 109 481 109 325 c 2
 109 281 l 2
 109 125 165 53 276 53 c 0
 362 53 418 106 418 215 c 1
 485 215 l 1
 485 60.1970205173 400.525208453 -11.0911082309 278.601479151 -11.0911082309 c 0
 276.083487149 -11.0911082309 273.549522691 -11.0607029212 271 -11 c 1
 268 -33 l 1
 306 -35 341 -49 341 -89 c 0
 341 -149 285 -161 250 -161 c 0xbe
 225 -161 197 -158 176 -154 c 1
 176 -111 l 1x7e
 244 -111 l 2
 263 -111 276 -106 276 -89 c 0
 276 -75 269 -68 246 -68 c 2
 216 -68 l 1
 227 -7 l 1
 102 13 39 117 39 303 c 0
 39 513 118 617 277 617 c 0xbe
EndSplineSet
Position2: "'cpsp' Capital Spacing lookup 0 subtable" dx=5 dy=0 dh=10 dv=0
EndChar

StartChar: Ccircumflex
Encoding: 264 264 19
Width: 523
GlyphClass: 2
Flags: W
HStem: -11 64<189.042 356.253> 552 65<189.205 353.793>
VStem: 39 70<144.801 455.078> 418 67<119.691 215 389 483.351>
LayerCount: 2
Fore
SplineSet
261 732 m 1
 219 660 l 1
 151 660 l 1
 227 780 l 1
 291 780 l 1
 367 660 l 1
 298 660 l 1
 261 732 l 1
277 617 m 0
 401 617 485 541 485 389 c 1
 417 389 l 1
 417 498 361 552 277 552 c 0
 165 552 109 481 109 325 c 2
 109 281 l 2
 109 125 165 53 276 53 c 0
 362 53 418 106 418 215 c 1
 485 215 l 1
 485 60 400 -11 277 -11 c 0
 118 -11 39 94 39 303 c 0
 39 513 118 617 277 617 c 0
EndSplineSet
Position2: "'cpsp' Capital Spacing lookup 0 subtable" dx=5 dy=0 dh=10 dv=0
EndChar

StartChar: Cdotaccent
Encoding: 266 266 20
Width: 523
GlyphClass: 2
Flags: W
HStem: -11 64<189.042 356.253> 552 65<189.205 353.793> 702 79<223 296>
VStem: 39 70<144.801 455.078> 223 73<702 781> 418 67<119.691 215 389 483.351>
LayerCount: 2
Fore
SplineSet
223 781 m 1
 296 781 l 1
 296 702 l 1
 223 702 l 1
 223 781 l 1
277 617 m 0
 401 617 485 541 485 389 c 1
 417 389 l 1
 417 498 361 552 277 552 c 0
 165 552 109 481 109 325 c 2
 109 281 l 2
 109 125 165 53 276 53 c 0
 362 53 418 106 418 215 c 1
 485 215 l 1
 485 60 400 -11 277 -11 c 0
 118 -11 39 94 39 303 c 0
 39 513 118 617 277 617 c 0
EndSplineSet
Position2: "'cpsp' Capital Spacing lookup 0 subtable" dx=5 dy=0 dh=10 dv=0
EndChar

StartChar: D
Encoding: 68 68 21
Width: 523
GlyphClass: 2
Flags: W
HStem: 0 62<132 323.307> 545 61<132 323.307>
VStem: 65 67<62 545> 405 72<161.18 453.683>
AnchorPoint: "Anchor-1" 0 0 basechar 0
AnchorPoint: "Anchor-0" 262 606 basechar 0
LayerCount: 2
Fore
SplineSet
65 606 m 1
 250 606 l 2
 391 606 477 507 477 312 c 0
 477 104 391 0 250 0 c 2
 65 0 l 1
 65 606 l 1
132 62 m 1
 244 62 l 2
 343 62 405 136 405 290 c 2
 405 334 l 2
 405 475 343 545 244 545 c 2
 132 545 l 1
 132 62 l 1
EndSplineSet
Position2: "'cpsp' Capital Spacing lookup 0 subtable" dx=5 dy=0 dh=10 dv=0
EndChar

StartChar: Eth
Encoding: 208 208 22
Width: 523
GlyphClass: 2
Flags: W
HStem: 0 62<132 323.307> 289 50<3 65 132 278> 545 61<132 323.307>
VStem: 65 67<62 289 339 545> 405 72<161.18 453.683>
LayerCount: 2
Fore
SplineSet
65 606 m 1
 250 606 l 2
 391 606 477 507 477 312 c 0
 477 104 391 0 250 0 c 2
 65 0 l 1
 65 289 l 1
 3 289 l 1
 3 339 l 1
 65 339 l 1
 65 606 l 1
278 339 m 1
 278 289 l 1
 132 289 l 1
 132 62 l 1
 244 62 l 2
 343 62 405 136 405 290 c 2
 405 334 l 2
 405 475 343 545 244 545 c 2
 132 545 l 1
 132 339 l 1
 278 339 l 1
EndSplineSet
Position2: "'cpsp' Capital Spacing lookup 0 subtable" dx=5 dy=0 dh=10 dv=0
EndChar

StartChar: Dcaron
Encoding: 270 270 23
Width: 523
GlyphClass: 2
Flags: W
HStem: 0 62<132 323.307> 545 61<132 323.307>
VStem: 65 67<62 545> 405 72<161.18 453.683>
LayerCount: 2
Fore
SplineSet
165 781 m 1
 233 781 l 1
 273 708 l 1
 313 781 l 1
 381 781 l 1
 303 661 l 1
 240 661 l 1
 165 781 l 1
65 606 m 1
 250 606 l 2
 391 606 477 507 477 312 c 0
 477 104 391 0 250 0 c 2
 65 0 l 1
 65 606 l 1
132 62 m 1
 244 62 l 2
 343 62 405 136 405 290 c 2
 405 334 l 2
 405 475 343 545 244 545 c 2
 132 545 l 1
 132 62 l 1
EndSplineSet
Position2: "'cpsp' Capital Spacing lookup 0 subtable" dx=5 dy=0 dh=10 dv=0
EndChar

StartChar: Dcroat
Encoding: 272 272 24
Width: 523
GlyphClass: 2
Flags: W
HStem: 0 62<132 323.307> 289 50<3 65 132 278> 545 61<132 323.307>
VStem: 65 67<62 289 339 545> 405 72<161.18 453.683>
LayerCount: 2
Fore
SplineSet
65 606 m 1
 250 606 l 2
 391 606 477 507 477 312 c 0
 477 104 391 0 250 0 c 2
 65 0 l 1
 65 289 l 1
 3 289 l 1
 3 339 l 1
 65 339 l 1
 65 606 l 1
278 339 m 1
 278 289 l 1
 132 289 l 1
 132 62 l 1
 244 62 l 2
 343 62 405 136 405 290 c 2
 405 334 l 2
 405 475 343 545 244 545 c 2
 132 545 l 1
 132 339 l 1
 278 339 l 1
EndSplineSet
Position2: "'cpsp' Capital Spacing lookup 0 subtable" dx=5 dy=0 dh=10 dv=0
EndChar

StartChar: E
Encoding: 69 69 25
Width: 484
GlyphClass: 2
Flags: W
HStem: 0 62<133 440> 279 63<133 396> 545 61<133 435>
VStem: 65 68<62 279 342 545>
AnchorPoint: "Anchor-1" 242 0 basechar 0
AnchorPoint: "Anchor-0" 242 606 basechar 0
LayerCount: 2
Fore
SplineSet
435 606 m 1
 435 545 l 1
 133 545 l 1
 133 342 l 1
 396 342 l 1
 396 279 l 1
 133 279 l 1
 133 62 l 1
 440 62 l 1
 440 0 l 1
 65 0 l 1
 65 606 l 1
 435 606 l 1
EndSplineSet
Position2: "'cpsp' Capital Spacing lookup 0 subtable" dx=5 dy=0 dh=10 dv=0
EndChar

StartChar: Eacute
Encoding: 201 201 26
Width: 484
GlyphClass: 2
Flags: W
HStem: 0 62<133 440> 279 63<133 396> 545 61<133 435>
VStem: 65 68<62 279 342 545>
LayerCount: 2
Fore
SplineSet
244 664 m 1
 191 664 l 1
 267 781 l 1
 339 781 l 1
 340 778 l 1
 244 664 l 1
133 545 m 1
 133 342 l 1
 396 342 l 1
 396 279 l 1
 133 279 l 1
 133 62 l 1
 440 62 l 1
 440 0 l 1
 65 0 l 1
 65 606 l 1
 435 606 l 1
 435 545 l 1
 133 545 l 1
EndSplineSet
Position2: "'cpsp' Capital Spacing lookup 0 subtable" dx=5 dy=0 dh=10 dv=0
EndChar

StartChar: Ebreve
Encoding: 276 276 27
Width: 484
GlyphClass: 2
Flags: W
HStem: 0 62<133 440> 279 63<133 396> 545 61<133 435> 698 53<193.821 290.964>
VStem: 65 68<62 279 342 545> 136 53<758.858 781> 294 55<758.858 781>
LayerCount: 2
Fore
SplineSet
294 781 m 1
 349 781 l 1
 349 742 308 698 241 698 c 0
 176 698 136 742 136 781 c 1
 189 781 l 1
 192 768 212 751 241 751 c 0
 271 751 293 768 294 781 c 1
435 606 m 1
 435 545 l 1
 133 545 l 1
 133 342 l 1
 396 342 l 1
 396 279 l 1
 133 279 l 1
 133 62 l 1
 440 62 l 1
 440 0 l 1
 65 0 l 1
 65 606 l 1
 435 606 l 1
EndSplineSet
Position2: "'cpsp' Capital Spacing lookup 0 subtable" dx=5 dy=0 dh=10 dv=0
EndChar

StartChar: Ecaron
Encoding: 282 282 28
Width: 484
GlyphClass: 2
Flags: W
HStem: 0 62<133 440> 279 63<133 396> 545 61<133 435>
VStem: 65 68<62 279 342 545>
LayerCount: 2
Fore
SplineSet
135 781 m 1
 202 781 l 1
 241 708 l 1
 281 781 l 1
 350 781 l 1
 273 661 l 1
 210 661 l 1
 135 781 l 1
435 606 m 1
 435 545 l 1
 133 545 l 1
 133 342 l 1
 396 342 l 1
 396 279 l 1
 133 279 l 1
 133 62 l 1
 440 62 l 1
 440 0 l 1
 65 0 l 1
 65 606 l 1
 435 606 l 1
EndSplineSet
Position2: "'cpsp' Capital Spacing lookup 0 subtable" dx=5 dy=0 dh=10 dv=0
EndChar

StartChar: Ecircumflex
Encoding: 202 202 29
Width: 484
GlyphClass: 2
Flags: W
HStem: 0 62<133 440> 279 63<133 396> 545 61<133 435>
VStem: 65 68<62 279 342 545>
LayerCount: 2
Fore
SplineSet
242 732 m 1
 202 660 l 1
 135 660 l 1
 211 780 l 1
 275 780 l 1
 350 660 l 1
 281 660 l 1
 242 732 l 1
435 606 m 1
 435 545 l 1
 133 545 l 1
 133 342 l 1
 396 342 l 1
 396 279 l 1
 133 279 l 1
 133 62 l 1
 440 62 l 1
 440 0 l 1
 65 0 l 1
 65 606 l 1
 435 606 l 1
EndSplineSet
Position2: "'cpsp' Capital Spacing lookup 0 subtable" dx=5 dy=0 dh=10 dv=0
EndChar

StartChar: Edieresis
Encoding: 203 203 30
Width: 484
GlyphClass: 2
Flags: W
HStem: 0 62<133 440> 279 63<133 396> 545 61<133 435> 701 80<142 215 269 343>
VStem: 65 68<62 279 342 545> 142 73<701 781> 269 74<701 781>
LayerCount: 2
Fore
SplineSet
142 701 m 1
 142 781 l 1
 215 781 l 1
 215 701 l 1
 142 701 l 1
269 701 m 1
 269 781 l 1
 343 781 l 1
 343 701 l 1
 269 701 l 1
133 545 m 1
 133 342 l 1
 396 342 l 1
 396 279 l 1
 133 279 l 1
 133 62 l 1
 440 62 l 1
 440 0 l 1
 65 0 l 1
 65 606 l 1
 435 606 l 1
 435 545 l 1
 133 545 l 1
EndSplineSet
Position2: "'cpsp' Capital Spacing lookup 0 subtable" dx=5 dy=0 dh=10 dv=0
EndChar

StartChar: Edotaccent
Encoding: 278 278 31
Width: 484
GlyphClass: 2
Flags: W
HStem: 0 62<133 440> 279 63<133 396> 545 61<133 435> 702 79<206 278>
VStem: 65 68<62 279 342 545> 206 72<702 781>
LayerCount: 2
Fore
SplineSet
206 781 m 1
 278 781 l 1
 278 702 l 1
 206 702 l 1
 206 781 l 1
435 606 m 1
 435 545 l 1
 133 545 l 1
 133 342 l 1
 396 342 l 1
 396 279 l 1
 133 279 l 1
 133 62 l 1
 440 62 l 1
 440 0 l 1
 65 0 l 1
 65 606 l 1
 435 606 l 1
EndSplineSet
Position2: "'cpsp' Capital Spacing lookup 0 subtable" dx=5 dy=0 dh=10 dv=0
EndChar

StartChar: Egrave
Encoding: 200 200 32
Width: 484
GlyphClass: 2
Flags: W
HStem: 0 62<133 440> 279 63<133 396> 545 61<133 435>
VStem: 65 68<62 279 342 545>
LayerCount: 2
Fore
SplineSet
239 664 m 1
 144 778 l 1
 145 781 l 1
 216 781 l 1
 292 664 l 1
 239 664 l 1
133 545 m 1
 133 342 l 1
 396 342 l 1
 396 279 l 1
 133 279 l 1
 133 62 l 1
 440 62 l 1
 440 0 l 1
 65 0 l 1
 65 606 l 1
 435 606 l 1
 435 545 l 1
 133 545 l 1
EndSplineSet
Position2: "'cpsp' Capital Spacing lookup 0 subtable" dx=5 dy=0 dh=10 dv=0
EndChar

StartChar: Emacron
Encoding: 274 274 33
Width: 484
GlyphClass: 2
Flags: W
HStem: 0 62<133 440> 279 63<133 396> 545 61<133 435> 671 60<132 353>
VStem: 65 68<62 279 342 545>
LayerCount: 2
Fore
SplineSet
132 731 m 1
 353 731 l 1
 353 671 l 1
 132 671 l 1
 132 731 l 1
435 606 m 1
 435 545 l 1
 133 545 l 1
 133 342 l 1
 396 342 l 1
 396 279 l 1
 133 279 l 1
 133 62 l 1
 440 62 l 1
 440 0 l 1
 65 0 l 1
 65 606 l 1
 435 606 l 1
EndSplineSet
Position2: "'cpsp' Capital Spacing lookup 0 subtable" dx=5 dy=0 dh=10 dv=0
EndChar

StartChar: Eogonek
Encoding: 280 280 34
Width: 484
GlyphClass: 2
Flags: W
HStem: -159 57<426.642 491.111> -147 45<439.797 492> 0 62<133 388> 279 63<133 396> 545 61<133 435>
VStem: 65 68<62 279 342 545> 357 64<-97.7692 -11.1071>
LayerCount: 2
Fore
SplineSet
133 342 m 1xbe
 396 342 l 1
 396 279 l 1
 133 279 l 1
 133 62 l 1
 440 62 l 1
 440 0 l 1
 430 -13 421 -33 421 -53 c 0
 421 -79 432 -102 462 -102 c 2xbe
 492 -102 l 1
 492 -147 l 1x7e
 473 -154 456 -159 439 -159 c 0
 402 -159 357 -140 357 -79 c 0
 357 -43 370 -19 388 0 c 1
 65 0 l 1
 65 606 l 1
 435 606 l 1
 435 545 l 1
 133 545 l 1
 133 342 l 1xbe
EndSplineSet
Position2: "'cpsp' Capital Spacing lookup 0 subtable" dx=5 dy=0 dh=10 dv=0
EndChar

StartChar: F
Encoding: 70 70 35
Width: 443
GlyphClass: 2
Flags: W
HStem: 0 21G<65 133> 274 61<133 382> 545 61<133 413>
VStem: 65 68<0 274 335 545>
LayerCount: 2
Fore
SplineSet
413 606 m 1
 413 545 l 1
 133 545 l 1
 133 335 l 1
 382 335 l 1
 382 274 l 1
 133 274 l 1
 133 0 l 1
 65 0 l 1
 65 606 l 1
 413 606 l 1
EndSplineSet
Position2: "'cpsp' Capital Spacing lookup 0 subtable" dx=5 dy=0 dh=10 dv=0
EndChar

StartChar: G
Encoding: 71 71 36
Width: 564
GlyphClass: 2
Flags: W
HStem: -11 64<199.533 372.522> 0 21G<453.224 504> 253 59<271 434> 552 65<203.438 374.78>
VStem: 47 72<151.358 447.944> 434 70<118.97 253 402 492.07> 458 46<0 29.3125>
AnchorPoint: "Anchor-1" 282 0 basechar 0
AnchorPoint: "Anchor-0" 282 606 basechar 0
LayerCount: 2
Fore
SplineSet
271 312 m 1xbc
 504 312 l 1
 504 0 l 1
 458 0 l 1x7a
 442 67 l 1
 405 11 353 -11 287 -11 c 0
 133 -11 47 94 47 303 c 0
 47 513 138 617 286 617 c 0
 414 617 504 548 504 402 c 1
 434 402 l 1
 434 507 376 552 287 552 c 0
 187 552 119 481 119 325 c 2
 119 281 l 2
 119 126 177 53 281 53 c 0
 392 53 434 111 434 233 c 2
 434 253 l 1
 271 253 l 1
 271 312 l 1xbc
EndSplineSet
Position2: "'cpsp' Capital Spacing lookup 0 subtable" dx=5 dy=0 dh=10 dv=0
EndChar

StartChar: Gbreve
Encoding: 286 286 37
Width: 564
GlyphClass: 2
Flags: W
HStem: -11 64<199.533 372.522> 0 21G<453.224 504> 253 59<271 434> 552 65<203.438 374.78> 698 53<234.54 330.56>
VStem: 47 72<151.358 447.944> 176 54<758.858 781> 335 55<758.858 781> 434 70<118.97 253 402 492.07> 458 46<0 29.3125>
LayerCount: 2
Fore
SplineSet
282 698 m 0x3f
 217 698 176 742 176 781 c 1
 230 781 l 1
 232 768 253 751 282 751 c 0
 312 751 333 768 335 781 c 1
 390 781 l 1
 390 742 349 698 282 698 c 0x3f
271 312 m 1
 504 312 l 1
 504 0 l 1
 458 0 l 1x7f40
 442 67 l 1
 405 11 353 -11 287 -11 c 0
 133 -11 47 94 47 303 c 0
 47 513 138 617 286 617 c 0
 414 617 504 548 504 402 c 1
 434 402 l 1
 434 507 376 552 287 552 c 0
 187 552 119 481 119 325 c 2
 119 281 l 2
 119 126 177 53 281 53 c 0
 392 53 434 111 434 233 c 2
 434 253 l 1xbf80
 271 253 l 1
 271 312 l 1
EndSplineSet
Position2: "'cpsp' Capital Spacing lookup 0 subtable" dx=5 dy=0 dh=10 dv=0
EndChar

StartChar: Gcircumflex
Encoding: 284 284 38
Width: 564
GlyphClass: 2
Flags: W
HStem: -11 64<199.533 372.522> 0 21G<453.224 504> 253 59<271 434> 552 65<203.438 374.78>
VStem: 47 72<151.358 447.944> 434 70<118.97 253 402 492.07> 458 46<0 29.3125>
LayerCount: 2
Fore
SplineSet
243 660 m 1x38
 174 660 l 1
 250 780 l 1
 314 780 l 1
 389 660 l 1
 322 660 l 1
 283 732 l 1
 243 660 l 1x38
271 312 m 1
 504 312 l 1
 504 0 l 1
 458 0 l 1x7a
 442 67 l 1
 405 11 353 -11 287 -11 c 0
 133 -11 47 94 47 303 c 0
 47 513 138 617 286 617 c 0
 414 617 504 548 504 402 c 1
 434 402 l 1
 434 507 376 552 287 552 c 0
 187 552 119 481 119 325 c 2
 119 281 l 2
 119 126 177 53 281 53 c 0
 392 53 434 111 434 233 c 2
 434 253 l 1xbc
 271 253 l 1
 271 312 l 1
EndSplineSet
Position2: "'cpsp' Capital Spacing lookup 0 subtable" dx=5 dy=0 dh=10 dv=0
EndChar

StartChar: Gcommaaccent
Encoding: 290 290 39
Width: 564
GlyphClass: 2
Flags: W
HStem: -126 72<254 280> -11 64<199.533 372.522> 0 21G<453.224 504> 253 59<271 434> 552 65<203.438 374.78>
VStem: 47 72<151.358 447.944> 254 65<-121 -54> 434 70<118.97 253 402 492.07> 458 46<0 29.3125>
LayerCount: 2
Fore
SplineSet
271 312 m 1xdf
 504 312 l 1
 504 0 l 1
 458 0 l 1xbe80
 442 67 l 1
 405 11 353 -11 287 -11 c 0
 133 -11 47 94 47 303 c 0
 47 513 138 617 286 617 c 0
 414 617 504 548 504 402 c 1
 434 402 l 1
 434 507 376 552 287 552 c 0
 187 552 119 481 119 325 c 2
 119 281 l 2
 119 126 177 53 281 53 c 0
 392 53 434 111 434 233 c 2
 434 253 l 1
 271 253 l 1
 271 312 l 1xdf
254 -54 m 1
 319 -54 l 1
 319 -121 l 1
 297 -185 l 1
 264 -185 l 1
 280 -126 l 1
 254 -126 l 1
 254 -54 l 1
EndSplineSet
Position2: "'cpsp' Capital Spacing lookup 0 subtable" dx=5 dy=0 dh=10 dv=0
EndChar

StartChar: Gdotaccent
Encoding: 288 288 40
Width: 564
GlyphClass: 2
Flags: W
HStem: -11 64<199.533 372.522> 0 21G<453.224 504> 253 59<271 434> 552 65<203.438 374.78> 702 79<247 319>
VStem: 47 72<151.358 447.944> 247 72<702 781> 434 70<118.97 253 402 492.07> 458 46<0 29.3125>
LayerCount: 2
Fore
SplineSet
319 702 m 1x3e
 247 702 l 1
 247 781 l 1
 319 781 l 1
 319 702 l 1x3e
271 312 m 1
 504 312 l 1
 504 0 l 1
 458 0 l 1x7e80
 442 67 l 1
 405 11 353 -11 287 -11 c 0
 133 -11 47 94 47 303 c 0
 47 513 138 617 286 617 c 0
 414 617 504 548 504 402 c 1
 434 402 l 1
 434 507 376 552 287 552 c 0
 187 552 119 481 119 325 c 2
 119 281 l 2
 119 126 177 53 281 53 c 0
 392 53 434 111 434 233 c 2
 434 253 l 1xbf
 271 253 l 1
 271 312 l 1
EndSplineSet
Position2: "'cpsp' Capital Spacing lookup 0 subtable" dx=5 dy=0 dh=10 dv=0
EndChar

StartChar: H
Encoding: 72 72 41
Width: 523
GlyphClass: 2
Flags: W
HStem: 0 21G<65 133 392 459> 279 63<133 392> 586 20G<65 133 392 459>
VStem: 65 68<0 279 342 606> 392 67<0 279 342 606>
AnchorPoint: "Anchor-1" 0 0 basechar 0
AnchorPoint: "Anchor-0" 262 606 basechar 0
LayerCount: 2
Fore
SplineSet
392 0 m 1
 392 279 l 1
 133 279 l 1
 133 0 l 1
 65 0 l 1
 65 606 l 1
 133 606 l 1
 133 342 l 1
 392 342 l 1
 392 606 l 1
 459 606 l 1
 459 0 l 1
 392 0 l 1
EndSplineSet
Position2: "'cpsp' Capital Spacing lookup 0 subtable" dx=5 dy=0 dh=10 dv=0
EndChar

StartChar: Hbar
Encoding: 294 294 42
Width: 523
GlyphClass: 2
Flags: W
HStem: 0 21G<65 133 392 459> 276 61<133 392> 433 60<21 65 133 392 459 504> 586 20G<65 133 392 459>
VStem: 65 68<0 276 337 433 493 606> 392 67<0 276 337 433 493 606>
LayerCount: 2
Fore
SplineSet
459 0 m 1
 392 0 l 1
 392 276 l 1
 133 276 l 1
 133 0 l 1
 65 0 l 1
 65 433 l 1
 21 433 l 1
 21 493 l 1
 65 493 l 1
 65 606 l 1
 133 606 l 1
 133 493 l 1
 392 493 l 1
 392 606 l 1
 459 606 l 1
 459 493 l 1
 504 493 l 1
 504 433 l 1
 459 433 l 1
 459 0 l 1
132 433 m 1
 132 337 l 1
 392 337 l 1
 392 433 l 1
 132 433 l 1
EndSplineSet
Position2: "'cpsp' Capital Spacing lookup 0 subtable" dx=5 dy=0 dh=10 dv=0
EndChar

StartChar: Hcircumflex
Encoding: 292 292 43
Width: 523
GlyphClass: 2
Flags: W
HStem: 0 21G<65 133 392 459> 279 63<133 392> 586 20G<65 133 392 459>
VStem: 65 68<0 279 342 606> 392 67<0 279 342 606>
LayerCount: 2
Fore
SplineSet
301 660 m 1
 263 732 l 1
 222 660 l 1
 153 660 l 1
 229 780 l 1
 293 780 l 1
 369 660 l 1
 301 660 l 1
392 0 m 1
 392 279 l 1
 133 279 l 1
 133 0 l 1
 65 0 l 1
 65 606 l 1
 133 606 l 1
 133 342 l 1
 392 342 l 1
 392 606 l 1
 459 606 l 1
 459 0 l 1
 392 0 l 1
EndSplineSet
Position2: "'cpsp' Capital Spacing lookup 0 subtable" dx=5 dy=0 dh=10 dv=0
EndChar

StartChar: I
Encoding: 73 73 44
Width: 202
GlyphClass: 2
Flags: W
HStem: 0 21G<67 135> 586 20G<67 135>
VStem: 67 68<0 606>
AnchorPoint: "Anchor-1" 0 0 basechar 0
AnchorPoint: "Anchor-0" 101 606 basechar 0
LayerCount: 2
Fore
SplineSet
67 606 m 1
 135 606 l 1
 135 0 l 1
 67 0 l 1
 67 606 l 1
EndSplineSet
Position2: "'cpsp' Capital Spacing lookup 0 subtable" dx=5 dy=0 dh=10 dv=0
EndChar

StartChar: IJ
Encoding: 306 306 45
Width: 552
GlyphClass: 2
Flags: W
HStem: -11 64<301.168 406.832> 0 21G<67 135> 586 20G<67 135 426 494>
VStem: 67 68<0 606> 214 68<73.5953 182> 426 68<73.5953 606>
LayerCount: 2
Fore
SplineSet
67 0 m 1x7c
 67 606 l 1
 135 606 l 1
 135 0 l 1
 67 0 l 1x7c
494 606 m 1
 494 144 l 2
 494 43 442 -11 354 -11 c 0
 266 -11 214 43 214 144 c 2
 214 182 l 1
 282 182 l 1
 282 136 l 2
 282 82 308 53 354 53 c 0xbc
 400 53 426 82 426 136 c 2
 426 606 l 1
 494 606 l 1
EndSplineSet
Position2: "'cpsp' Capital Spacing lookup 0 subtable" dx=5 dy=0 dh=10 dv=0
EndChar

StartChar: Iacute
Encoding: 205 205 46
Width: 202
GlyphClass: 2
Flags: W
HStem: 0 21G<67 135> 586 20G<67 135>
VStem: 67 68<0 606>
LayerCount: 2
Fore
SplineSet
105 664 m 1
 52 664 l 1
 128 781 l 1
 198 781 l 1
 199 778 l 1
 105 664 l 1
67 0 m 1
 67 606 l 1
 135 606 l 1
 135 0 l 1
 67 0 l 1
EndSplineSet
Position2: "'cpsp' Capital Spacing lookup 0 subtable" dx=5 dy=0 dh=10 dv=0
EndChar

StartChar: Ibreve
Encoding: 300 300 47
Width: 202
GlyphClass: 2
Flags: W
HStem: 0 21G<67 135> 586 20G<67 135> 698 53<53.151 150.36>
VStem: -7 56<758.858 781> 67 68<0 606> 154 53<758.858 781>
LayerCount: 2
Fore
SplineSet
154 781 m 1
 207 781 l 1
 207 742 167 698 101 698 c 0
 35 698 -7 742 -7 781 c 1
 49 781 l 1
 51 768 72 751 101 751 c 0
 131 751 152 768 154 781 c 1
67 606 m 1
 135 606 l 1
 135 0 l 1
 67 0 l 1
 67 606 l 1
EndSplineSet
Position2: "'cpsp' Capital Spacing lookup 0 subtable" dx=5 dy=0 dh=10 dv=0
EndChar

StartChar: Icircumflex
Encoding: 206 206 48
Width: 202
GlyphClass: 2
Flags: W
HStem: 0 21G<67 135> 586 20G<67 135>
VStem: 67 68<0 606>
LayerCount: 2
Fore
SplineSet
102 732 m 1
 62 660 l 1
 -8 660 l 1
 69 780 l 1
 133 780 l 1
 208 660 l 1
 141 660 l 1
 102 732 l 1
67 606 m 1
 135 606 l 1
 135 0 l 1
 67 0 l 1
 67 606 l 1
EndSplineSet
Position2: "'cpsp' Capital Spacing lookup 0 subtable" dx=5 dy=0 dh=10 dv=0
EndChar

StartChar: Idieresis
Encoding: 207 207 49
Width: 202
GlyphClass: 2
Flags: W
HStem: 0 21G<67 135> 586 20G<67 135> 701 80<1 75 128 201>
VStem: 1 74<701 781> 67 68<0 606> 128 73<701 781>
LayerCount: 2
Fore
SplineSet
1 701 m 1xf0
 1 781 l 1
 75 781 l 1
 75 701 l 1
 1 701 l 1xf0
128 701 m 1xe4
 128 781 l 1
 201 781 l 1
 201 701 l 1
 128 701 l 1xe4
67 0 m 1xe8
 67 606 l 1
 135 606 l 1
 135 0 l 1
 67 0 l 1xe8
EndSplineSet
Position2: "'cpsp' Capital Spacing lookup 0 subtable" dx=5 dy=0 dh=10 dv=0
EndChar

StartChar: Idotaccent
Encoding: 304 304 50
Width: 202
GlyphClass: 2
Flags: W
HStem: 0 21G<67 135> 586 20G<67 135> 702 79<66 138>
VStem: 67 68<0 606 702 781>
LayerCount: 2
Fore
SplineSet
66 781 m 1
 138 781 l 1
 138 702 l 1
 66 702 l 1
 66 781 l 1
67 606 m 1
 135 606 l 1
 135 0 l 1
 67 0 l 1
 67 606 l 1
EndSplineSet
Position2: "'cpsp' Capital Spacing lookup 0 subtable" dx=5 dy=0 dh=10 dv=0
EndChar

StartChar: Igrave
Encoding: 204 204 51
Width: 202
GlyphClass: 2
Flags: W
HStem: 0 21G<67 135> 586 20G<67 135>
VStem: 67 68<0 606>
LayerCount: 2
Fore
SplineSet
98 664 m 1
 2 778 l 1
 3 781 l 1
 75 781 l 1
 151 664 l 1
 98 664 l 1
67 0 m 1
 67 606 l 1
 135 606 l 1
 135 0 l 1
 67 0 l 1
EndSplineSet
Position2: "'cpsp' Capital Spacing lookup 0 subtable" dx=5 dy=0 dh=10 dv=0
EndChar

StartChar: Imacron
Encoding: 298 298 52
Width: 202
GlyphClass: 2
Flags: W
HStem: 0 21G<67 135> 586 20G<67 135> 671 60<-10 211>
VStem: 67 68<0 606>
LayerCount: 2
Fore
SplineSet
-10 731 m 1
 211 731 l 1
 211 671 l 1
 -10 671 l 1
 -10 731 l 1
67 606 m 1
 135 606 l 1
 135 0 l 1
 67 0 l 1
 67 606 l 1
EndSplineSet
Position2: "'cpsp' Capital Spacing lookup 0 subtable" dx=5 dy=0 dh=10 dv=0
EndChar

StartChar: Iogonek
Encoding: 302 302 53
Width: 202
GlyphClass: 2
Flags: W
HStem: -159 57<121.381 185.202> -147 45<134.798 186> 586 20G<68 135>
VStem: 52 62<-96.0274 -10.2261> 68 67<0 606>
LayerCount: 2
Fore
SplineSet
135 606 m 1xa8
 135 0 l 1xa8
 126 -13 114 -28 114 -53 c 0
 114 -79 127 -102 156 -102 c 2xb0
 186 -102 l 1
 186 -147 l 1x70
 169 -154 151 -159 134 -159 c 0
 96 -159 52 -140 52 -79 c 0xb0
 52 -42 65 -19 82 0 c 1
 68 0 l 1
 68 606 l 1
 135 606 l 1xa8
EndSplineSet
Position2: "'cpsp' Capital Spacing lookup 0 subtable" dx=5 dy=0 dh=10 dv=0
EndChar

StartChar: Itilde
Encoding: 296 296 54
Width: 202
GlyphClass: 2
Flags: W
HStem: 0 21G<67 135> 586 20G<67 135> 694 62<76.1708 174.421> 719 62<27.1556 125.28>
VStem: -22 48<694 717.628> 67 68<0 606> 175 49<756.598 781>
LayerCount: 2
Fore
SplineSet
175 781 m 1xde
 224 781 l 1xde
 224 742 203 694 153 694 c 0xee
 116 694 88 719 55 719 c 0xde
 40 719 29 713 26 694 c 1
 -22 694 l 1xee
 -22 731 -1 781 49 781 c 0xde
 85 781 113 756 147 756 c 0xee
 160 756 173 761 175 781 c 1xde
67 606 m 1
 135 606 l 1
 135 0 l 1
 67 0 l 1
 67 606 l 1
EndSplineSet
Position2: "'cpsp' Capital Spacing lookup 0 subtable" dx=5 dy=0 dh=10 dv=0
EndChar

StartChar: J
Encoding: 74 74 55
Width: 350
GlyphClass: 2
Flags: W
HStem: -11 64<99.1677 204.832> 586 20G<224 292>
VStem: 12 68<73.5953 182> 224 68<73.5953 606>
AnchorPoint: "Anchor-1" 0 0 basechar 0
AnchorPoint: "Anchor-0" 175 606 basechar 0
LayerCount: 2
Fore
SplineSet
292 606 m 1
 292 144 l 2
 292 43 240 -11 152 -11 c 0
 64 -11 12 43 12 144 c 2
 12 182 l 1
 80 182 l 1
 80 136 l 2
 80 82 106 53 152 53 c 0
 198 53 224 82 224 136 c 2
 224 606 l 1
 292 606 l 1
EndSplineSet
Position2: "'cpsp' Capital Spacing lookup 0 subtable" dx=5 dy=0 dh=10 dv=0
EndChar

StartChar: Jcircumflex
Encoding: 308 308 56
Width: 350
GlyphClass: 2
Flags: W
HStem: -11 64<99.1677 204.832> 586 20G<224 292>
VStem: 12 68<73.5953 182> 224 68<73.5953 606>
LayerCount: 2
Fore
SplineSet
296 660 m 1
 257 732 l 1
 216 660 l 1
 147 660 l 1
 223 780 l 1
 287 780 l 1
 363 660 l 1
 296 660 l 1
292 606 m 1
 292 144 l 2
 292 43 240 -11 152 -11 c 0
 64 -11 12 43 12 144 c 2
 12 182 l 1
 80 182 l 1
 80 136 l 2
 80 82 106 53 152 53 c 0
 198 53 224 82 224 136 c 2
 224 606 l 1
 292 606 l 1
EndSplineSet
Position2: "'cpsp' Capital Spacing lookup 0 subtable" dx=5 dy=0 dh=10 dv=0
EndChar

StartChar: K
Encoding: 75 75 57
Width: 473
GlyphClass: 2
Flags: W
HStem: 0 21G<65 132 372.901 459> 586 20G<65 132 362.768 453>
VStem: 65 67<0 198 283 606>
AnchorPoint: "Anchor-1" 236 0 basechar 0
AnchorPoint: "Anchor-0" 236 606 basechar 0
LayerCount: 2
Fore
SplineSet
453 606 m 1
 270 363 l 1
 459 0 l 1
 383 0 l 1
 230 303 l 1
 132 198 l 1
 132 0 l 1
 65 0 l 1
 65 606 l 1
 132 606 l 1
 132 283 l 1
 378 606 l 1
 453 606 l 1
EndSplineSet
Position2: "'cpsp' Capital Spacing lookup 0 subtable" dx=5 dy=0 dh=10 dv=0
EndChar

StartChar: Kcommaaccent
Encoding: 310 310 58
Width: 473
GlyphClass: 2
Flags: W
HStem: -126 72<203 229> 0 21G<65 132 372.901 459> 586 20G<65 132 362.768 453>
VStem: 65 67<0 198 283 606> 203 65<-126 -54> 214 33<-185 -163.667>
LayerCount: 2
Fore
SplineSet
453 606 m 1xf0
 270 363 l 1
 459 0 l 1
 383 0 l 1
 230 303 l 1
 132 198 l 1
 132 0 l 1
 65 0 l 1
 65 606 l 1
 132 606 l 1
 132 283 l 1
 378 606 l 1
 453 606 l 1xf0
214 -185 m 1xf4
 229 -126 l 1
 203 -126 l 1
 203 -54 l 1
 268 -54 l 1
 268 -121 l 1xf8
 247 -185 l 1
 214 -185 l 1xf4
EndSplineSet
Position2: "'cpsp' Capital Spacing lookup 0 subtable" dx=5 dy=0 dh=10 dv=0
EndChar

StartChar: L
Encoding: 76 76 59
Width: 391
GlyphClass: 2
Flags: W
HStem: 0 61<133 377> 586 20G<65 133>
VStem: 65 68<61 606>
AnchorPoint: "Anchor-1" 196 0 basechar 0
AnchorPoint: "Anchor-0" 196 606 basechar 0
LayerCount: 2
Fore
SplineSet
377 61 m 1
 377 0 l 1
 65 0 l 1
 65 606 l 1
 133 606 l 1
 133 61 l 1
 377 61 l 1
EndSplineSet
Position2: "'cpsp' Capital Spacing lookup 0 subtable" dx=5 dy=0 dh=10 dv=0
EndChar

StartChar: Lacute
Encoding: 313 313 60
Width: 391
GlyphClass: 2
Flags: W
HStem: 0 61<133 377> 586 20G<65 133>
VStem: 65 68<61 606>
LayerCount: 2
Fore
SplineSet
97 664 m 1
 43 664 l 1
 119 781 l 1
 191 781 l 1
 192 778 l 1
 97 664 l 1
377 61 m 1
 377 0 l 1
 65 0 l 1
 65 606 l 1
 133 606 l 1
 133 61 l 1
 377 61 l 1
EndSplineSet
Position2: "'cpsp' Capital Spacing lookup 0 subtable" dx=5 dy=0 dh=10 dv=0
EndChar

StartChar: Lcaron
Encoding: 317 317 61
Width: 391
GlyphClass: 2
Flags: W
HStem: 0 61<133 377> 519 87<276 307>
VStem: 65 68<61 606> 276 78<526 606>
LayerCount: 2
Fore
SplineSet
377 61 m 1
 377 0 l 1
 65 0 l 1
 65 606 l 1
 133 606 l 1
 133 61 l 1
 377 61 l 1
317 417 m 1
 276 417 l 1
 307 519 l 1
 276 519 l 1
 276 606 l 1
 354 606 l 1
 354 526 l 1
 317 417 l 1
EndSplineSet
Position2: "'cpsp' Capital Spacing lookup 0 subtable" dx=5 dy=0 dh=10 dv=0
EndChar

StartChar: Lcommaaccent
Encoding: 315 315 62
Width: 391
GlyphClass: 2
Flags: W
HStem: -126 72<163 189> 0 61<133 377> 586 20G<65 133>
VStem: 65 68<61 606> 163 66<-121 -54>
LayerCount: 2
Fore
SplineSet
377 61 m 1
 377 0 l 1
 65 0 l 1
 65 606 l 1
 133 606 l 1
 133 61 l 1
 377 61 l 1
207 -185 m 1
 172 -185 l 1
 189 -126 l 1
 163 -126 l 1
 163 -54 l 1
 229 -54 l 1
 229 -121 l 1
 207 -185 l 1
EndSplineSet
Position2: "'cpsp' Capital Spacing lookup 0 subtable" dx=5 dy=0 dh=10 dv=0
EndChar

StartChar: Ldot
Encoding: 319 319 63
Width: 391
GlyphClass: 2
Flags: W
HStem: 0 61<133 377> 367 97<256 344> 586 20G<65 133>
VStem: 65 68<61 606> 256 88<367 464>
LayerCount: 2
Fore
SplineSet
377 61 m 1
 377 0 l 1
 65 0 l 1
 65 606 l 1
 133 606 l 1
 133 61 l 1
 377 61 l 1
256 367 m 1
 256 464 l 1
 344 464 l 1
 344 367 l 1
 256 367 l 1
EndSplineSet
Ligature2: "Ligature Substitution lookup 31 subtable" L periodcentered
Position2: "'cpsp' Capital Spacing lookup 0 subtable" dx=5 dy=0 dh=10 dv=0
EndChar

StartChar: Lslash
Encoding: 321 321 64
Width: 391
GlyphClass: 2
Flags: W
HStem: 0 61<132 376> 586 20G<65 132>
VStem: 65 67<61 219 276 279 336 606>
LayerCount: 2
Fore
SplineSet
259 448 m 1
 259 390 l 1
 132 279 l 1
 132 61 l 1
 376 61 l 1
 376 0 l 1
 65 0 l 1
 65 219 l 1
 0 163 l 1
 0 219 l 1
 65 276 l 1
 65 606 l 1
 132 606 l 1
 132 336 l 1
 259 448 l 1
EndSplineSet
Position2: "'cpsp' Capital Spacing lookup 0 subtable" dx=5 dy=0 dh=10 dv=0
EndChar

StartChar: M
Encoding: 77 77 65
Width: 604
GlyphClass: 2
Flags: W
HStem: 0 21G<57 119 261.154 332.817 476 546> 549 57<113 120.591 475.429 483>
VStem: 57 62<0 548.944> 476 70<0 548.946>
LayerCount: 2
Fore
SplineSet
476 0 m 1
 476 456 l 2
 476 475 483 549 483 549 c 1
 480 549 l 1
 472 515 467 481 457 447 c 2
 327 0 l 1
 267 0 l 1
 134 455 l 2
 126 484 123 518 117 549 c 1
 113 549 l 1
 113 549 119 472 119 456 c 2
 119 0 l 1
 57 0 l 1
 57 606 l 1
 163 606 l 1
 279 190 l 2
 292 144 299 53 299 53 c 1
 302 53 l 1
 302 53 309 145 322 190 c 2
 439 606 l 1
 546 606 l 1
 546 0 l 1
 476 0 l 1
EndSplineSet
Position2: "'cpsp' Capital Spacing lookup 0 subtable" dx=5 dy=0 dh=10 dv=0
EndChar

StartChar: N
Encoding: 78 78 66
Width: 523
GlyphClass: 2
Flags: W
HStem: 0 21G<65 126 393.13 459> 586 20G<65 133.949 399 459>
VStem: 65 61<0 489.955> 399 60<124 606>
AnchorPoint: "Anchor-1" 262 0 basechar 0
AnchorPoint: "Anchor-0" 262 606 basechar 0
LayerCount: 2
Fore
SplineSet
405 0 m 1
 167 401 l 2
 149 431 124 491 124 491 c 1
 122 490 l 1
 122 490 126 428 126 400 c 2
 126 0 l 1
 65 0 l 1
 65 606 l 1
 122 606 l 1
 358 211 l 2
 374 186 399 123 399 123 c 1
 401 124 l 1
 401 124 399 190 399 212 c 2
 399 606 l 1
 459 606 l 1
 459 0 l 1
 405 0 l 1
EndSplineSet
Position2: "'cpsp' Capital Spacing lookup 0 subtable" dx=5 dy=0 dh=10 dv=0
EndChar

StartChar: Nacute
Encoding: 323 323 67
Width: 523
GlyphClass: 2
Flags: W
HStem: 0 21G<65 126 393.13 459> 586 20G<65 133.949 399 459>
VStem: 65 61<0 489.955> 399 60<124 606>
LayerCount: 2
Fore
SplineSet
266 664 m 1
 211 664 l 1
 287 781 l 1
 358 781 l 1
 359 778 l 1
 266 664 l 1
405 0 m 1
 167 401 l 2
 149 431 124 491 124 491 c 1
 122 490 l 1
 122 490 126 428 126 400 c 2
 126 0 l 1
 65 0 l 1
 65 606 l 1
 122 606 l 1
 358 211 l 2
 374 186 399 123 399 123 c 1
 401 124 l 1
 401 124 399 190 399 212 c 2
 399 606 l 1
 459 606 l 1
 459 0 l 1
 405 0 l 1
EndSplineSet
Position2: "'cpsp' Capital Spacing lookup 0 subtable" dx=5 dy=0 dh=10 dv=0
EndChar

StartChar: Ncaron
Encoding: 327 327 68
Width: 523
GlyphClass: 2
Flags: W
HStem: 0 21G<65 126 393.13 459> 586 20G<65 133.949 399 459>
VStem: 65 61<0 489.955> 399 60<124 606>
LayerCount: 2
Fore
SplineSet
228 661 m 1
 153 781 l 1
 222 781 l 1
 262 708 l 1
 301 781 l 1
 369 781 l 1
 291 661 l 1
 228 661 l 1
405 0 m 1
 167 401 l 2
 149 431 124 491 124 491 c 1
 122 490 l 1
 122 490 126 428 126 400 c 2
 126 0 l 1
 65 0 l 1
 65 606 l 1
 122 606 l 1
 358 211 l 2
 374 186 399 123 399 123 c 1
 401 124 l 1
 401 124 399 190 399 212 c 2
 399 606 l 1
 459 606 l 1
 459 0 l 1
 405 0 l 1
EndSplineSet
Position2: "'cpsp' Capital Spacing lookup 0 subtable" dx=5 dy=0 dh=10 dv=0
EndChar

StartChar: Ncommaaccent
Encoding: 325 325 69
Width: 523
GlyphClass: 2
Flags: W
HStem: -126 72<229 256> 0 21G<65 126 393.13 459> 586 20G<65 133.949 399 459>
VStem: 65 61<0 489.955> 229 66<-121 -54> 399 60<124 606>
LayerCount: 2
Fore
SplineSet
405 0 m 1
 167 401 l 2
 149 431 124 491 124 491 c 1
 122 490 l 1
 122 490 126 428 126 400 c 2
 126 0 l 1
 65 0 l 1
 65 606 l 1
 122 606 l 1
 358 211 l 2
 374 186 399 123 399 123 c 1
 401 124 l 1
 401 124 399 190 399 212 c 2
 399 606 l 1
 459 606 l 1
 459 0 l 1
 405 0 l 1
273 -185 m 1
 238 -185 l 1
 256 -126 l 1
 229 -126 l 1
 229 -54 l 1
 295 -54 l 1
 295 -121 l 1
 273 -185 l 1
EndSplineSet
Position2: "'cpsp' Capital Spacing lookup 0 subtable" dx=5 dy=0 dh=10 dv=0
EndChar

StartChar: Eng
Encoding: 330 330 70
Width: 523
GlyphClass: 2
Flags: W
HStem: -161 53<316.662 390.14> -150 42<316 372.015> 0 21G<65 126> 586 20G<65 133.949 395 459>
VStem: 65 61<0 489.955> 396 63<-103.087 17 124 606>
LayerCount: 2
Fore
SplineSet
459 606 m 1xbc
 459 -59 l 2
 459 -110 438 -161 373 -161 c 0xbc
 352 -161 330 -156 316 -150 c 1
 316 -108 l 1x7c
 354 -108 l 2
 382 -108 396 -93 396 -65 c 2
 396 17 l 1
 167 401 l 2
 149 431 124 491 124 491 c 1
 122 490 l 1
 122 490 126 428 126 400 c 2
 126 0 l 1
 65 0 l 1
 65 606 l 1
 122 606 l 1
 358 211 l 2
 374 186 399 123 399 123 c 1
 401 124 l 1
 401 124 399 190 399 212 c 2
 395 606 l 1
 459 606 l 1xbc
EndSplineSet
Position2: "'cpsp' Capital Spacing lookup 0 subtable" dx=5 dy=0 dh=10 dv=0
EndChar

StartChar: Ntilde
Encoding: 209 209 71
Width: 523
GlyphClass: 2
Flags: W
HStem: 0 21G<65 126 393.13 459> 586 20G<65 133.949 399 459> 694 62<237.32 334.067> 719 62<188.65 285.883>
VStem: 65 61<0 489.955> 139 49<694 717.628> 335 51<756.598 781> 399 60<124 606>
LayerCount: 2
Fore
SplineSet
335 781 m 1xdf
 386 781 l 1xdf
 386 742 364 694 314 694 c 0xef
 276 694 249 719 216 719 c 0xdf
 201 719 191 713 188 694 c 1
 139 694 l 1xef
 139 731 160 781 210 781 c 0xdf
 247 781 274 756 307 756 c 0xef
 322 756 334 761 335 781 c 1xdf
405 0 m 1
 167 401 l 2
 149 431 124 491 124 491 c 1
 122 490 l 1
 122 490 126 428 126 400 c 2
 126 0 l 1
 65 0 l 1
 65 606 l 1
 122 606 l 1
 358 211 l 2
 374 186 399 123 399 123 c 1
 401 124 l 1
 401 124 399 190 399 212 c 2
 399 606 l 1
 459 606 l 1
 459 0 l 1
 405 0 l 1
EndSplineSet
Position2: "'cpsp' Capital Spacing lookup 0 subtable" dx=5 dy=0 dh=10 dv=0
EndChar

StartChar: O
Encoding: 79 79 72
Width: 564
GlyphClass: 2
Flags: W
HStem: -11 64<200.147 364.19> 552 65<200.147 364.19>
VStem: 47 72<151.358 455.078> 446 71<151.358 455.078>
AnchorPoint: "Anchor-1" 0 0 basechar 0
AnchorPoint: "Anchor-0" 282 606 basechar 0
LayerCount: 2
Fore
SplineSet
282 617 m 0
 429 617 517 513 517 303 c 0
 517 94 429 -11 282 -11 c 0
 135 -11 47 94 47 303 c 0
 47 513 135 617 282 617 c 0
282 552 m 0
 183 552 119 481 119 325 c 2
 119 281 l 2
 119 125 183 53 282 53 c 0
 382 53 446 125 446 281 c 2
 446 325 l 2
 446 481 382 552 282 552 c 0
EndSplineSet
Substitution2: "Single Substitution lookup 32 subtable" ordmasculine
Substitution2: "'aalt' Access All Alternates lookup 0 subtable" ordmasculine
Position2: "'cpsp' Capital Spacing lookup 0 subtable" dx=5 dy=0 dh=10 dv=0
EndChar

StartChar: Oacute
Encoding: 211 211 73
Width: 564
GlyphClass: 2
Flags: W
HStem: -11 64<200.147 364.19> 552 65<200.147 364.19>
VStem: 47 72<151.358 455.078> 446 71<151.358 455.078>
LayerCount: 2
Fore
SplineSet
286 664 m 1
 233 664 l 1
 309 781 l 1
 380 781 l 1
 381 778 l 1
 286 664 l 1
282 617 m 0
 429 617 517 513 517 303 c 0
 517 94 429 -11 282 -11 c 0
 135 -11 47 94 47 303 c 0
 47 513 135 617 282 617 c 0
282 552 m 0
 183 552 119 481 119 325 c 2
 119 281 l 2
 119 125 183 53 282 53 c 0
 382 53 446 125 446 281 c 2
 446 325 l 2
 446 481 382 552 282 552 c 0
EndSplineSet
Position2: "'cpsp' Capital Spacing lookup 0 subtable" dx=5 dy=0 dh=10 dv=0
EndChar

StartChar: Obreve
Encoding: 334 334 74
Width: 564
GlyphClass: 2
Flags: W
HStem: -11 64<200.147 364.19> 552 65<200.147 364.19> 698 53<234.54 330.56>
VStem: 47 72<151.358 455.078> 176 54<758.858 781> 335 55<758.858 781> 446 71<151.358 455.078>
LayerCount: 2
Fore
SplineSet
335 781 m 1
 390 781 l 1
 390 742 349 698 282 698 c 0
 217 698 176 742 176 781 c 1
 230 781 l 1
 232 768 253 751 282 751 c 0
 312 751 333 768 335 781 c 1
282 617 m 0
 429 617 517 513 517 303 c 0
 517 94 429 -11 282 -11 c 0
 135 -11 47 94 47 303 c 0
 47 513 135 617 282 617 c 0
282 552 m 0
 183 552 119 481 119 325 c 2
 119 281 l 2
 119 125 183 53 282 53 c 0
 382 53 446 125 446 281 c 2
 446 325 l 2
 446 481 382 552 282 552 c 0
EndSplineSet
Position2: "'cpsp' Capital Spacing lookup 0 subtable" dx=5 dy=0 dh=10 dv=0
EndChar

StartChar: Ocircumflex
Encoding: 212 212 75
Width: 564
GlyphClass: 2
Flags: W
HStem: -11 64<200.147 364.19> 552 65<200.147 364.19>
VStem: 47 72<151.358 455.078> 446 71<151.358 455.078>
LayerCount: 2
Fore
SplineSet
283 732 m 1
 243 660 l 1
 174 660 l 1
 250 780 l 1
 314 780 l 1
 389 660 l 1
 322 660 l 1
 283 732 l 1
282 617 m 0
 429 617 517 513 517 303 c 0
 517 94 429 -11 282 -11 c 0
 135 -11 47 94 47 303 c 0
 47 513 135 617 282 617 c 0
282 552 m 0
 183 552 119 481 119 325 c 2
 119 281 l 2
 119 125 183 53 282 53 c 0
 382 53 446 125 446 281 c 2
 446 325 l 2
 446 481 382 552 282 552 c 0
EndSplineSet
Position2: "'cpsp' Capital Spacing lookup 0 subtable" dx=5 dy=0 dh=10 dv=0
EndChar

StartChar: Odieresis
Encoding: 214 214 76
Width: 564
GlyphClass: 2
Flags: W
HStem: -11 64<200.147 364.19> 552 65<200.147 364.19> 701 80<183 257 308 382>
VStem: 47 72<151.358 455.078> 183 74<701 781> 308 74<701 781> 446 71<151.358 455.078>
LayerCount: 2
Fore
SplineSet
183 701 m 1
 183 781 l 1
 257 781 l 1
 257 701 l 1
 183 701 l 1
308 701 m 1
 308 781 l 1
 382 781 l 1
 382 701 l 1
 308 701 l 1
282 617 m 0
 429 617 517 513 517 303 c 0
 517 94 429 -11 282 -11 c 0
 135 -11 47 94 47 303 c 0
 47 513 135 617 282 617 c 0
282 552 m 0
 183 552 119 481 119 325 c 2
 119 281 l 2
 119 125 183 53 282 53 c 0
 382 53 446 125 446 281 c 2
 446 325 l 2
 446 481 382 552 282 552 c 0
EndSplineSet
Position2: "'cpsp' Capital Spacing lookup 0 subtable" dx=5 dy=0 dh=10 dv=0
EndChar

StartChar: Ograve
Encoding: 210 210 77
Width: 564
GlyphClass: 2
Flags: W
HStem: -11 64<200.147 364.19> 552 65<200.147 364.19>
VStem: 47 72<151.358 455.078> 446 71<151.358 455.078>
LayerCount: 2
Fore
SplineSet
279 664 m 1
 184 778 l 1
 184 781 l 1
 256 781 l 1
 332 664 l 1
 279 664 l 1
282 617 m 0
 429 617 517 513 517 303 c 0
 517 94 429 -11 282 -11 c 0
 135 -11 47 94 47 303 c 0
 47 513 135 617 282 617 c 0
282 552 m 0
 183 552 119 481 119 325 c 2
 119 281 l 2
 119 125 183 53 282 53 c 0
 382 53 446 125 446 281 c 2
 446 325 l 2
 446 481 382 552 282 552 c 0
EndSplineSet
Position2: "'cpsp' Capital Spacing lookup 0 subtable" dx=5 dy=0 dh=10 dv=0
EndChar

StartChar: Ohungarumlaut
Encoding: 336 336 78
Width: 564
GlyphClass: 2
Flags: W
HStem: -11 64<200.147 364.19> 552 65<200.147 364.19>
VStem: 47 72<151.358 455.078> 446 71<151.358 455.078>
LayerCount: 2
Fore
SplineSet
259 664 m 1
 202 664 l 1
 257 781 l 1
 332 781 l 1
 333 778 l 1
 259 664 l 1
373 664 m 1
 315 664 l 1
 370 781 l 1
 446 781 l 1
 447 778 l 1
 373 664 l 1
282 617 m 0
 429 617 517 513 517 303 c 0
 517 94 429 -11 282 -11 c 0
 135 -11 47 94 47 303 c 0
 47 513 135 617 282 617 c 0
282 552 m 0
 183 552 119 481 119 325 c 2
 119 281 l 2
 119 125 183 53 282 53 c 0
 382 53 446 125 446 281 c 2
 446 325 l 2
 446 481 382 552 282 552 c 0
EndSplineSet
Position2: "'cpsp' Capital Spacing lookup 0 subtable" dx=5 dy=0 dh=10 dv=0
EndChar

StartChar: Omacron
Encoding: 332 332 79
Width: 564
GlyphClass: 2
Flags: W
HStem: -11 64<200.147 364.19> 552 65<200.147 364.19> 671 60<171 392>
VStem: 47 72<151.358 455.078> 446 71<151.358 455.078>
LayerCount: 2
Fore
SplineSet
171 731 m 1
 392 731 l 1
 392 671 l 1
 171 671 l 1
 171 731 l 1
282 617 m 0
 429 617 517 513 517 303 c 0
 517 94 429 -11 282 -11 c 0
 135 -11 47 94 47 303 c 0
 47 513 135 617 282 617 c 0
282 552 m 0
 183 552 119 481 119 325 c 2
 119 281 l 2
 119 125 183 53 282 53 c 0
 382 53 446 125 446 281 c 2
 446 325 l 2
 446 481 382 552 282 552 c 0
EndSplineSet
Position2: "'cpsp' Capital Spacing lookup 0 subtable" dx=5 dy=0 dh=10 dv=0
EndChar

StartChar: Oslash
Encoding: 216 216 80
Width: 564
GlyphClass: 2
Flags: W
HStem: -11 64<199.643 363.906> 552 65<200.147 363.307> 619 20G<454.826 519>
VStem: 47 72<148.9 455.078> 445 73<151.358 454.321>
AnchorPoint: "Anchor-1" 0 0 basechar 0
AnchorPoint: "Anchor-0" 282 606 basechar 0
LayerCount: 2
Fore
SplineSet
519 639 m 1
 454 538 l 1
 495 485 518 408 518 303 c 0
 518 94 429 -11 282 -11 c 0
 225 -11 178 5 140 36 c 1
 99 -33 l 1
 47 -33 l 1
 110 67 l 1
 69 119 47 199 47 303 c 0
 47 513 135 617 282 617 c 0
 339 617 387 601 425 570 c 1
 467 639 l 1
 519 639 l 1
282 552 m 0
 183 552 119 481 119 325 c 2
 119 281 l 2
 119 217 129 167 149 131 c 1
 388 511 l 1
 359 540 325 552 282 552 c 0
415 476 m 1
 176 93 l 1
 204 66 239 53 282 53 c 0
 381 53 445 125 445 281 c 2
 445 325 l 2
 445 389 435 439 415 476 c 1
EndSplineSet
Position2: "'cpsp' Capital Spacing lookup 0 subtable" dx=5 dy=0 dh=10 dv=0
EndChar

StartChar: Oslashacute
Encoding: 510 510 81
Width: 564
GlyphClass: 2
Flags: W
HStem: -11 64<199.643 363.906> 552 65<200.147 363.307> 619 20G<454.826 519>
VStem: 47 72<148.9 455.078> 445 73<151.358 454.321>
LayerCount: 2
Fore
SplineSet
286 664 m 1
 233 664 l 1
 309 781 l 1
 380 781 l 1
 381 778 l 1
 286 664 l 1
519 639 m 1
 454 538 l 1
 495 485 518 408 518 303 c 0
 518 94 429 -11 282 -11 c 0
 225 -11 178 5 140 36 c 1
 99 -33 l 1
 47 -33 l 1
 110 67 l 1
 69 119 47 199 47 303 c 0
 47 513 135 617 282 617 c 0
 339 617 387 601 425 570 c 1
 467 639 l 1
 519 639 l 1
282 552 m 0
 183 552 119 481 119 325 c 2
 119 281 l 2
 119 217 129 167 149 131 c 1
 388 511 l 1
 359 540 325 552 282 552 c 0
415 476 m 1
 176 93 l 1
 204 66 239 53 282 53 c 0
 381 53 445 125 445 281 c 2
 445 325 l 2
 445 389 435 439 415 476 c 1
EndSplineSet
Position2: "'cpsp' Capital Spacing lookup 0 subtable" dx=5 dy=0 dh=10 dv=0
EndChar

StartChar: Otilde
Encoding: 213 213 82
Width: 564
GlyphClass: 2
Flags: W
HStem: -11 64<200.147 364.19> 552 65<200.147 364.19> 694 62<257.577 355.844> 719 62<208.156 305.407>
VStem: 47 72<151.358 455.078> 159 48<694 717.628> 357 48<756.598 781> 446 71<151.358 455.078>
LayerCount: 2
Fore
SplineSet
357 781 m 1xdf
 405 781 l 1xdf
 405 742 384 694 334 694 c 0xef
 297 694 270 719 236 719 c 0xdf
 221 719 210 713 207 694 c 1
 159 694 l 1xef
 159 731 180 781 230 781 c 0xdf
 267 781 294 756 327 756 c 0xef
 343 756 354 761 357 781 c 1xdf
282 617 m 0
 429 617 517 513 517 303 c 0
 517 94 429 -11 282 -11 c 0
 135 -11 47 94 47 303 c 0
 47 513 135 617 282 617 c 0
282 552 m 0
 183 552 119 481 119 325 c 2
 119 281 l 2
 119 125 183 53 282 53 c 0
 382 53 446 125 446 281 c 2
 446 325 l 2
 446 481 382 552 282 552 c 0
EndSplineSet
Position2: "'cpsp' Capital Spacing lookup 0 subtable" dx=5 dy=0 dh=10 dv=0
EndChar

StartChar: OE
Encoding: 338 338 83
Width: 725
GlyphClass: 2
Flags: W
HStem: -11 64<186.45 313.155> 0 62<447 691> 279 63<447 646> 545 61<447 687> 552 65<186.45 313.155>
VStem: 48 72<138.1 462.057> 381 66<142.502 279 342 463.182 544 545>
AnchorPoint: "Anchor-1" 0 0 basechar 0
AnchorPoint: "Anchor-0" 362 606 basechar 0
LayerCount: 2
Fore
SplineSet
245 617 m 0xae
 303 617 348 592 381 544 c 1
 381 606 l 1
 687 606 l 1
 687 545 l 1
 447 545 l 1
 447 342 l 1
 646 342 l 1
 646 279 l 1
 447 279 l 1
 447 62 l 1
 691 62 l 1
 691 0 l 1
 381 0 l 1
 381 62 l 1x76
 348 13 303 -11 245 -11 c 0
 121 -11 48 94 48 303 c 0
 48 513 121 617 245 617 c 0xae
250 552 m 0xae
 170 552 120 476 120 325 c 2
 120 281 l 2
 120 130 170 53 250 53 c 0
 329 53 381 130 381 281 c 2
 381 325 l 2
 381 476 329 552 250 552 c 0xae
EndSplineSet
Position2: "'cpsp' Capital Spacing lookup 0 subtable" dx=5 dy=0 dh=10 dv=0
EndChar

StartChar: P
Encoding: 80 80 84
Width: 484
GlyphClass: 2
Flags: W
HStem: 0 21G<65 133> 254 63<133 347.128> 545 61<132 349.276>
VStem: 65 68<0 254 317 545> 388 72<359.285 506.81>
LayerCount: 2
Fore
SplineSet
65 0 m 1
 65 606 l 1
 281 606 l 2
 399 606 460 536 460 432 c 0
 460 327 393 254 281 254 c 2
 133 254 l 1
 133 0 l 1
 65 0 l 1
132 317 m 1
 281 317 l 2
 345 317 388 363 388 432 c 0
 388 501 350 545 281 545 c 2
 132 545 l 1
 132 317 l 1
EndSplineSet
Position2: "'cpsp' Capital Spacing lookup 0 subtable" dx=5 dy=0 dh=10 dv=0
EndChar

StartChar: Thorn
Encoding: 222 222 85
Width: 484
GlyphClass: 2
Flags: W
HStem: 0 21G<65 133> 131 62<133 347.128> 420 62<133 350.213> 586 20G<65 133>
VStem: 65 68<0 131 193 420 482 606> 388 72<234.845 382.742>
LayerCount: 2
Fore
SplineSet
133 482 m 1
 281 482 l 2
 399 482 460 413 460 307 c 0
 460 202 393 131 281 131 c 2
 133 131 l 1
 133 0 l 1
 65 0 l 1
 65 606 l 1
 133 606 l 1
 133 482 l 1
132 193 m 1
 281 193 l 2
 345 193 388 239 388 307 c 0
 388 378 350 420 281 420 c 2
 132 420 l 1
 132 193 l 1
EndSplineSet
Position2: "'cpsp' Capital Spacing lookup 0 subtable" dx=5 dy=0 dh=10 dv=0
EndChar

StartChar: Q
Encoding: 81 81 86
Width: 564
GlyphClass: 2
Flags: W
HStem: -11 64<200.326 293> 552 65<200.147 364.19>
VStem: 47 72<151.358 455.078> 446 71<150.984 455.078>
LayerCount: 2
Fore
SplineSet
47 303 m 0
 47 513 135 617 282 617 c 0
 429 617 517 513 517 303 c 0
 517 139 463 39 370 3 c 1
 497 -110 l 1
 403 -110 l 1
 293 -11 l 1
 282 -11 l 2
 135 -11 47 94 47 303 c 0
119 325 m 2
 119 281 l 2
 119 125 183 53 282 53 c 0
 382 53 446 125 446 281 c 2
 446 325 l 2
 446 481 382 552 282 552 c 0
 183 552 119 481 119 325 c 2
EndSplineSet
Position2: "'cpsp' Capital Spacing lookup 0 subtable" dx=5 dy=0 dh=10 dv=0
EndChar

StartChar: R
Encoding: 82 82 87
Width: 523
GlyphClass: 2
Flags: W
HStem: 0 21G<65 133 415.471 500> 272 63<133 308> 545 61<132 379.633>
VStem: 65 68<0 272 335 545> 416 70<374.516 507.439>
AnchorPoint: "Anchor-1" 262 0 basechar 0
AnchorPoint: "Anchor-0" 262 606 basechar 0
LayerCount: 2
Fore
SplineSet
65 606 m 1
 306 606 l 2
 424 606 486 539 486 439 c 0
 486 364 446 306 376 283 c 1
 500 0 l 1
 424 0 l 1
 308 272 l 1
 133 272 l 1
 133 0 l 1
 65 0 l 1
 65 606 l 1
132 335 m 1
 306 335 l 2
 370 335 416 377 416 439 c 0
 416 505 376 545 305 545 c 2
 132 545 l 1
 132 335 l 1
EndSplineSet
Position2: "'cpsp' Capital Spacing lookup 0 subtable" dx=5 dy=0 dh=10 dv=0
EndChar

StartChar: Racute
Encoding: 340 340 88
Width: 523
GlyphClass: 2
Flags: W
HStem: 0 21G<65 133 415.471 500> 272 63<133 308> 545 61<132 379.633>
VStem: 65 68<0 272 335 545> 416 70<374.516 507.439>
LayerCount: 2
Fore
SplineSet
240 664 m 1
 185 664 l 1
 261 781 l 1
 333 781 l 1
 334 778 l 1
 240 664 l 1
65 606 m 1
 306 606 l 2
 424 606 486 539 486 439 c 0
 486 364 446 306 376 283 c 1
 500 0 l 1
 424 0 l 1
 308 272 l 1
 133 272 l 1
 133 0 l 1
 65 0 l 1
 65 606 l 1
132 335 m 1
 306 335 l 2
 370 335 416 377 416 439 c 0
 416 505 376 545 305 545 c 2
 132 545 l 1
 132 335 l 1
EndSplineSet
Position2: "'cpsp' Capital Spacing lookup 0 subtable" dx=5 dy=0 dh=10 dv=0
EndChar

StartChar: Rcaron
Encoding: 344 344 89
Width: 523
GlyphClass: 2
Flags: W
HStem: 0 21G<65 133 415.471 500> 272 63<133 308> 545 61<132 379.633>
VStem: 65 68<0 272 335 545> 416 70<374.516 507.439>
LayerCount: 2
Fore
SplineSet
228 661 m 1
 153 781 l 1
 222 781 l 1
 262 708 l 1
 301 781 l 1
 369 781 l 1
 291 661 l 1
 228 661 l 1
65 606 m 1
 306 606 l 2
 424 606 486 539 486 439 c 0
 486 364 446 306 376 283 c 1
 500 0 l 1
 424 0 l 1
 308 272 l 1
 133 272 l 1
 133 0 l 1
 65 0 l 1
 65 606 l 1
132 335 m 1
 306 335 l 2
 370 335 416 377 416 439 c 0
 416 505 376 545 305 545 c 2
 132 545 l 1
 132 335 l 1
EndSplineSet
Position2: "'cpsp' Capital Spacing lookup 0 subtable" dx=5 dy=0 dh=10 dv=0
EndChar

StartChar: Rcommaaccent
Encoding: 342 342 90
Width: 523
GlyphClass: 2
Flags: W
HStem: -126 72<229 256> 0 21G<65 133 415.471 500> 272 63<133 308> 545 61<132 379.633>
VStem: 65 68<0 272 335 545> 229 66<-121 -54> 416 70<374.516 507.439>
LayerCount: 2
Fore
SplineSet
65 606 m 1
 306 606 l 2
 424 606 486 539 486 439 c 0
 486 364 446 306 376 283 c 1
 500 0 l 1
 424 0 l 1
 308 272 l 1
 133 272 l 1
 133 0 l 1
 65 0 l 1
 65 606 l 1
132 335 m 1
 306 335 l 2
 370 335 416 377 416 439 c 0
 416 505 376 545 305 545 c 2
 132 545 l 1
 132 335 l 1
273 -185 m 1
 238 -185 l 1
 256 -126 l 1
 229 -126 l 1
 229 -54 l 1
 295 -54 l 1
 295 -121 l 1
 273 -185 l 1
EndSplineSet
Position2: "'cpsp' Capital Spacing lookup 0 subtable" dx=5 dy=0 dh=10 dv=0
EndChar

StartChar: S
Encoding: 83 83 91
Width: 484
GlyphClass: 2
Flags: W
HStem: -11 64<154.886 326.902> 552 65<157.832 319.594>
VStem: 39 70<97.4974 187> 52 72<408.375 520.592> 360 69<438 512.908> 373 72<95.8005 219.116>
AnchorPoint: "Anchor-1" 242 0 basechar 0
AnchorPoint: "Anchor-0" 242 606 basechar 0
LayerCount: 2
Fore
SplineSet
241 617 m 0xd4
 347 617 429 569 429 448 c 2
 429 438 l 1
 360 438 l 1
 360 453 l 2
 360 518 308 552 244 552 c 0
 177 552 124 527 124 463 c 0xd8
 124 311 445 383 445 173 c 0
 445 38 357 -11 242 -11 c 0
 132 -11 39 34 39 169 c 0
 39 176 40 185 40 187 c 1
 110 187 l 1
 109 167 l 1xe4
 109 87 165 53 236 53 c 0
 321 53 373 88 373 163 c 0
 373 319 52 240 52 456 c 0
 52 567 136 617 241 617 c 0xd4
EndSplineSet
Position2: "'cpsp' Capital Spacing lookup 0 subtable" dx=5 dy=0 dh=10 dv=0
EndChar

StartChar: Sacute
Encoding: 346 346 92
Width: 484
GlyphClass: 2
Flags: W
HStem: -11 64<154.886 326.902> 552 65<157.832 319.594>
VStem: 39 70<97.4974 187> 52 72<408.375 520.592> 360 69<438 512.908> 373 72<95.8005 219.116>
LayerCount: 2
Fore
SplineSet
244 664 m 1xc0
 191 664 l 1
 267 781 l 1
 339 781 l 1
 340 778 l 1
 244 664 l 1xc0
241 617 m 0
 347 617 429 569 429 448 c 2
 429 438 l 1
 360 438 l 1
 360 453 l 2
 360 518 308 552 244 552 c 0
 177 552 124 527 124 463 c 0xd8
 124 311 445 383 445 173 c 0
 445 38 357 -11 242 -11 c 0
 132 -11 39 34 39 169 c 0
 39 176 40 185 40 187 c 1
 110 187 l 1
 109 167 l 1xe4
 109 87 165 53 236 53 c 0
 321 53 373 88 373 163 c 0
 373 319 52 240 52 456 c 0xd4
 52 567 136 617 241 617 c 0
EndSplineSet
Position2: "'cpsp' Capital Spacing lookup 0 subtable" dx=5 dy=0 dh=10 dv=0
EndChar

StartChar: Scaron
Encoding: 352 352 93
Width: 484
GlyphClass: 2
Flags: W
HStem: -11 64<154.886 326.902> 552 65<157.832 319.594>
VStem: 39 70<97.4974 187> 52 72<408.375 520.592> 360 69<438 512.908> 373 72<95.8005 219.116>
LayerCount: 2
Fore
SplineSet
135 781 m 1xc0
 202 781 l 1
 241 708 l 1
 281 781 l 1
 350 781 l 1
 273 661 l 1
 210 661 l 1
 135 781 l 1xc0
241 617 m 0
 347 617 429 569 429 448 c 2
 429 438 l 1
 360 438 l 1
 360 453 l 2
 360 518 308 552 244 552 c 0
 177 552 124 527 124 463 c 0xd8
 124 311 445 383 445 173 c 0
 445 38 357 -11 242 -11 c 0
 132 -11 39 34 39 169 c 0
 39 176 40 185 40 187 c 1
 110 187 l 1
 109 167 l 1xe4
 109 87 165 53 236 53 c 0
 321 53 373 88 373 163 c 0
 373 319 52 240 52 456 c 0xd4
 52 567 136 617 241 617 c 0
EndSplineSet
Position2: "'cpsp' Capital Spacing lookup 0 subtable" dx=5 dy=0 dh=10 dv=0
EndChar

StartChar: Scedilla
Encoding: 350 350 94
Width: 484
GlyphClass: 2
Flags: W
HStem: -161 50<160.989 259.177> -154 43<160 232.826> -9 62<155.058 211 255 326.756> 552 65<157.832 319.594>
VStem: 39 70<99.2047 187> 52 72<408.375 520.592> 260 65<-109.873 -68.7826> 360 69<438 512.908> 373 72<94.8575 219.116>
LayerCount: 2
Fore
SplineSet
241 617 m 0xb680
 347 617 429 569 429 448 c 2
 429 438 l 1
 360 438 l 1
 360 453 l 2xb7
 360 518 308 552 244 552 c 0
 177 552 124 527 124 463 c 0
 124 311 445 383 445 173 c 0
 445 43 365 -6 255 -10 c 1
 253 -33 l 1
 291 -35 325 -49 325 -89 c 0
 325 -149 269 -161 234 -161 c 0xb680
 209 -161 181 -158 160 -154 c 1
 160 -111 l 1x7680
 228 -111 l 2
 248 -111 260 -106 260 -89 c 0
 260 -75 253 -68 230 -68 c 2
 201 -68 l 1
 211 -9 l 1
 114 -1 39 47 39 169 c 0
 39 176 40 185 40 187 c 1
 110 187 l 1
 109 167 l 1xba80
 109 87 165 53 236 53 c 0
 321 53 373 88 373 163 c 0
 373 319 52 240 52 456 c 0
 52 567 136 617 241 617 c 0xb680
EndSplineSet
Substitution2: "'locl' Localized Forms in Latin lookup 5 subtable" Scommaaccent
Substitution2: "'locl' Localized Forms in Latin lookup 4 subtable" Scommaaccent
Substitution2: "'aalt' Access All Alternates lookup 0 subtable" Scommaaccent
Position2: "'cpsp' Capital Spacing lookup 0 subtable" dx=5 dy=0 dh=10 dv=0
EndChar

StartChar: Scircumflex
Encoding: 348 348 95
Width: 484
GlyphClass: 2
Flags: W
HStem: -11 64<154.886 326.902> 552 65<157.832 319.594>
VStem: 39 70<97.4974 187> 52 72<408.375 520.592> 360 69<438 512.908> 373 72<95.8005 219.116>
LayerCount: 2
Fore
SplineSet
242 732 m 1xc0
 202 660 l 1
 135 660 l 1
 211 780 l 1
 275 780 l 1
 350 660 l 1
 281 660 l 1
 242 732 l 1xc0
241 617 m 0
 347 617 429 569 429 448 c 2
 429 438 l 1
 360 438 l 1
 360 453 l 2
 360 518 308 552 244 552 c 0
 177 552 124 527 124 463 c 0xd8
 124 311 445 383 445 173 c 0
 445 38 357 -11 242 -11 c 0
 132 -11 39 34 39 169 c 0
 39 176 40 185 40 187 c 1
 110 187 l 1
 109 167 l 1xe4
 109 87 165 53 236 53 c 0
 321 53 373 88 373 163 c 0
 373 319 52 240 52 456 c 0xd4
 52 567 136 617 241 617 c 0
EndSplineSet
Position2: "'cpsp' Capital Spacing lookup 0 subtable" dx=5 dy=0 dh=10 dv=0
EndChar

StartChar: Scommaaccent
Encoding: 536 536 96
Width: 484
GlyphClass: 2
Flags: W
HStem: -126 72<209 235> -11 64<154.886 326.902> 552 65<157.832 319.594>
VStem: 39 70<97.4974 187> 52 72<408.375 520.592> 209 65<-121 -54> 360 69<438 512.908> 373 72<95.8005 219.116>
AnchorPoint: "Anchor-1" 242 0 basechar 0
AnchorPoint: "Anchor-0" 242 606 basechar 0
LayerCount: 2
Fore
SplineSet
241 617 m 0xed
 347 617 429 569 429 448 c 2
 429 438 l 1
 360 438 l 1
 360 453 l 2
 360 518 308 552 244 552 c 0
 177 552 124 527 124 463 c 0xee
 124 311 445 383 445 173 c 0
 445 38 357 -11 242 -11 c 0
 132 -11 39 34 39 169 c 0
 39 176 40 185 40 187 c 1
 110 187 l 1
 109 167 l 1xf5
 109 87 165 53 236 53 c 0
 321 53 373 88 373 163 c 0
 373 319 52 240 52 456 c 0
 52 567 136 617 241 617 c 0xed
217 -185 m 1
 235 -126 l 1
 209 -126 l 1
 209 -54 l 1
 274 -54 l 1
 274 -121 l 1
 252 -185 l 1
 217 -185 l 1
EndSplineSet
Position2: "'cpsp' Capital Spacing lookup 0 subtable" dx=5 dy=0 dh=10 dv=0
EndChar

StartChar: T
Encoding: 84 84 97
Width: 443
GlyphClass: 2
Flags: W
HStem: 0 21G<187 255> 545 61<18 187 255 424>
VStem: 187 68<0 545>
AnchorPoint: "Anchor-1" 222 0 basechar 0
AnchorPoint: "Anchor-0" 222 606 basechar 0
LayerCount: 2
Fore
SplineSet
255 545 m 1
 255 0 l 1
 187 0 l 1
 187 545 l 1
 18 545 l 1
 18 606 l 1
 424 606 l 1
 424 545 l 1
 255 545 l 1
EndSplineSet
Position2: "'cpsp' Capital Spacing lookup 0 subtable" dx=5 dy=0 dh=10 dv=0
EndChar

StartChar: Tbar
Encoding: 358 358 98
Width: 443
GlyphClass: 2
Flags: W
HStem: 0 21G<187 255> 287 60<69 187 255 376> 545 61<18 187 255 424>
VStem: 187 68<0 287 347 545>
LayerCount: 2
Fore
SplineSet
255 545 m 1
 255 347 l 1
 376 347 l 1
 376 287 l 1
 255 287 l 1
 255 0 l 1
 187 0 l 1
 187 287 l 1
 69 287 l 1
 69 347 l 1
 187 347 l 1
 187 545 l 1
 18 545 l 1
 18 606 l 1
 424 606 l 1
 424 545 l 1
 255 545 l 1
EndSplineSet
Position2: "'cpsp' Capital Spacing lookup 0 subtable" dx=5 dy=0 dh=10 dv=0
EndChar

StartChar: Tcaron
Encoding: 356 356 99
Width: 443
GlyphClass: 2
Flags: W
HStem: 0 21G<187 255> 545 61<18 187 255 424>
VStem: 187 68<0 545>
LayerCount: 2
Fore
SplineSet
189 661 m 1
 113 781 l 1
 182 781 l 1
 220 708 l 1
 261 781 l 1
 328 781 l 1
 252 661 l 1
 189 661 l 1
255 545 m 1
 255 0 l 1
 187 0 l 1
 187 545 l 1
 18 545 l 1
 18 606 l 1
 424 606 l 1
 424 545 l 1
 255 545 l 1
EndSplineSet
Position2: "'cpsp' Capital Spacing lookup 0 subtable" dx=5 dy=0 dh=10 dv=0
EndChar

StartChar: Tcedilla
Encoding: 354 354 100
Width: 443
GlyphClass: 2
Flags: W
HStem: -161 50<140.989 239.177> -154 43<140 212.826> 545 61<18 187 255 424>
VStem: 187 68<0 545> 192 40<-35.1658 0> 240 65<-109.873 -68.7826>
AnchorPoint: "Anchor-1" 222 0 basechar 0
AnchorPoint: "Anchor-0" 222 606 basechar 0
LayerCount: 2
Fore
SplineSet
238 0 m 1xb0
 232 -33 l 1
 270 -35 305 -49 305 -89 c 0
 305 -149 249 -161 214 -161 c 0xac
 189 -161 161 -158 140 -154 c 1
 140 -111 l 1x6c
 208 -111 l 2
 227 -111 240 -106 240 -89 c 0
 240 -75 233 -68 210 -68 c 2
 181 -68 l 1
 192 0 l 1xac
 187 0 l 1
 187 545 l 1
 18 545 l 1
 18 606 l 1
 424 606 l 1
 424 545 l 1
 255 545 l 1
 255 0 l 1
 238 0 l 1xb0
EndSplineSet
Substitution2: "'locl' Localized Forms in Latin lookup 5 subtable" Tcommaaccent
Substitution2: "'locl' Localized Forms in Latin lookup 4 subtable" Tcommaaccent
Substitution2: "'aalt' Access All Alternates lookup 0 subtable" Tcommaaccent
Position2: "'cpsp' Capital Spacing lookup 0 subtable" dx=5 dy=0 dh=10 dv=0
EndChar

StartChar: Tcommaaccent
Encoding: 538 538 101
Width: 443
GlyphClass: 2
Flags: W
HStem: -126 72<189 215> 0 21G<187 255> 545 61<18 187 255 424>
VStem: 187 68<-121 -54 0 545>
LayerCount: 2
Fore
SplineSet
255 545 m 1
 255 0 l 1
 187 0 l 1
 187 545 l 1
 18 545 l 1
 18 606 l 1
 424 606 l 1
 424 545 l 1
 255 545 l 1
232 -185 m 1
 198 -185 l 1
 215 -126 l 1
 189 -126 l 1
 189 -54 l 1
 254 -54 l 1
 254 -121 l 1
 232 -185 l 1
EndSplineSet
Position2: "'cpsp' Capital Spacing lookup 0 subtable" dx=5 dy=0 dh=10 dv=0
EndChar

StartChar: U
Encoding: 85 85 102
Width: 523
GlyphClass: 2
Flags: W
HStem: -11 64<184.316 338.913> 586 20G<64 132 392 458>
VStem: 64 68<108.391 606> 392 66<108.391 606>
AnchorPoint: "Anchor-1" 0 0 basechar 0
AnchorPoint: "Anchor-0" 262 606 basechar 0
LayerCount: 2
Fore
SplineSet
458 606 m 1
 458 199 l 2
 458 62 384 -11 262 -11 c 0
 138 -11 64 62 64 199 c 2
 64 606 l 1
 132 606 l 1
 132 193 l 2
 132 102 181 53 262 53 c 0
 342 53 392 102 392 193 c 2
 392 606 l 1
 458 606 l 1
EndSplineSet
Position2: "'cpsp' Capital Spacing lookup 0 subtable" dx=5 dy=0 dh=10 dv=0
EndChar

StartChar: Uacute
Encoding: 218 218 103
Width: 523
GlyphClass: 2
Flags: W
HStem: -11 64<184.316 338.913> 586 20G<64 132 392 458>
VStem: 64 68<108.391 606> 392 66<108.391 606>
LayerCount: 2
Fore
SplineSet
266 664 m 1
 211 664 l 1
 287 781 l 1
 358 781 l 1
 359 778 l 1
 266 664 l 1
458 606 m 1
 458 199 l 2
 458 62 384 -11 262 -11 c 0
 138 -11 64 62 64 199 c 2
 64 606 l 1
 132 606 l 1
 132 193 l 2
 132 102 181 53 262 53 c 0
 342 53 392 102 392 193 c 2
 392 606 l 1
 458 606 l 1
EndSplineSet
Position2: "'cpsp' Capital Spacing lookup 0 subtable" dx=5 dy=0 dh=10 dv=0
EndChar

StartChar: Ubreve
Encoding: 364 364 104
Width: 523
GlyphClass: 2
Flags: W
HStem: -11 64<184.316 338.913> 586 20G<64 132 392 458> 698 53<213.887 311.36>
VStem: 64 68<108.391 606> 154 56<758.858 781> 315 53<758.858 781> 392 66<108.391 606>
LayerCount: 2
Fore
SplineSet
315 781 m 1
 368 781 l 1
 368 742 328 698 262 698 c 0
 195 698 154 742 154 781 c 1
 210 781 l 1
 212 768 232 751 262 751 c 0
 292 751 313 768 315 781 c 1
458 606 m 1
 458 199 l 2
 458 62 384 -11 262 -11 c 0
 138 -11 64 62 64 199 c 2
 64 606 l 1
 132 606 l 1
 132 193 l 2
 132 102 181 53 262 53 c 0
 342 53 392 102 392 193 c 2
 392 606 l 1
 458 606 l 1
EndSplineSet
Position2: "'cpsp' Capital Spacing lookup 0 subtable" dx=5 dy=0 dh=10 dv=0
EndChar

StartChar: Ucircumflex
Encoding: 219 219 105
Width: 523
GlyphClass: 2
Flags: W
HStem: -11 64<184.316 338.913> 586 20G<64 132 392 458>
VStem: 64 68<108.391 606> 392 66<108.391 606>
LayerCount: 2
Fore
SplineSet
301 660 m 1
 263 732 l 1
 222 660 l 1
 153 660 l 1
 229 780 l 1
 293 780 l 1
 369 660 l 1
 301 660 l 1
458 606 m 1
 458 199 l 2
 458 62 384 -11 262 -11 c 0
 138 -11 64 62 64 199 c 2
 64 606 l 1
 132 606 l 1
 132 193 l 2
 132 102 181 53 262 53 c 0
 342 53 392 102 392 193 c 2
 392 606 l 1
 458 606 l 1
EndSplineSet
Position2: "'cpsp' Capital Spacing lookup 0 subtable" dx=5 dy=0 dh=10 dv=0
EndChar

StartChar: Udieresis
Encoding: 220 220 106
Width: 523
GlyphClass: 2
Flags: W
HStem: -11 64<184.316 338.913> 586 20G<64 132 392 458> 701 80<160 234 288 362>
VStem: 64 68<108.391 606> 160 74<701 781> 288 74<701 781> 392 66<108.391 606>
LayerCount: 2
Fore
SplineSet
160 701 m 1
 160 781 l 1
 234 781 l 1
 234 701 l 1
 160 701 l 1
288 701 m 1
 288 781 l 1
 362 781 l 1
 362 701 l 1
 288 701 l 1
458 606 m 1
 458 199 l 2
 458 62 384 -11 262 -11 c 0
 138 -11 64 62 64 199 c 2
 64 606 l 1
 132 606 l 1
 132 193 l 2
 132 102 181 53 262 53 c 0
 342 53 392 102 392 193 c 2
 392 606 l 1
 458 606 l 1
EndSplineSet
Position2: "'cpsp' Capital Spacing lookup 0 subtable" dx=5 dy=0 dh=10 dv=0
EndChar

StartChar: Ugrave
Encoding: 217 217 107
Width: 523
GlyphClass: 2
Flags: W
HStem: -11 64<184.316 338.913> 586 20G<64 132 392 458>
VStem: 64 68<108.391 606> 392 66<108.391 606>
LayerCount: 2
Fore
SplineSet
260 664 m 1
 162 778 l 1
 163 781 l 1
 237 781 l 1
 311 664 l 1
 260 664 l 1
458 606 m 1
 458 199 l 2
 458 62 384 -11 262 -11 c 0
 138 -11 64 62 64 199 c 2
 64 606 l 1
 132 606 l 1
 132 193 l 2
 132 102 181 53 262 53 c 0
 342 53 392 102 392 193 c 2
 392 606 l 1
 458 606 l 1
EndSplineSet
Position2: "'cpsp' Capital Spacing lookup 0 subtable" dx=5 dy=0 dh=10 dv=0
EndChar

StartChar: Uhungarumlaut
Encoding: 368 368 108
Width: 523
GlyphClass: 2
Flags: W
HStem: -11 64<184.316 338.913> 586 20G<64 132 392 458>
VStem: 64 68<108.391 606> 392 66<108.391 606>
LayerCount: 2
Fore
SplineSet
239 664 m 1
 181 664 l 1
 236 781 l 1
 312 781 l 1
 313 778 l 1
 239 664 l 1
352 664 m 1
 295 664 l 1
 349 781 l 1
 425 781 l 1
 426 778 l 1
 352 664 l 1
458 606 m 1
 458 199 l 2
 458 62 384 -11 262 -11 c 0
 138 -11 64 62 64 199 c 2
 64 606 l 1
 132 606 l 1
 132 193 l 2
 132 102 181 53 262 53 c 0
 342 53 392 102 392 193 c 2
 392 606 l 1
 458 606 l 1
EndSplineSet
Position2: "'cpsp' Capital Spacing lookup 0 subtable" dx=5 dy=0 dh=10 dv=0
EndChar

StartChar: Umacron
Encoding: 362 362 109
Width: 523
GlyphClass: 2
Flags: W
HStem: -11 64<184.316 338.913> 586 20G<64 132 392 458> 671 60<152 372>
VStem: 64 68<108.391 606> 392 66<108.391 606>
LayerCount: 2
Fore
SplineSet
152 671 m 1
 152 731 l 1
 372 731 l 1
 372 671 l 1
 152 671 l 1
458 606 m 1
 458 199 l 2
 458 62 384 -11 262 -11 c 0
 138 -11 64 62 64 199 c 2
 64 606 l 1
 132 606 l 1
 132 193 l 2
 132 102 181 53 262 53 c 0
 342 53 392 102 392 193 c 2
 392 606 l 1
 458 606 l 1
EndSplineSet
Position2: "'cpsp' Capital Spacing lookup 0 subtable" dx=5 dy=0 dh=10 dv=0
EndChar

StartChar: Uogonek
Encoding: 370 370 110
Width: 523
GlyphClass: 2
Flags: W
HStem: -160 57<330.642 395.202> -148 45<343.844 396> -11 64<183.051 284.205> 586 20G<64 132 392 458>
VStem: 64 68<107.125 606> 261 64<-98.5224 -12.5198> 392 66<106.596 606>
LayerCount: 2
Fore
SplineSet
458 606 m 1xbe
 458 197 l 2
 458 97 418 33 349 4 c 1
 338 -8 325 -30 325 -54 c 0
 325 -80 336 -103 367 -103 c 2xbe
 396 -103 l 1
 396 -148 l 1x7e
 379 -155 361 -160 343 -160 c 0
 306 -160 261 -141 261 -80 c 0
 261 -50 271 -28 285 -9 c 1
 279 -10 272 -11 262 -11 c 0
 138 -11 64 61 64 197 c 2
 64 606 l 1
 132 606 l 1
 132 191 l 2
 132 101 181 53 262 53 c 0
 342 53 392 101 392 191 c 2
 392 606 l 1
 458 606 l 1xbe
EndSplineSet
Position2: "'cpsp' Capital Spacing lookup 0 subtable" dx=5 dy=0 dh=10 dv=0
EndChar

StartChar: Uring
Encoding: 366 366 111
Width: 523
GlyphClass: 2
Flags: W
HStem: -11 64<184.316 338.913> 586 20G<64 132 392 458> 640 38<225.409 299.128> 771 39<225.191 299.128>
VStem: 64 68<108.391 606> 177 39<687.507 761.809> 309 38<688.068 761.252> 392 66<108.391 606>
LayerCount: 2
Fore
SplineSet
262 810 m 0
 309 810 347 771 347 725 c 0
 347 678 309 640 262 640 c 0
 216 640 177 677 177 725 c 0
 177 772 215 810 262 810 c 0
262 771 m 0
 237 771 216 750 216 725 c 0
 216 699 237 678 262 678 c 0
 287 678 309 699 309 725 c 0
 309 750 287 771 262 771 c 0
458 606 m 1
 458 199 l 2
 458 62 384 -11 262 -11 c 0
 138 -11 64 62 64 199 c 2
 64 606 l 1
 132 606 l 1
 132 193 l 2
 132 102 181 53 262 53 c 0
 342 53 392 102 392 193 c 2
 392 606 l 1
 458 606 l 1
EndSplineSet
Position2: "'cpsp' Capital Spacing lookup 0 subtable" dx=5 dy=0 dh=10 dv=0
EndChar

StartChar: Utilde
Encoding: 360 360 112
Width: 523
GlyphClass: 2
Flags: W
HStem: -11 64<184.316 338.913> 586 20G<64 132 392 458> 694 62<237.32 334.067> 719 62<188.65 285.883>
VStem: 64 68<108.391 606> 139 49<694 717.628> 335 51<756.598 781> 392 66<108.391 606>
LayerCount: 2
Fore
SplineSet
335 781 m 1xdf
 386 781 l 1xdf
 386 742 364 694 314 694 c 0xef
 276 694 249 719 216 719 c 0xdf
 201 719 191 713 188 694 c 1
 139 694 l 1xef
 139 731 160 781 210 781 c 0xdf
 247 781 274 756 307 756 c 0xef
 322 756 334 761 335 781 c 1xdf
458 606 m 1
 458 199 l 2
 458 62 384 -11 262 -11 c 0
 138 -11 64 62 64 199 c 2
 64 606 l 1
 132 606 l 1
 132 193 l 2
 132 102 181 53 262 53 c 0
 342 53 392 102 392 193 c 2
 392 606 l 1
 458 606 l 1
EndSplineSet
Position2: "'cpsp' Capital Spacing lookup 0 subtable" dx=5 dy=0 dh=10 dv=0
EndChar

StartChar: V
Encoding: 86 86 113
Width: 484
GlyphClass: 2
Flags: W
HStem: 0 21G<187.894 296.073> 586 20G<9 91.7615 403.055 474>
LayerCount: 2
Fore
SplineSet
9 606 m 1
 86 606 l 1
 243 61 l 1
 247 61 l 1
 409 606 l 1
 474 606 l 1
 290 0 l 1
 194 0 l 1
 9 606 l 1
EndSplineSet
Position2: "'cpsp' Capital Spacing lookup 0 subtable" dx=5 dy=0 dh=10 dv=0
EndChar

StartChar: W
Encoding: 87 87 114
Width: 684
GlyphClass: 2
Flags: W
HStem: 0 60<200.906 210.627 485.225 494.412> 586 20G<12 89.5727 289.813 398.51 606.427 673>
VStem: 611 62<576.336 606>
AnchorPoint: "Anchor-1" 0 0 basechar 0
AnchorPoint: "Anchor-0" 342 606 basechar 0
LayerCount: 2
Fore
SplineSet
433 0 m 1
 362 418 l 2
 355 462 343 551 343 551 c 1
 339 551 l 1
 339 551 330 464 322 418 c 2
 252 0 l 1
 154 0 l 1
 12 606 l 1
 85 606 l 1
 184 173 l 2
 193 136 204 60 204 60 c 1
 208 60 l 1
 208 60 214 112 224 173 c 2
 293 606 l 1
 395 606 l 1
 471 173 l 2
 480 123 488 60 488 60 c 1
 491 60 l 1
 491 60 502 132 512 173 c 2
 611 606 l 1
 673 606 l 1
 530 0 l 1
 433 0 l 1
EndSplineSet
Position2: "'cpsp' Capital Spacing lookup 0 subtable" dx=5 dy=0 dh=10 dv=0
EndChar

StartChar: Wacute
Encoding: 7810 7810 115
Width: 684
GlyphClass: 2
Flags: W
HStem: 0 60<200.906 210.627 485.225 494.412> 586 20G<12 89.5727 289.813 398.51 606.427 673>
VStem: 611 62<576.336 606>
LayerCount: 2
Fore
SplineSet
346 664 m 1
 293 664 l 1
 369 781 l 1
 440 781 l 1
 441 778 l 1
 346 664 l 1
433 0 m 1
 362 418 l 2
 355 462 343 551 343 551 c 1
 339 551 l 1
 339 551 330 464 322 418 c 2
 252 0 l 1
 154 0 l 1
 12 606 l 1
 85 606 l 1
 184 173 l 2
 193 136 204 60 204 60 c 1
 208 60 l 1
 208 60 214 112 224 173 c 2
 293 606 l 1
 395 606 l 1
 471 173 l 2
 480 123 488 60 488 60 c 1
 491 60 l 1
 491 60 502 132 512 173 c 2
 611 606 l 1
 673 606 l 1
 530 0 l 1
 433 0 l 1
EndSplineSet
Position2: "'cpsp' Capital Spacing lookup 0 subtable" dx=5 dy=0 dh=10 dv=0
EndChar

StartChar: Wcircumflex
Encoding: 372 372 116
Width: 684
GlyphClass: 2
Flags: W
HStem: 0 60<200.906 210.627 485.225 494.412> 586 20G<12 89.5727 289.813 398.51 606.427 673>
VStem: 611 62<576.336 606>
LayerCount: 2
Fore
SplineSet
343 732 m 1
 303 660 l 1
 234 660 l 1
 311 780 l 1
 374 780 l 1
 450 660 l 1
 382 660 l 1
 343 732 l 1
433 0 m 1
 362 418 l 2
 355 462 343 551 343 551 c 1
 339 551 l 1
 339 551 330 464 322 418 c 2
 252 0 l 1
 154 0 l 1
 12 606 l 1
 85 606 l 1
 184 173 l 2
 193 136 204 60 204 60 c 1
 208 60 l 1
 208 60 214 112 224 173 c 2
 293 606 l 1
 395 606 l 1
 471 173 l 2
 480 123 488 60 488 60 c 1
 491 60 l 1
 491 60 502 132 512 173 c 2
 611 606 l 1
 673 606 l 1
 530 0 l 1
 433 0 l 1
EndSplineSet
Position2: "'cpsp' Capital Spacing lookup 0 subtable" dx=5 dy=0 dh=10 dv=0
EndChar

StartChar: Wdieresis
Encoding: 7812 7812 117
Width: 684
GlyphClass: 2
Flags: W
HStem: 0 60<200.906 210.627 485.225 494.412> 586 20G<12 89.5727 289.813 398.51 606.427 673> 701 80<243 315 368 442>
VStem: 243 72<701 781> 368 74<701 781> 611 62<576.336 606>
LayerCount: 2
Fore
SplineSet
243 701 m 1
 243 781 l 1
 315 781 l 1
 315 701 l 1
 243 701 l 1
368 701 m 1
 368 781 l 1
 442 781 l 1
 442 701 l 1
 368 701 l 1
433 0 m 1
 362 418 l 2
 355 462 343 551 343 551 c 1
 339 551 l 1
 339 551 330 464 322 418 c 2
 252 0 l 1
 154 0 l 1
 12 606 l 1
 85 606 l 1
 184 173 l 2
 193 136 204 60 204 60 c 1
 208 60 l 1
 208 60 214 112 224 173 c 2
 293 606 l 1
 395 606 l 1
 471 173 l 2
 480 123 488 60 488 60 c 1
 491 60 l 1
 491 60 502 132 512 173 c 2
 611 606 l 1
 673 606 l 1
 530 0 l 1
 433 0 l 1
EndSplineSet
Position2: "'cpsp' Capital Spacing lookup 0 subtable" dx=5 dy=0 dh=10 dv=0
EndChar

StartChar: Wgrave
Encoding: 7808 7808 118
Width: 684
GlyphClass: 2
Flags: W
HStem: 0 60<200.906 210.627 485.225 494.412> 586 20G<12 89.5727 289.813 398.51 606.427 673>
VStem: 611 62<576.336 606>
LayerCount: 2
Fore
SplineSet
340 664 m 1
 245 778 l 1
 246 781 l 1
 317 781 l 1
 393 664 l 1
 340 664 l 1
433 0 m 1
 362 418 l 2
 355 462 343 551 343 551 c 1
 339 551 l 1
 339 551 330 464 322 418 c 2
 252 0 l 1
 154 0 l 1
 12 606 l 1
 85 606 l 1
 184 173 l 2
 193 136 204 60 204 60 c 1
 208 60 l 1
 208 60 214 112 224 173 c 2
 293 606 l 1
 395 606 l 1
 471 173 l 2
 480 123 488 60 488 60 c 1
 491 60 l 1
 491 60 502 132 512 173 c 2
 611 606 l 1
 673 606 l 1
 530 0 l 1
 433 0 l 1
EndSplineSet
Position2: "'cpsp' Capital Spacing lookup 0 subtable" dx=5 dy=0 dh=10 dv=0
EndChar

StartChar: X
Encoding: 88 88 119
Width: 484
GlyphClass: 2
Flags: W
HStem: 0 21G<5 90.8287 384.41 479> 586 20G<22 116.67 372.24 459>
LayerCount: 2
Fore
SplineSet
397 0 m 1
 239 251 l 1
 78 0 l 1
 5 0 l 1
 204 314 l 1
 22 606 l 1
 104 606 l 1
 244 385 l 1
 385 606 l 1
 459 606 l 1
 277 323 l 1
 479 0 l 1
 397 0 l 1
EndSplineSet
Position2: "'cpsp' Capital Spacing lookup 0 subtable" dx=5 dy=0 dh=10 dv=0
EndChar

StartChar: Y
Encoding: 89 89 120
Width: 484
GlyphClass: 2
Flags: W
HStem: 0 21G<208 276> 586 20G<9 96.4386 398.842 474>
VStem: 208 68<0 257>
AnchorPoint: "Anchor-1" 0 0 basechar 0
AnchorPoint: "Anchor-0" 242 606 basechar 0
LayerCount: 2
Fore
SplineSet
208 0 m 1
 208 257 l 1
 9 606 l 1
 85 606 l 1
 248 321 l 1
 251 321 l 1
 410 606 l 1
 474 606 l 1
 276 257 l 1
 276 0 l 1
 208 0 l 1
EndSplineSet
Position2: "'cpsp' Capital Spacing lookup 0 subtable" dx=5 dy=0 dh=10 dv=0
EndChar

StartChar: Yacute
Encoding: 221 221 121
Width: 484
GlyphClass: 2
Flags: W
HStem: 0 21G<208 276> 586 20G<9 96.4386 398.842 474>
VStem: 208 68<0 257>
LayerCount: 2
Fore
SplineSet
244 664 m 1
 191 664 l 1
 267 781 l 1
 339 781 l 1
 340 778 l 1
 244 664 l 1
276 0 m 1
 208 0 l 1
 208 257 l 1
 9 606 l 1
 85 606 l 1
 248 321 l 1
 251 321 l 1
 410 606 l 1
 474 606 l 1
 276 257 l 1
 276 0 l 1
EndSplineSet
Position2: "'cpsp' Capital Spacing lookup 0 subtable" dx=5 dy=0 dh=10 dv=0
EndChar

StartChar: Ycircumflex
Encoding: 374 374 122
Width: 484
GlyphClass: 2
Flags: W
HStem: 0 21G<208 276> 586 20G<9 96.4386 398.842 474>
VStem: 208 68<0 257>
LayerCount: 2
Fore
SplineSet
242 732 m 1
 202 660 l 1
 135 660 l 1
 211 780 l 1
 275 780 l 1
 350 660 l 1
 281 660 l 1
 242 732 l 1
208 0 m 1
 208 257 l 1
 9 606 l 1
 85 606 l 1
 248 321 l 1
 251 321 l 1
 410 606 l 1
 474 606 l 1
 276 257 l 1
 276 0 l 1
 208 0 l 1
EndSplineSet
Position2: "'cpsp' Capital Spacing lookup 0 subtable" dx=5 dy=0 dh=10 dv=0
EndChar

StartChar: Ydieresis
Encoding: 376 376 123
Width: 484
GlyphClass: 2
Flags: W
HStem: 0 21G<208 276> 586 20G<9 96.4386 398.842 474> 701 80<142 215 269 343>
VStem: 142 73<701 781> 208 68<0 257> 269 74<701 781>
LayerCount: 2
Fore
SplineSet
142 701 m 1xf0
 142 781 l 1
 215 781 l 1
 215 701 l 1
 142 701 l 1xf0
269 701 m 1xe4
 269 781 l 1
 343 781 l 1
 343 701 l 1
 269 701 l 1xe4
276 0 m 1xe8
 208 0 l 1
 208 257 l 1
 9 606 l 1
 85 606 l 1
 248 321 l 1
 251 321 l 1
 410 606 l 1
 474 606 l 1
 276 257 l 1
 276 0 l 1xe8
EndSplineSet
Position2: "'cpsp' Capital Spacing lookup 0 subtable" dx=5 dy=0 dh=10 dv=0
EndChar

StartChar: Ygrave
Encoding: 7922 7922 124
Width: 484
GlyphClass: 2
Flags: W
HStem: 0 21G<208 276> 586 20G<9 96.4386 398.842 474>
VStem: 208 68<0 257>
LayerCount: 2
Fore
SplineSet
239 664 m 1
 144 778 l 1
 145 781 l 1
 216 781 l 1
 292 664 l 1
 239 664 l 1
276 0 m 1
 208 0 l 1
 208 257 l 1
 9 606 l 1
 85 606 l 1
 248 321 l 1
 251 321 l 1
 410 606 l 1
 474 606 l 1
 276 257 l 1
 276 0 l 1
EndSplineSet
Position2: "'cpsp' Capital Spacing lookup 0 subtable" dx=5 dy=0 dh=10 dv=0
EndChar

StartChar: Z
Encoding: 90 90 125
Width: 443
GlyphClass: 2
Flags: W
HStem: 0 62<116 423> 545 61<37 318>
AnchorPoint: "Anchor-1" 0 0 basechar 0
AnchorPoint: "Anchor-0" 222 606 basechar 0
LayerCount: 2
Fore
SplineSet
116 62 m 1
 423 62 l 1
 423 0 l 1
 19 0 l 1
 19 31 l 1
 318 545 l 1
 37 545 l 1
 37 606 l 1
 417 606 l 1
 417 576 l 1
 116 62 l 1
EndSplineSet
Position2: "'cpsp' Capital Spacing lookup 0 subtable" dx=5 dy=0 dh=10 dv=0
EndChar

StartChar: Zacute
Encoding: 377 377 126
Width: 443
GlyphClass: 2
Flags: W
HStem: 0 62<116 423> 545 61<37 318>
LayerCount: 2
Fore
SplineSet
224 664 m 1
 171 664 l 1
 247 781 l 1
 318 781 l 1
 319 778 l 1
 224 664 l 1
116 62 m 1
 423 62 l 1
 423 0 l 1
 19 0 l 1
 19 31 l 1
 318 545 l 1
 37 545 l 1
 37 606 l 1
 417 606 l 1
 417 576 l 1
 116 62 l 1
EndSplineSet
Position2: "'cpsp' Capital Spacing lookup 0 subtable" dx=5 dy=0 dh=10 dv=0
EndChar

StartChar: Zcaron
Encoding: 381 381 127
Width: 443
GlyphClass: 2
Flags: W
HStem: 0 62<116 423> 545 61<37 318>
LayerCount: 2
Fore
SplineSet
189 661 m 1
 113 781 l 1
 182 781 l 1
 220 708 l 1
 261 781 l 1
 328 781 l 1
 252 661 l 1
 189 661 l 1
116 62 m 1
 423 62 l 1
 423 0 l 1
 19 0 l 1
 19 31 l 1
 318 545 l 1
 37 545 l 1
 37 606 l 1
 417 606 l 1
 417 576 l 1
 116 62 l 1
EndSplineSet
Position2: "'cpsp' Capital Spacing lookup 0 subtable" dx=5 dy=0 dh=10 dv=0
EndChar

StartChar: Zdotaccent
Encoding: 379 379 128
Width: 443
GlyphClass: 2
Flags: W
HStem: 0 62<116 423> 545 61<37 318> 702 79<186 258>
VStem: 186 72<702 781>
LayerCount: 2
Fore
SplineSet
186 702 m 1
 186 781 l 1
 258 781 l 1
 258 702 l 1
 186 702 l 1
116 62 m 1
 423 62 l 1
 423 0 l 1
 19 0 l 1
 19 31 l 1
 318 545 l 1
 37 545 l 1
 37 606 l 1
 417 606 l 1
 417 576 l 1
 116 62 l 1
EndSplineSet
Position2: "'cpsp' Capital Spacing lookup 0 subtable" dx=5 dy=0 dh=10 dv=0
EndChar

StartChar: a
Encoding: 97 97 129
Width: 403
GlyphClass: 2
Flags: W
HStem: -11 58<116.042 229.37 335.866 388.665> 4 43<346.935 389> 212 62<137.554 271> 417 59<135.394 253.928>
VStem: 35 67<60.5966 178.617> 52 62<327 397.058> 271 63<89.1585 212 274 399.183>
AnchorPoint: "Anchor-1" 0 0 basechar 0
AnchorPoint: "Anchor-0" 202 465 basechar 0
LayerCount: 2
Fore
SplineSet
198 476 m 0xb6
 288 476 334 429 334 348 c 2
 334 78 l 2
 334 56 346 47 358 47 c 2xb6
 389 47 l 1
 389 4 l 1x76
 382 0 366 -6 346 -6 c 0
 309 -6 282 17 275 50 c 1
 270 50 l 1
 247 12 204 -11 158 -11 c 0
 112 -11 35 7 35 120 c 0xba
 35 249 136 274 271 274 c 1
 271 337 l 2
 271 385 255 417 191 417 c 0
 133 417 114 376 114 337 c 2
 114 327 l 1
 53 327 l 1
 52 332 52 339 52 347 c 0
 52 433 114 476 198 476 c 0xb6
272 166 m 2
 272 212 l 1
 168 212 102 199 102 124 c 0xba
 102 64 126 47 168 47 c 0
 213 47 272 82 272 166 c 2
EndSplineSet
Substitution2: "Single Substitution lookup 32 subtable" ordfeminine
Substitution2: "'aalt' Access All Alternates lookup 0 subtable" ordfeminine
EndChar

StartChar: aacute
Encoding: 225 225 130
Width: 403
GlyphClass: 2
Flags: W
HStem: -11 58<116.042 229.37 335.866 388.665> 4 43<346.935 389> 212 62<137.554 271> 417 59<135.394 253.928> 619 20G<212.009 297>
VStem: 35 67<60.5966 178.617> 52 62<327 397.058> 271 63<89.1585 212 274 399.183>
LayerCount: 2
Fore
SplineSet
202 522 m 1x39
 149 522 l 1
 225 639 l 1
 297 639 l 1
 297 636 l 1
 202 522 l 1x39
198 476 m 0
 288 476 334 429 334 348 c 2
 334 78 l 2
 334 56 346 47 358 47 c 2xbb
 389 47 l 1
 389 4 l 1x7b
 382 0 366 -6 346 -6 c 0
 309 -6 282 17 275 50 c 1
 270 50 l 1
 247 12 204 -11 158 -11 c 0
 112 -11 35 7 35 120 c 0xbd
 35 249 136 274 271 274 c 1
 271 337 l 2
 271 385 255 417 191 417 c 0
 133 417 114 376 114 337 c 2
 114 327 l 1
 53 327 l 1
 52 332 52 339 52 347 c 0xbb
 52 433 114 476 198 476 c 0
272 166 m 2
 272 212 l 1
 168 212 102 199 102 124 c 0xbd
 102 64 126 47 168 47 c 0
 213 47 272 82 272 166 c 2
EndSplineSet
EndChar

StartChar: abreve
Encoding: 259 259 131
Width: 403
GlyphClass: 2
Flags: W
HStem: -11 58<116.042 229.37 335.866 388.665> 4 43<346.935 389> 212 62<137.554 271> 417 59<135.394 253.928> 555 55<155.664 255.572> 619 20G<98 153.5 258 312>
VStem: 35 67<60.5966 178.617> 52 62<327 397.058> 98 54<618.618 639> 259 53<616.942 639> 271 63<89.1585 212 274 399.183>
LayerCount: 2
Fore
SplineSet
259 639 m 1x3cc0
 312 639 l 1
 312 600 272 555 206 555 c 0
 139 555 98 600 98 639 c 1
 152 639 l 1
 155 627 174 610 206 610 c 0
 236 610 257 627 259 639 c 1x3cc0
198 476 m 0
 288 476 334 429 334 348 c 2
 334 78 l 2
 334 56 346 47 358 47 c 2xbd20
 389 47 l 1
 389 4 l 1x7d20
 382 0 366 -6 346 -6 c 0
 309 -6 282 17 275 50 c 1
 270 50 l 1
 247 12 204 -11 158 -11 c 0
 112 -11 35 7 35 120 c 0xbe20
 35 249 136 274 271 274 c 1
 271 337 l 2
 271 385 255 417 191 417 c 0
 133 417 114 376 114 337 c 2
 114 327 l 1
 53 327 l 1
 52 332 52 339 52 347 c 0xbd20
 52 433 114 476 198 476 c 0
272 166 m 2
 272 212 l 1
 168 212 102 199 102 124 c 0xbe
 102 64 126 47 168 47 c 0
 213 47 272 82 272 166 c 2
EndSplineSet
EndChar

StartChar: acircumflex
Encoding: 226 226 132
Width: 403
GlyphClass: 2
Flags: W
HStem: -11 58<116.042 229.37 335.866 388.665> 4 43<346.935 389> 212 62<137.554 271> 417 59<135.394 253.928>
VStem: 35 67<60.5966 178.617> 52 62<327 397.058> 271 63<89.1585 212 274 399.183>
LayerCount: 2
Fore
SplineSet
205 591 m 1x32
 167 519 l 1
 98 519 l 1
 173 638 l 1
 238 638 l 1
 313 519 l 1
 244 519 l 1
 205 591 l 1x32
198 476 m 0
 288 476 334 429 334 348 c 2
 334 78 l 2
 334 56 346 47 358 47 c 2xb6
 389 47 l 1
 389 4 l 1x76
 382 0 366 -6 346 -6 c 0
 309 -6 282 17 275 50 c 1
 270 50 l 1
 247 12 204 -11 158 -11 c 0
 112 -11 35 7 35 120 c 0xba
 35 249 136 274 271 274 c 1
 271 337 l 2
 271 385 255 417 191 417 c 0
 133 417 114 376 114 337 c 2
 114 327 l 1
 53 327 l 1
 52 332 52 339 52 347 c 0xb6
 52 433 114 476 198 476 c 0
272 166 m 2
 272 212 l 1
 168 212 102 199 102 124 c 0xba
 102 64 126 47 168 47 c 0
 213 47 272 82 272 166 c 2
EndSplineSet
EndChar

StartChar: adieresis
Encoding: 228 228 133
Width: 403
GlyphClass: 2
Flags: W
HStem: -11 58<116.042 229.37 335.866 388.665> 4 43<346.935 389> 212 62<137.554 271> 417 59<135.394 253.928> 559 80<103 177 230 305>
VStem: 35 67<60.5966 178.617> 52 62<327 397.058> 103 74<559 639> 230 75<559 639> 271 63<89.1585 212 274 399.183>
LayerCount: 2
Fore
SplineSet
103 559 m 1x39
 103 639 l 1
 177 639 l 1
 177 559 l 1
 103 559 l 1x39
230 559 m 1x3880
 230 639 l 1
 305 639 l 1
 305 559 l 1
 230 559 l 1x3880
198 476 m 0
 288 476 334 429 334 348 c 2
 334 78 l 2
 334 56 346 47 358 47 c 2xba40
 389 47 l 1
 389 4 l 1x7a40
 382 0 366 -6 346 -6 c 0
 309 -6 282 17 275 50 c 1
 270 50 l 1
 247 12 204 -11 158 -11 c 0
 112 -11 35 7 35 120 c 0xbc40
 35 249 136 274 271 274 c 1
 271 337 l 2
 271 385 255 417 191 417 c 0
 133 417 114 376 114 337 c 2
 114 327 l 1
 53 327 l 1
 52 332 52 339 52 347 c 0xba40
 52 433 114 476 198 476 c 0
272 166 m 2
 272 212 l 1
 168 212 102 199 102 124 c 0xbc
 102 64 126 47 168 47 c 0
 213 47 272 82 272 166 c 2
EndSplineSet
EndChar

StartChar: agrave
Encoding: 224 224 134
Width: 403
GlyphClass: 2
Flags: W
HStem: -11 58<116.042 229.37 335.866 388.665> 4 43<346.935 389> 212 62<137.554 271> 417 59<135.394 253.928> 619 20G<101 185.991>
VStem: 35 67<60.5966 178.617> 52 62<327 397.058> 271 63<89.1585 212 274 399.183>
LayerCount: 2
Fore
SplineSet
196 522 m 1x3d
 101 636 l 1
 102 639 l 1
 173 639 l 1
 249 522 l 1
 196 522 l 1x3d
198 476 m 0
 288 476 334 429 334 348 c 2
 334 78 l 2
 334 56 346 47 358 47 c 2xbb
 389 47 l 1
 389 4 l 1x7b
 382 0 366 -6 346 -6 c 0
 309 -6 282 17 275 50 c 1
 270 50 l 1
 247 12 204 -11 158 -11 c 0
 112 -11 35 7 35 120 c 0xbd
 35 249 136 274 271 274 c 1
 271 337 l 2
 271 385 255 417 191 417 c 0
 133 417 114 376 114 337 c 2
 114 327 l 1
 53 327 l 1
 52 332 52 339 52 347 c 0xbb
 52 433 114 476 198 476 c 0
272 166 m 2
 272 212 l 1
 168 212 102 199 102 124 c 0xbd
 102 64 126 47 168 47 c 0
 213 47 272 82 272 166 c 2
EndSplineSet
EndChar

StartChar: amacron
Encoding: 257 257 135
Width: 403
GlyphClass: 2
Flags: W
HStem: -11 58<116.042 229.37 335.866 388.665> 4 43<346.935 389> 212 62<137.554 271> 417 59<135.394 253.928> 530 59<95 316>
VStem: 35 67<60.5966 178.617> 52 62<327 397.058> 271 63<89.1585 212 274 399.183>
LayerCount: 2
Fore
SplineSet
95 589 m 1x39
 316 589 l 1
 316 530 l 1
 95 530 l 1
 95 589 l 1x39
198 476 m 0
 288 476 334 429 334 348 c 2
 334 78 l 2
 334 56 346 47 358 47 c 2xbb
 389 47 l 1
 389 4 l 1x7b
 382 0 366 -6 346 -6 c 0
 309 -6 282 17 275 50 c 1
 270 50 l 1
 247 12 204 -11 158 -11 c 0
 112 -11 35 7 35 120 c 0xbd
 35 249 136 274 271 274 c 1
 271 337 l 2
 271 385 255 417 191 417 c 0
 133 417 114 376 114 337 c 2
 114 327 l 1
 53 327 l 1
 52 332 52 339 52 347 c 0xbb
 52 433 114 476 198 476 c 0
272 166 m 2
 272 212 l 1
 168 212 102 199 102 124 c 0xbd
 102 64 126 47 168 47 c 0
 213 47 272 82 272 166 c 2
EndSplineSet
EndChar

StartChar: aogonek
Encoding: 261 261 136
Width: 403
GlyphClass: 2
Flags: W
HStem: -160 57<372.642 437.112> -148 45<385.842 438> -11 58<116.042 229.37> 212 62<137.554 271> 417 59<135.394 253.928>
VStem: 35 67<60.5966 178.617> 52 62<327 397.058> 271 63<89.1585 212 274 399.183> 303 64<-98.7692 -9.93736>
LayerCount: 2
Fore
SplineSet
438 -103 m 1x7880
 438 -148 l 1x7880
 419 -155 403 -160 385 -160 c 0
 348 -160 303 -141 303 -80 c 0
 303 -46 314 -24 329 -4 c 1
 302 2 282 21 275 50 c 1
 270 50 l 1
 247 12 204 -11 158 -11 c 0
 112 -11 35 7 35 120 c 0xbc80
 35 249 136 274 271 274 c 1
 271 337 l 2
 271 385 255 417 191 417 c 0
 133 417 114 376 114 337 c 2
 114 327 l 1
 53 327 l 1
 52 332 52 339 52 347 c 0
 52 433 114 476 198 476 c 0
 288 476 334 429 334 348 c 2
 334 78 l 2xbb
 334 56 346 47 358 47 c 2
 389 47 l 1
 389 4 l 1
 378 -10 367 -31 367 -54 c 0
 367 -80 377 -103 407 -103 c 2xb880
 438 -103 l 1x7880
272 166 m 2
 272 212 l 1
 168 212 102 199 102 124 c 0x3c
 102 64 126 47 168 47 c 0
 213 47 272 82 272 166 c 2
EndSplineSet
EndChar

StartChar: aring
Encoding: 229 229 137
Width: 403
GlyphClass: 2
Flags: W
HStem: -11 58<116.042 229.37 335.866 388.665> 4 43<346.935 389> 212 62<137.554 271> 417 59<135.394 253.928> 497 39<166.669 240.244> 629 38<166.449 240.459>
VStem: 35 67<60.5966 178.617> 52 62<327 397.058> 120 37<546.876 618.468> 251 38<547.091 619.16> 271 63<89.1585 212 274 399.183>
LayerCount: 2
Fore
SplineSet
205 667 m 0x3cc0
 252 667 289 628 289 584 c 0
 289 535 251 497 205 497 c 0
 159 497 120 534 120 584 c 0
 120 629 158 667 205 667 c 0x3cc0
204 629 m 0
 179 629 157 608 157 584 c 0
 157 558 179 536 204 536 c 0
 228 536 251 558 251 584 c 0
 251 608 228 629 204 629 c 0
198 476 m 0
 288 476 334 429 334 348 c 2
 334 78 l 2
 334 56 346 47 358 47 c 2xbda0
 389 47 l 1
 389 4 l 1x7da0
 382 0 366 -6 346 -6 c 0
 309 -6 282 17 275 50 c 1
 270 50 l 1
 247 12 204 -11 158 -11 c 0
 112 -11 35 7 35 120 c 0xbea0
 35 249 136 274 271 274 c 1
 271 337 l 2
 271 385 255 417 191 417 c 0
 133 417 114 376 114 337 c 2
 114 327 l 1
 53 327 l 1
 52 332 52 339 52 347 c 0xbda0
 52 433 114 476 198 476 c 0
272 166 m 2
 272 212 l 1
 168 212 102 199 102 124 c 0xbe80
 102 64 126 47 168 47 c 0
 213 47 272 82 272 166 c 2
EndSplineSet
EndChar

StartChar: aringacute
Encoding: 507 507 138
Width: 392
GlyphClass: 2
Flags: W
HStem: -11 58<116.042 229.37 335.866 388.665> 4 43<346.935 389> 212 62<137.554 271> 417 59<135.394 253.928> 500 37<166.131 242.07> 621 38<165.585 242.614>
VStem: 35 67<60.5966 178.617> 52 62<327 397.058> 120 37<546.791 612.133> 251 38<545.805 612.222> 271 63<89.1585 212 274 399.183>
LayerCount: 2
Fore
SplineSet
232 679 m 1x3c80
 179 679 l 1
 246 781 l 1
 317 781 l 1
 318 778 l 1
 232 679 l 1x3c80
205 659 m 0
 253 659 289 623 289 579 c 0x3cc0
 289 534 252 500 205 500 c 0
 159 500 120 533 120 579 c 0
 120 624 158 659 205 659 c 0
204 621 m 0
 180 621 157 604 157 579 c 0
 157 555 180 537 204 537 c 0
 228 537 251 555 251 579 c 0
 251 604 228 621 204 621 c 0
198 476 m 0
 288 476 334 429 334 348 c 2
 334 78 l 2
 334 56 346 47 358 47 c 2xbda0
 389 47 l 1
 389 4 l 1x7da0
 382 0 366 -6 346 -6 c 0
 309 -6 282 17 275 50 c 1
 270 50 l 1
 247 12 204 -11 158 -11 c 0
 112 -11 35 7 35 120 c 0xbea0
 35 249 136 274 271 274 c 1
 271 337 l 2
 271 385 255 417 191 417 c 0
 133 417 114 376 114 337 c 2
 114 327 l 1
 53 327 l 1
 52 332 52 339 52 347 c 0xbda0
 52 433 114 476 198 476 c 0
272 166 m 2
 272 212 l 1
 168 212 102 199 102 124 c 0xbe80
 102 64 126 47 168 47 c 0
 213 47 272 82 272 166 c 2
EndSplineSet
EndChar

StartChar: atilde
Encoding: 227 227 139
Width: 403
GlyphClass: 2
Flags: W
HStem: -11 58<116.042 229.37 335.866 388.665> 4 43<346.935 389> 212 62<137.554 271> 417 59<135.394 253.928> 552 62<183.849 278.159> 578 61<131.911 229.115>
VStem: 35 67<60.5966 178.617> 52 62<327 397.058> 81 50<552 576.015> 271 63<89.1585 212 274 399.183> 279 50<614.598 639>
LayerCount: 2
Fore
SplineSet
279 639 m 1x34a0
 329 639 l 1x34a0
 329 600 307 552 256 552 c 0x38a0
 220 552 192 578 160 578 c 0x34a0
 144 578 133 572 131 552 c 1
 81 552 l 1x38a0
 81 590 103 639 154 639 c 0x34a0
 190 639 218 614 250 614 c 0x38a0
 265 614 277 620 279 639 c 1x34a0
198 476 m 0
 288 476 334 429 334 348 c 2
 334 78 l 2
 334 56 346 47 358 47 c 2xb140
 389 47 l 1
 389 4 l 1x7140
 382 0 366 -6 346 -6 c 0
 309 -6 282 17 275 50 c 1
 270 50 l 1
 247 12 204 -11 158 -11 c 0
 112 -11 35 7 35 120 c 0xb240
 35 249 136 274 271 274 c 1
 271 337 l 2
 271 385 255 417 191 417 c 0
 133 417 114 376 114 337 c 2
 114 327 l 1
 53 327 l 1
 52 332 52 339 52 347 c 0xb140
 52 433 114 476 198 476 c 0
272 166 m 2
 272 212 l 1
 168 212 102 199 102 124 c 0xb2
 102 64 126 47 168 47 c 0
 213 47 272 82 272 166 c 2
EndSplineSet
EndChar

StartChar: ae
Encoding: 230 230 140
Width: 644
GlyphClass: 2
Flags: W
HStem: -11 58<116.183 231.935 383.594 500.73> 212 62<138.49 273 339 529> 417 59<136.823 255.867 382.962 497.131>
VStem: 36 66<60.5966 178.617> 53 64<327 397.265> 274 65<97.5374 212 274 366.036> 529 66<76.9928 156 274 380.75>
AnchorPoint: "Anchor-1" 0 0 basechar 0
AnchorPoint: "Anchor-0" 323 465 basechar 0
LayerCount: 2
Fore
SplineSet
448 476 m 0xee
 545 476 595 417 595 264 c 2
 595 212 l 1
 339 212 l 1
 339 97 375 48 449 48 c 0
 498 48 534 90 534 156 c 1
 595 156 l 1
 595 57 537 -11 446 -11 c 0
 382 -11 334 11 305 62 c 1
 272 18 223 -11 173 -11 c 0
 112 -11 36 7 36 120 c 0xf6
 36 249 137 274 274 274 c 1
 274 337 l 2
 274 385 257 417 192 417 c 0
 134 417 117 376 117 337 c 2
 117 327 l 1
 54 327 l 1
 53 332 53 339 53 347 c 0
 53 433 115 476 199 476 c 0
 258 476 299 456 320 421 c 1
 349 458 391 476 448 476 c 0xee
447 417 m 0
 377 417 347 369 339 274 c 1
 529 274 l 1
 529 368 501 417 447 417 c 0
273 157 m 2
 273 212 l 1
 168 212 102 199 102 124 c 0
 102 64 126 47 168 47 c 0
 213 47 273 78 273 157 c 2
EndSplineSet
EndChar

StartChar: aeacute
Encoding: 509 509 141
Width: 644
GlyphClass: 2
Flags: W
HStem: -11 58<116.183 231.935 383.594 500.73> 212 62<138.49 273 339 529> 417 59<136.823 255.867 382.962 497.131> 619 20G<335.009 420>
VStem: 36 66<60.5966 178.617> 53 64<327 397.265> 274 65<97.5374 212 274 366.036> 529 66<76.9928 156 274 380.75>
LayerCount: 2
Fore
SplineSet
325 522 m 1xf3
 272 522 l 1
 348 639 l 1
 419 639 l 1
 420 636 l 1
 325 522 l 1xf3
448 476 m 0
 545 476 595 417 595 264 c 2
 595 212 l 1
 339 212 l 1
 339 97 375 48 449 48 c 0
 498 48 534 90 534 156 c 1
 595 156 l 1
 595 57 537 -11 446 -11 c 0
 382 -11 334 11 305 62 c 1
 272 18 223 -11 173 -11 c 0
 112 -11 36 7 36 120 c 0xfb
 36 249 137 274 274 274 c 1
 274 337 l 2
 274 385 257 417 192 417 c 0
 134 417 117 376 117 337 c 2
 117 327 l 1
 54 327 l 1
 53 332 53 339 53 347 c 0xf7
 53 433 115 476 199 476 c 0
 258 476 299 456 320 421 c 1
 349 458 391 476 448 476 c 0
447 417 m 0
 377 417 347 369 339 274 c 1
 529 274 l 1
 529 368 501 417 447 417 c 0
273 157 m 2
 273 212 l 1
 168 212 102 199 102 124 c 0
 102 64 126 47 168 47 c 0
 213 47 273 78 273 157 c 2
EndSplineSet
EndChar

StartChar: b
Encoding: 98 98 142
Width: 391
GlyphClass: 2
Flags: W
HStem: -11 56<154.248 255.863> 0 21G<54 102.774> 420 56<154.472 256.046> 619 20G<54 117>
VStem: 54 63<87.75 376.375 422 639> 54 45<0 37.1> 290 66<86.2139 378.786>
LayerCount: 2
Fore
SplineSet
117 422 m 1x7a
 121 422 l 1
 137 455 174 476 219 476 c 0
 294 476 356 402 356 233 c 0
 356 62 301 -11 214 -11 c 0xba
 171 -11 135 11 113 53 c 1
 109 53 l 1
 99 0 l 1
 54 0 l 1x76
 54 639 l 1
 117 639 l 1
 117 422 l 1x7a
204 420 m 0
 146 420 117 362 117 245 c 2
 117 216 l 2
 117 102 146 45 204 45 c 0
 260 45 290 91 290 216 c 2
 290 249 l 2
 290 374 260 420 204 420 c 0
EndSplineSet
EndChar

StartChar: c
Encoding: 99 99 143
Width: 350
GlyphClass: 2
Flags: W
HStem: -11 58<133.581 236.195> 418 58<134.173 236.707>
VStem: 31 66<91.4308 373.287> 261 61<71.524 171 294 390.584>
AnchorPoint: "Anchor-1" 175 0 basechar 0
AnchorPoint: "Anchor-0" 175 465 basechar 0
LayerCount: 2
Fore
SplineSet
186 476 m 0
 287 476 322 408 322 294 c 1
 257 294 l 1
 257 378 243 418 186 418 c 0
 124 418 97 361 97 249 c 2
 97 216 l 2
 97 104 124 47 185 47 c 0
 241 47 261 90 261 171 c 1
 322 171 l 1
 322 84 288 -11 185 -11 c 0
 78 -11 31 65 31 232 c 0
 31 400 79 476 186 476 c 0
EndSplineSet
EndChar

StartChar: cacute
Encoding: 263 263 144
Width: 350
GlyphClass: 2
Flags: W
HStem: -11 58<133.581 236.195> 418 58<134.173 236.707> 619 20G<196.009 281>
VStem: 31 66<91.4308 373.287> 261 61<71.524 171 294 390.584>
LayerCount: 2
Fore
SplineSet
187 522 m 1
 133 522 l 1
 209 639 l 1
 281 639 l 1
 281 636 l 1
 187 522 l 1
186 476 m 0
 287 476 322 408 322 294 c 1
 257 294 l 1
 257 378 243 418 186 418 c 0
 124 418 97 361 97 249 c 2
 97 216 l 2
 97 104 124 47 185 47 c 0
 241 47 261 90 261 171 c 1
 322 171 l 1
 322 84 288 -11 185 -11 c 0
 78 -11 31 65 31 232 c 0
 31 400 79 476 186 476 c 0
EndSplineSet
EndChar

StartChar: ccaron
Encoding: 269 269 145
Width: 350
GlyphClass: 2
Flags: W
HStem: -11 58<133.581 236.195> 418 58<134.173 236.707> 619 20G<66 143.685 201.041 281>
VStem: 31 66<91.4308 373.287> 261 61<71.524 171 294 390.584>
LayerCount: 2
Fore
SplineSet
66 639 m 1
 133 639 l 1
 172 566 l 1
 212 639 l 1
 281 639 l 1
 204 520 l 1
 141 520 l 1
 66 639 l 1
186 476 m 0
 287 476 322 408 322 294 c 1
 257 294 l 1
 257 378 243 418 186 418 c 0
 124 418 97 361 97 249 c 2
 97 216 l 2
 97 104 124 47 185 47 c 0
 241 47 261 90 261 171 c 1
 322 171 l 1
 322 84 288 -11 185 -11 c 0
 78 -11 31 65 31 232 c 0
 31 400 79 476 186 476 c 0
EndSplineSet
EndChar

StartChar: ccedilla
Encoding: 231 231 146
Width: 350
GlyphClass: 2
Flags: W
HStem: -161 50<89.9902 188.978> -154 43<89 161.871> -11 58<184 234.983> 418 58<134.173 236.707>
VStem: 31 66<91.0789 373.287> 189 65<-109.873 -68.7826> 261 61<71.803 171 294 390.584>
LayerCount: 2
Fore
SplineSet
186 476 m 0xbe
 287 476 322 408 322 294 c 1
 257 294 l 1
 257 378 243 418 186 418 c 0
 124 418 97 361 97 249 c 2
 97 216 l 2
 97 104 124 47 185 47 c 0
 241 47 261 90 261 171 c 1
 322 171 l 1
 322 84 287 -10 184 -11 c 1
 182 -33 l 1
 220 -35 254 -49 254 -89 c 0
 254 -149 200 -161 163 -161 c 0xbe
 139 -161 110 -158 89 -154 c 1
 89 -111 l 1x7e
 157 -111 l 2
 178 -111 189 -106 189 -89 c 0
 189 -75 182 -68 159 -68 c 2
 130 -68 l 1
 141 -4 l 1
 65 14 31 90 31 232 c 0
 31 400 79 476 186 476 c 0xbe
EndSplineSet
EndChar

StartChar: ccircumflex
Encoding: 265 265 147
Width: 350
GlyphClass: 2
Flags: W
HStem: -11 58<133.581 236.195> 418 58<134.173 236.707>
VStem: 31 66<91.4308 373.287> 261 61<71.524 171 294 390.584>
LayerCount: 2
Fore
SplineSet
173 591 m 1
 133 519 l 1
 66 519 l 1
 142 638 l 1
 206 638 l 1
 281 519 l 1
 212 519 l 1
 173 591 l 1
186 476 m 0
 287 476 322 408 322 294 c 1
 257 294 l 1
 257 378 243 418 186 418 c 0
 124 418 97 361 97 249 c 2
 97 216 l 2
 97 104 124 47 185 47 c 0
 241 47 261 90 261 171 c 1
 322 171 l 1
 322 84 288 -11 185 -11 c 0
 78 -11 31 65 31 232 c 0
 31 400 79 476 186 476 c 0
EndSplineSet
EndChar

StartChar: cdotaccent
Encoding: 267 267 148
Width: 350
GlyphClass: 2
Flags: W
HStem: -11 58<133.581 236.195> 418 58<134.173 236.707> 560 79<137 209>
VStem: 31 66<91.4308 373.287> 137 72<560 639> 261 61<71.524 171 294 390.584>
LayerCount: 2
Fore
SplineSet
137 639 m 1
 209 639 l 1
 209 560 l 1
 137 560 l 1
 137 639 l 1
186 476 m 0
 287 476 322 408 322 294 c 1
 257 294 l 1
 257 378 243 418 186 418 c 0
 124 418 97 361 97 249 c 2
 97 216 l 2
 97 104 124 47 185 47 c 0
 241 47 261 90 261 171 c 1
 322 171 l 1
 322 84 288 -11 185 -11 c 0
 78 -11 31 65 31 232 c 0
 31 400 79 476 186 476 c 0
EndSplineSet
EndChar

StartChar: d
Encoding: 100 100 149
Width: 391
GlyphClass: 2
Flags: W
HStem: -11 56<134.978 236.86> 0 21G<288.981 337> 420 56<135.08 236.489> 619 20G<275 337>
VStem: 35 65<86.2139 378.786> 275 62<90.4636 373.602 422 639> 292 45<0 46.375>
LayerCount: 2
Fore
SplineSet
284 53 m 1x7a
 278 53 l 1
 257 11 220 -11 177 -11 c 0
 90 -11 35 62 35 233 c 0
 35 402 97 476 173 476 c 0
 217 476 254 455 270 422 c 1
 275 422 l 1
 275 639 l 1
 337 639 l 1xbc
 337 0 l 1
 292 0 l 1
 284 53 l 1x7a
187 420 m 0
 131 420 100 374 100 249 c 2
 100 216 l 2
 100 91 131 45 187 45 c 0
 244 45 275 102 275 216 c 2
 275 245 l 2
 275 362 244 420 187 420 c 0
EndSplineSet
EndChar

StartChar: eth
Encoding: 240 240 150
Width: 391
GlyphClass: 2
Flags: W
HStem: -11 58<141.182 250.081> 418 58<139.853 233.595> 586 20G<209 308> 619 20G<100 176.5>
VStem: 35 65<96.4723 366.58> 290 67<96.4723 369.047>
LayerCount: 2
Fore
SplineSet
308 555 m 1
 246 549 l 1
 314 459 357 358 357 232 c 0
 357 65 300 -11 196 -11 c 0
 92 -11 35 65 35 232 c 0
 35 408 102 476 191 476 c 0
 207 476 221 471 234 464 c 1
 218 492 201 516 181 543 c 1
 78 534 l 1
 78 584 l 1
 140 590 l 1
 129 603 116 619 100 636 c 1
 102 639 l 1
 170 639 l 1
 183 624 197 610 209 596 c 1
 308 606 l 1
 308 555 l 1
290 216 m 2
 290 249 l 2
 290 361 256 418 196 418 c 0
 133 418 100 361 100 249 c 2
 100 216 l 2
 100 104 133 47 196 47 c 0
 257 47 290 104 290 216 c 2
EndSplineSet
EndChar

StartChar: dcaron
Encoding: 271 271 151
Width: 424
GlyphClass: 2
Flags: W
HStem: -11 56<134.978 236.86> 0 21G<288.981 337> 420 56<135.08 236.489> 519 87<374 406> 619 20G<275 337>
VStem: 35 65<86.2139 378.786> 275 62<90.4636 373.602 422 639> 292 45<0 46.375> 374 79<526 606>
LayerCount: 2
Fore
SplineSet
284 53 m 1x7d80
 278 53 l 1
 257 11 220 -11 177 -11 c 0
 90 -11 35 62 35 233 c 0
 35 402 97 476 173 476 c 0
 217 476 254 455 270 422 c 1
 275 422 l 1
 275 639 l 1
 337 639 l 1xbe80
 337 0 l 1
 292 0 l 1
 284 53 l 1x7d80
374 417 m 1
 406 519 l 1
 374 519 l 1
 374 606 l 1
 453 606 l 1
 453 526 l 1
 415 417 l 1
 374 417 l 1
187 420 m 0
 131 420 100 374 100 249 c 2
 100 216 l 2
 100 91 131 45 187 45 c 0
 244 45 275 102 275 216 c 2
 275 245 l 2
 275 362 244 420 187 420 c 0
EndSplineSet
EndChar

StartChar: dcroat
Encoding: 273 273 152
Width: 386
GlyphClass: 2
Flags: W
HStem: -11 56<134.978 236.86> 0 21G<288.981 337> 420 56<135.08 236.489> 515 55<182 275 337 389> 619 20G<275 337>
VStem: 35 65<86.2139 378.786> 275 62<90.4636 373.602 422 515 570 639> 292 45<0 46.375>
LayerCount: 2
Fore
SplineSet
389 570 m 1xbe
 389 515 l 1
 337 515 l 1xbe
 337 0 l 1
 292 0 l 1x7d
 284 53 l 1
 278 53 l 1
 257 11 220 -11 177 -11 c 0
 90 -11 35 62 35 233 c 0
 35 402 97 476 173 476 c 0
 217 476 254 455 270 422 c 1
 275 422 l 1
 275 515 l 1
 182 515 l 1
 182 570 l 1
 275 570 l 1
 275 639 l 1
 337 639 l 1
 337 570 l 1
 389 570 l 1xbe
187 420 m 0
 131 420 100 374 100 249 c 2
 100 216 l 2
 100 91 131 45 187 45 c 0
 244 45 275 102 275 216 c 2
 275 245 l 2
 275 362 244 420 187 420 c 0
EndSplineSet
EndChar

StartChar: e
Encoding: 101 101 153
Width: 403
GlyphClass: 2
Flags: W
HStem: -11 59<150.251 268.477> 212 62<107 297> 417 59<149.709 264.426>
VStem: 40 66<98.9812 212 274 363.035> 297 65<76.9928 156 274 380.75>
AnchorPoint: "Anchor-1" 202 0 basechar 0
AnchorPoint: "Anchor-0" 202 465 basechar 0
LayerCount: 2
Fore
SplineSet
214 476 m 0
 313 476 362 417 362 264 c 2
 362 212 l 1
 106 212 l 1
 107 97 143 48 217 48 c 0
 265 48 300 90 300 156 c 1
 362 156 l 1
 362 57 303 -11 214 -11 c 0
 99 -11 40 59 40 232 c 0
 40 400 96 476 214 476 c 0
214 417 m 0
 145 417 114 369 107 274 c 1
 297 274 l 1
 297 368 269 417 214 417 c 0
EndSplineSet
EndChar

StartChar: eacute
Encoding: 233 233 154
Width: 403
GlyphClass: 2
Flags: W
HStem: -11 59<150.251 268.477> 212 62<107 297> 417 59<149.709 264.426> 619 20G<227.009 313>
VStem: 40 66<98.9812 212 274 363.035> 297 65<76.9928 156 274 380.75>
LayerCount: 2
Fore
SplineSet
219 522 m 1
 164 522 l 1
 240 639 l 1
 312 639 l 1
 313 636 l 1
 219 522 l 1
214 476 m 0
 313 476 362 417 362 264 c 2
 362 212 l 1
 106 212 l 1
 107 97 143 48 217 48 c 0
 265 48 300 90 300 156 c 1
 362 156 l 1
 362 57 303 -11 214 -11 c 0
 99 -11 40 59 40 232 c 0
 40 400 96 476 214 476 c 0
214 417 m 0
 145 417 114 369 107 274 c 1
 297 274 l 1
 297 368 269 417 214 417 c 0
EndSplineSet
EndChar

StartChar: ebreve
Encoding: 277 277 155
Width: 403
GlyphClass: 2
Flags: W
HStem: -11 59<150.251 268.477> 212 62<107 297> 417 59<149.709 264.426> 555 55<153.328 251.572> 619 20G<94 150.5 254 308>
VStem: 40 66<98.9812 212 274 363.035> 94 55<616.766 639> 255 53<616.942 639> 297 65<76.9928 156 274 380.75>
LayerCount: 2
Fore
SplineSet
255 639 m 1xfb
 308 639 l 1
 308 600 268 555 202 555 c 0
 135 555 94 600 94 639 c 1
 149 639 l 1
 152 627 170 610 202 610 c 0
 232 610 253 627 255 639 c 1xfb
214 476 m 0
 313 476 362 417 362 264 c 2
 362 212 l 1
 106 212 l 1
 107 97 143 48 217 48 c 0
 265 48 300 90 300 156 c 1
 362 156 l 1
 362 57 303 -11 214 -11 c 0
 99 -11 40 59 40 232 c 0xfc80
 40 400 96 476 214 476 c 0
214 417 m 0
 145 417 114 369 107 274 c 1
 297 274 l 1
 297 368 269 417 214 417 c 0
EndSplineSet
EndChar

StartChar: ecaron
Encoding: 283 283 156
Width: 403
GlyphClass: 2
Flags: W
HStem: -11 59<150.251 268.477> 212 62<107 297> 417 59<149.709 264.426> 619 20G<95 173.685 230.315 310>
VStem: 40 66<98.9812 212 274 363.035> 297 65<76.9928 156 274 380.75>
LayerCount: 2
Fore
SplineSet
95 639 m 1
 163 639 l 1
 202 566 l 1
 241 639 l 1
 310 639 l 1
 233 520 l 1
 168 520 l 1
 95 639 l 1
214 476 m 0
 313 476 362 417 362 264 c 2
 362 212 l 1
 106 212 l 1
 107 97 143 48 217 48 c 0
 265 48 300 90 300 156 c 1
 362 156 l 1
 362 57 303 -11 214 -11 c 0
 99 -11 40 59 40 232 c 0
 40 400 96 476 214 476 c 0
214 417 m 0
 145 417 114 369 107 274 c 1
 297 274 l 1
 297 368 269 417 214 417 c 0
EndSplineSet
EndChar

StartChar: ecircumflex
Encoding: 234 234 157
Width: 403
GlyphClass: 2
Flags: W
HStem: -11 59<150.251 268.477> 212 62<107 297> 417 59<149.709 264.426>
VStem: 40 66<98.9812 212 274 363.035> 297 65<76.9928 156 274 380.75>
LayerCount: 2
Fore
SplineSet
202 591 m 1
 163 519 l 1
 95 519 l 1
 170 638 l 1
 235 638 l 1
 310 519 l 1
 241 519 l 1
 202 591 l 1
214 476 m 0
 313 476 362 417 362 264 c 2
 362 212 l 1
 106 212 l 1
 107 97 143 48 217 48 c 0
 265 48 300 90 300 156 c 1
 362 156 l 1
 362 57 303 -11 214 -11 c 0
 99 -11 40 59 40 232 c 0
 40 400 96 476 214 476 c 0
214 417 m 0
 145 417 114 369 107 274 c 1
 297 274 l 1
 297 368 269 417 214 417 c 0
EndSplineSet
EndChar

StartChar: edieresis
Encoding: 235 235 158
Width: 403
GlyphClass: 2
Flags: W
HStem: -11 59<150.251 268.477> 212 62<107 297> 417 59<149.709 264.426> 559 80<101 174 227 302>
VStem: 40 66<98.9812 212 274 363.035> 101 73<559 639> 227 75<559 639> 297 65<76.9928 156 274 380.75>
LayerCount: 2
Fore
SplineSet
101 559 m 1xf4
 101 639 l 1
 174 639 l 1
 174 559 l 1
 101 559 l 1xf4
227 559 m 1xf2
 227 639 l 1
 302 639 l 1
 302 559 l 1
 227 559 l 1xf2
214 476 m 0
 313 476 362 417 362 264 c 2
 362 212 l 1
 106 212 l 1
 107 97 143 48 217 48 c 0
 265 48 300 90 300 156 c 1
 362 156 l 1
 362 57 303 -11 214 -11 c 0
 99 -11 40 59 40 232 c 0xf9
 40 400 96 476 214 476 c 0
214 417 m 0
 145 417 114 369 107 274 c 1
 297 274 l 1
 297 368 269 417 214 417 c 0
EndSplineSet
EndChar

StartChar: edotaccent
Encoding: 279 279 159
Width: 403
GlyphClass: 2
Flags: W
HStem: -11 59<150.251 268.477> 212 62<107 297> 417 59<149.709 264.426> 560 79<167 238>
VStem: 40 66<98.9812 212 274 363.035> 167 71<560 639> 297 65<76.9928 156 274 380.75>
LayerCount: 2
Fore
SplineSet
167 639 m 1
 238 639 l 1
 238 560 l 1
 167 560 l 1
 167 639 l 1
214 476 m 0
 313 476 362 417 362 264 c 2
 362 212 l 1
 106 212 l 1
 107 97 143 48 217 48 c 0
 265 48 300 90 300 156 c 1
 362 156 l 1
 362 57 303 -11 214 -11 c 0
 99 -11 40 59 40 232 c 0
 40 400 96 476 214 476 c 0
214 417 m 0
 145 417 114 369 107 274 c 1
 297 274 l 1
 297 368 269 417 214 417 c 0
EndSplineSet
EndChar

StartChar: egrave
Encoding: 232 232 160
Width: 403
GlyphClass: 2
Flags: W
HStem: -11 59<150.251 268.477> 212 62<107 297> 417 59<149.709 264.426> 619 20G<116 200.991>
VStem: 40 66<98.9812 212 274 363.035> 297 65<76.9928 156 274 380.75>
LayerCount: 2
Fore
SplineSet
211 522 m 1
 116 636 l 1
 117 639 l 1
 188 639 l 1
 264 522 l 1
 211 522 l 1
214 476 m 0
 313 476 362 417 362 264 c 2
 362 212 l 1
 106 212 l 1
 107 97 143 48 217 48 c 0
 265 48 300 90 300 156 c 1
 362 156 l 1
 362 57 303 -11 214 -11 c 0
 99 -11 40 59 40 232 c 0
 40 400 96 476 214 476 c 0
214 417 m 0
 145 417 114 369 107 274 c 1
 297 274 l 1
 297 368 269 417 214 417 c 0
EndSplineSet
EndChar

StartChar: emacron
Encoding: 275 275 161
Width: 403
GlyphClass: 2
Flags: W
HStem: -11 59<150.251 268.477> 212 62<107 297> 417 59<149.709 264.426> 530 59<92 313>
VStem: 40 66<98.9812 212 274 363.035> 297 65<76.9928 156 274 380.75>
LayerCount: 2
Fore
SplineSet
92 589 m 1
 313 589 l 1
 313 530 l 1
 92 530 l 1
 92 589 l 1
214 476 m 0
 313 476 362 417 362 264 c 2
 362 212 l 1
 106 212 l 1
 107 97 143 48 217 48 c 0
 265 48 300 90 300 156 c 1
 362 156 l 1
 362 57 303 -11 214 -11 c 0
 99 -11 40 59 40 232 c 0
 40 400 96 476 214 476 c 0
214 417 m 0
 145 417 114 369 107 274 c 1
 297 274 l 1
 297 368 269 417 214 417 c 0
EndSplineSet
EndChar

StartChar: eogonek
Encoding: 281 281 162
Width: 403
GlyphClass: 2
Flags: W
HStem: -160 57<265.453 330.112> -148 45<278.842 331> -11 59<150.879 219> 212 62<107 297> 417 59<149.709 264.426>
VStem: 40 66<98.9812 212 274 363.035> 196 64<-98.7692 -10.4996> 297 65<77.234 156 274 380.75>
LayerCount: 2
Fore
SplineSet
362 212 m 1xbf
 106 212 l 1
 107 97 143 48 217 48 c 0
 265 48 300 90 300 156 c 1
 362 156 l 1
 362 86 333 33 286 7 c 1
 275 -5 260 -29 260 -54 c 0
 260 -80 271 -103 300 -103 c 2xbf
 331 -103 l 1
 331 -148 l 1x7f
 312 -155 296 -160 278 -160 c 0
 240 -160 196 -141 196 -80 c 0
 196 -51 206 -29 219 -11 c 1
 214 -11 l 2
 99 -11 40 59 40 232 c 0
 40 400 96 476 214 476 c 0
 313 476 362 417 362 264 c 2
 362 212 l 1xbf
107 274 m 1
 297 274 l 1
 297 368 269 417 214 417 c 0
 145 417 114 369 107 274 c 1
EndSplineSet
EndChar

StartChar: f
Encoding: 102 102 163
Width: 191
GlyphClass: 2
Flags: W
HStem: 0 21G<47 109> 407 58<8 47 109 191> 593 53<113.667 190.292> 593 43<134.939 191>
VStem: 47 62<0 407 465 588.087>
LayerCount: 2
Fore
SplineSet
134 646 m 0xe8
 154 646 176 641 191 636 c 1
 191 593 l 1xd8
 153 593 l 2
 124 593 109 578 109 550 c 2
 109 465 l 1
 191 465 l 1
 191 407 l 1
 109 407 l 1
 109 0 l 1
 47 0 l 1
 47 407 l 1
 8 407 l 1
 8 465 l 1
 47 465 l 1
 47 544 l 2
 47 595 67 646 134 646 c 0xe8
EndSplineSet
EndChar

StartChar: g
Encoding: 103 103 164
Width: 391
GlyphClass: 2
Flags: W
HStem: -161 58<84.5343 304.861> 13 60<106.754 307.145> 164 55<131.795 245.591> 420 56<133.12 247.493>
VStem: 10 63<-92.3174 2.85056> 33 67<79.959 157.003> 44 63<244.284 392.617> 273 63<247.031 394.108> 316 56<488.468 539> 318 63<-90.4652 2.66333>
AnchorPoint: "Anchor-1" 0 0 basechar 0
AnchorPoint: "Anchor-0" 196 465 basechar 0
LayerCount: 2
Fore
SplineSet
316 539 m 1xf280
 372 539 l 1xf280
 372 486 343 442 294 430 c 1
 320 403 336 366 336 320 c 0
 336 223 279 165 196 164 c 1
 145 164 l 2
 120 164 100 143 100 118 c 0xf5
 100 93 121 73 146 73 c 2
 271 73 l 2
 341 73 381 22 381 -32 c 0
 381 -103 340 -161 249 -161 c 2
 129 -161 l 2
 47 -161 10 -109 10 -49 c 0xf840
 10 -4 32 38 72 51 c 1
 47 67 33 95 33 120 c 0xf4
 33 157 58 187 97 201 c 1
 64 228 44 268 44 320 c 0
 44 417 101 476 190 476 c 0
 213 476 236 468 254 458 c 1
 298 479 310 507 316 539 c 1xf280
189 420 m 0
 135 420 107 381 107 320 c 0
 107 254 135 219 189 219 c 0
 243 219 273 258 273 320 c 0xf3
 273 385 243 420 189 420 c 0
260 13 m 2
 130 13 l 2
 89 13 73 -13 73 -45 c 0
 73 -76 91 -103 130 -103 c 2
 261 -103 l 2
 293 -103 318 -76 318 -45 c 0xf840
 318 -14 301 13 260 13 c 2
EndSplineSet
EndChar

StartChar: gbreve
Encoding: 287 287 165
Width: 391
GlyphClass: 2
Flags: W
HStem: -161 58<84.5343 304.861> 13 60<106.754 307.145> 164 55<131.795 245.591> 420 56<133.12 247.493> 555 55<146.849 246.572> 619 20G<89 145 249 303>
VStem: 10 63<-92.3174 2.85056> 33 67<79.959 157.003> 44 63<244.284 392.617> 89 54<618.618 639> 250 53<616.942 639> 273 63<247.031 394.108> 316 56<488.468 539> 318 63<-90.4652 2.66333>
LayerCount: 2
Fore
SplineSet
250 639 m 1xfc60
 303 639 l 1
 303 600 263 555 197 555 c 0
 130 555 89 600 89 639 c 1
 143 639 l 1
 147 627 165 610 197 610 c 0
 227 610 248 627 250 639 c 1xfc60
316 539 m 1xfc88
 372 539 l 1xfc88
 372 486 343 442 294 430 c 1
 320 403 336 366 336 320 c 0
 336 223 279 165 196 164 c 1
 145 164 l 2
 120 164 100 143 100 118 c 0xfd10
 100 93 121 73 146 73 c 2
 271 73 l 2
 341 73 381 22 381 -32 c 0
 381 -103 340 -161 249 -161 c 2
 129 -161 l 2
 47 -161 10 -109 10 -49 c 0xfe04
 10 -4 32 38 72 51 c 1
 47 67 33 95 33 120 c 0xfd
 33 157 58 187 97 201 c 1
 64 228 44 268 44 320 c 0
 44 417 101 476 190 476 c 0
 213 476 236 468 254 458 c 1
 298 479 310 507 316 539 c 1xfc88
189 420 m 0
 135 420 107 381 107 320 c 0
 107 254 135 219 189 219 c 0
 243 219 273 258 273 320 c 0xfc90
 273 385 243 420 189 420 c 0
260 13 m 2
 130 13 l 2
 89 13 73 -13 73 -45 c 0
 73 -76 91 -103 130 -103 c 2
 261 -103 l 2
 293 -103 318 -76 318 -45 c 0xfe04
 318 -14 301 13 260 13 c 2
EndSplineSet
EndChar

StartChar: gcircumflex
Encoding: 285 285 166
Width: 391
GlyphClass: 2
Flags: W
HStem: -161 58<84.5343 304.861> 13 60<106.754 307.145> 164 55<131.795 245.591> 420 56<133.12 247.493>
VStem: 10 63<-92.3174 2.85056> 33 67<79.959 157.003> 44 63<244.284 392.617> 273 63<247.031 394.108> 316 56<486.747 539> 318 63<-90.4652 2.66333>
LayerCount: 2
Fore
SplineSet
196 591 m 1xf0
 158 519 l 1
 89 519 l 1
 164 638 l 1
 229 638 l 1
 304 519 l 1
 235 519 l 1
 196 591 l 1xf0
316 539 m 1xf280
 372 539 l 1xf280
 372 486 343 442 294 430 c 1
 320 403 336 366 336 320 c 0
 336 223 279 165 196 164 c 1
 145 164 l 2
 120 164 100 143 100 118 c 0xf5
 100 93 121 73 146 73 c 2
 271 73 l 2
 341 73 381 22 381 -32 c 0
 381 -103 340 -161 249 -161 c 2
 129 -161 l 2
 47 -161 10 -109 10 -49 c 0xf840
 10 -4 32 38 72 51 c 1
 47 67 33 95 33 120 c 0xf4
 33 157 58 187 97 201 c 1
 64 228 44 268 44 320 c 0
 44 417 101 476 190 476 c 0
 213 476 236 468 254 458 c 1
 293 486 313 490 316 539 c 1xf280
189 420 m 0
 135 420 107 381 107 320 c 0
 107 254 135 219 189 219 c 0
 243 219 273 258 273 320 c 0xf3
 273 385 243 420 189 420 c 0
260 13 m 2
 130 13 l 2
 89 13 73 -13 73 -45 c 0
 73 -76 91 -103 130 -103 c 2
 261 -103 l 2
 293 -103 318 -76 318 -45 c 0xf840
 318 -14 301 13 260 13 c 2
EndSplineSet
EndChar

StartChar: gcommaaccent
Encoding: 291 291 167
Width: 391
GlyphClass: 2
Flags: W
HStem: -161 58<84.5343 304.861> 13 60<106.754 307.145> 164 55<131.795 245.591> 420 56<133.12 247.493> 527 72<188 214>
VStem: 10 63<-92.3174 2.85056> 33 67<79.959 157.003> 44 63<244.284 392.617> 148 66<527 594> 273 63<247.031 394.108> 316 56<488.468 539> 318 63<-90.4652 2.66333>
LayerCount: 2
Fore
SplineSet
214 599 m 1xf880
 214 527 l 1
 148 527 l 1
 148 594 l 1
 171 658 l 1
 204 658 l 1
 188 599 l 1
 214 599 l 1xf880
316 539 m 1xf9a0
 372 539 l 1xf9a0
 372 486 343 442 294 430 c 1
 320 403 336 366 336 320 c 0
 336 223 279 165 196 164 c 1
 145 164 l 2
 120 164 100 143 100 118 c 0xfac0
 100 93 121 73 146 73 c 2
 271 73 l 2
 341 73 381 22 381 -32 c 0
 381 -103 340 -161 249 -161 c 2
 129 -161 l 2
 47 -161 10 -109 10 -49 c 0xfc90
 10 -4 32 38 72 51 c 1
 47 67 33 95 33 120 c 0xfa80
 33 157 58 187 97 201 c 1
 64 228 44 268 44 320 c 0
 44 417 101 476 190 476 c 0
 213 476 236 468 254 458 c 1
 298 479 310 507 316 539 c 1xf9a0
189 420 m 0
 135 420 107 381 107 320 c 0
 107 254 135 219 189 219 c 0
 243 219 273 258 273 320 c 0xf9c0
 273 385 243 420 189 420 c 0
260 13 m 2
 130 13 l 2
 89 13 73 -13 73 -45 c 0
 73 -76 91 -103 130 -103 c 2
 261 -103 l 2
 293 -103 318 -76 318 -45 c 0xfc90
 318 -14 301 13 260 13 c 2
EndSplineSet
EndChar

StartChar: gdotaccent
Encoding: 289 289 168
Width: 391
GlyphClass: 2
Flags: W
HStem: -161 58<84.5343 304.861> 13 60<106.754 307.145> 164 55<131.795 245.591> 420 56<133.12 247.493> 560 79<161 231>
VStem: 10 63<-92.3174 2.85056> 33 67<79.959 157.003> 44 63<244.284 392.617> 161 70<560 639> 273 63<247.031 394.108> 316 56<488.468 539> 318 63<-90.4652 2.66333>
LayerCount: 2
Fore
SplineSet
161 639 m 1xf880
 231 639 l 1
 231 560 l 1
 161 560 l 1
 161 639 l 1xf880
316 539 m 1xf9a0
 372 539 l 1xf9a0
 372 486 343 442 294 430 c 1
 320 403 336 366 336 320 c 0
 336 223 279 165 196 164 c 1
 145 164 l 2
 120 164 100 143 100 118 c 0xfac0
 100 93 121 73 146 73 c 2
 271 73 l 2
 341 73 381 22 381 -32 c 0
 381 -103 340 -161 249 -161 c 2
 129 -161 l 2
 47 -161 10 -109 10 -49 c 0xfc90
 10 -4 32 38 72 51 c 1
 47 67 33 95 33 120 c 0xfa80
 33 157 58 187 97 201 c 1
 64 228 44 268 44 320 c 0
 44 417 101 476 190 476 c 0
 213 476 236 468 254 458 c 1
 298 479 310 507 316 539 c 1xf9a0
189 420 m 0
 135 420 107 381 107 320 c 0
 107 254 135 219 189 219 c 0
 243 219 273 258 273 320 c 0xf9c0
 273 385 243 420 189 420 c 0
260 13 m 2
 130 13 l 2
 89 13 73 -13 73 -45 c 0
 73 -76 91 -103 130 -103 c 2
 261 -103 l 2
 293 -103 318 -76 318 -45 c 0xfc90
 318 -14 301 13 260 13 c 2
EndSplineSet
EndChar

StartChar: h
Encoding: 104 104 169
Width: 391
GlyphClass: 2
Flags: W
HStem: 0 21G<54 117 275 337> 420 56<156.078 260.837> 619 20G<54 117>
VStem: 54 63<0 375.268 416 639> 275 62<0 405.444>
AnchorPoint: "Anchor-1" 0 0 basechar 0
AnchorPoint: "Anchor-0" 196 465 basechar 0
LayerCount: 2
Fore
SplineSet
117 416 m 1
 123 416 l 1
 148 462 181 476 224 476 c 0
 294 476 337 439 337 338 c 2
 337 0 l 1
 275 0 l 1
 275 340 l 2
 275 405 247 420 207 420 c 0
 160 420 117 371 117 283 c 2
 117 0 l 1
 54 0 l 1
 54 639 l 1
 117 639 l 1
 117 416 l 1
EndSplineSet
EndChar

StartChar: hbar
Encoding: 295 295 170
Width: 391
GlyphClass: 2
Flags: W
HStem: 0 21G<54 117 275 337> 420 56<156.934 260.874> 515 55<0 54 117 206> 619 20G<54 117>
VStem: 54 63<0 375.268 416 515 570 639> 275 62<0 405.444>
LayerCount: 2
Fore
SplineSet
206 570 m 1
 206 515 l 1
 117 515 l 1
 117 416 l 1
 123 416 l 1
 148 462 181 476 224 476 c 0
 294 476 337 439 337 338 c 2
 337 0 l 1
 275 0 l 1
 275 340 l 2
 275 405 247 420 208 420 c 0
 160 420 117 371 117 283 c 2
 117 0 l 1
 54 0 l 1
 54 515 l 1
 0 515 l 1
 0 570 l 1
 54 570 l 1
 54 639 l 1
 117 639 l 1
 117 570 l 1
 206 570 l 1
EndSplineSet
EndChar

StartChar: hcircumflex
Encoding: 293 293 171
Width: 391
GlyphClass: 2
Flags: W
HStem: 0 21G<54 117 275 337> 420 56<156.078 260.837> 619 20G<54 117>
VStem: 54 63<0 375.268 416 639> 275 62<0 405.444>
LayerCount: 2
Fore
SplineSet
90 732 m 1
 50 660 l 1
 -19 660 l 1
 57 780 l 1
 121 780 l 1
 197 660 l 1
 129 660 l 1
 90 732 l 1
117 416 m 1
 123 416 l 1
 148 462 181 476 224 476 c 0
 294 476 337 439 337 338 c 2
 337 0 l 1
 275 0 l 1
 275 340 l 2
 275 405 247 420 207 420 c 0
 160 420 117 371 117 283 c 2
 117 0 l 1
 54 0 l 1
 54 639 l 1
 117 639 l 1
 117 416 l 1
EndSplineSet
EndChar

StartChar: i
Encoding: 105 105 172
Width: 149
GlyphClass: 2
Flags: W
HStem: 0 21G<43 106> 445 20G<43 106> 555 84<43 106>
VStem: 43 63<0 465 555 639>
LayerCount: 2
Fore
SplineSet
43 639 m 1
 106 639 l 1
 106 555 l 1
 43 555 l 1
 43 639 l 1
43 465 m 1
 106 465 l 1
 106 0 l 1
 43 0 l 1
 43 465 l 1
EndSplineSet
EndChar

StartChar: dotlessi
Encoding: 305 305 173
Width: 202
GlyphClass: 2
Flags: W
HStem: 0 21G<70 132> 445 20G<70 132>
VStem: 70 62<0 465>
AnchorPoint: "Anchor-1" 0 0 basechar 0
AnchorPoint: "Anchor-0" 101 465 basechar 0
LayerCount: 2
Fore
SplineSet
70 465 m 1
 132 465 l 1
 132 0 l 1
 70 0 l 1
 70 465 l 1
EndSplineSet
EndChar

StartChar: iacute
Encoding: 237 237 174
Width: 202
GlyphClass: 2
Flags: W
HStem: 0 21G<70 132> 445 20G<70 132> 619 20G<115.009 199>
VStem: 70 62<0 465>
LayerCount: 2
Fore
SplineSet
105 522 m 1
 52 522 l 1
 128 639 l 1
 198 639 l 1
 199 636 l 1
 105 522 l 1
70 0 m 1
 70 465 l 1
 132 465 l 1
 132 0 l 1
 70 0 l 1
EndSplineSet
EndChar

StartChar: ibreve
Encoding: 301 301 175
Width: 202
GlyphClass: 2
Flags: W
HStem: 0 21G<70 132> 445 20G<70 132> 555 55<52.94 150.572> 619 20G<-7 50 153 207>
VStem: -7 56<616.942 639> 70 62<0 465> 154 53<616.942 639>
LayerCount: 2
Fore
SplineSet
154 639 m 1
 207 639 l 1
 207 600 167 555 101 555 c 0
 35 555 -7 600 -7 639 c 1
 49 639 l 1
 51 627 72 610 101 610 c 0
 131 610 152 627 154 639 c 1
70 465 m 1
 132 465 l 1
 132 0 l 1
 70 0 l 1
 70 465 l 1
EndSplineSet
EndChar

StartChar: icircumflex
Encoding: 238 238 176
Width: 202
GlyphClass: 2
Flags: W
HStem: 0 21G<70 132> 445 20G<70 132>
VStem: 70 62<0 465>
LayerCount: 2
Fore
SplineSet
102 591 m 1
 62 519 l 1
 -8 519 l 1
 69 638 l 1
 133 638 l 1
 208 519 l 1
 141 519 l 1
 102 591 l 1
70 465 m 1
 132 465 l 1
 132 0 l 1
 70 0 l 1
 70 465 l 1
EndSplineSet
EndChar

StartChar: idieresis
Encoding: 239 239 177
Width: 202
GlyphClass: 2
Flags: W
HStem: 0 21G<70 132> 445 20G<70 132> 559 80<1 75 128 201>
VStem: 1 74<559 639> 70 62<0 465> 128 73<559 639>
LayerCount: 2
Fore
SplineSet
1 559 m 1xf0
 1 639 l 1
 75 639 l 1
 75 559 l 1
 1 559 l 1xf0
128 559 m 1xe4
 128 639 l 1
 201 639 l 1
 201 559 l 1
 128 559 l 1xe4
70 0 m 1xe8
 70 465 l 1
 132 465 l 1
 132 0 l 1
 70 0 l 1xe8
EndSplineSet
EndChar

StartChar: igrave
Encoding: 236 236 178
Width: 202
GlyphClass: 2
Flags: W
HStem: 0 21G<70 132> 445 20G<70 132> 619 20G<2 87.9915>
VStem: 70 62<0 465>
LayerCount: 2
Fore
SplineSet
98 522 m 1
 2 636 l 1
 3 639 l 1
 75 639 l 1
 151 522 l 1
 98 522 l 1
70 0 m 1
 70 465 l 1
 132 465 l 1
 132 0 l 1
 70 0 l 1
EndSplineSet
EndChar

StartChar: ij
Encoding: 307 307 179
Width: 298
GlyphClass: 2
Flags: W
HStem: -161 53<112.661 188.073> -150 42<112 167.016> 0 21G<43 106> 445 20G<43 106 192 255> 555 84<43 106 192 255>
VStem: 43 63<0 465 555 639> 192 63<-103.087 465 555 639>
LayerCount: 2
Fore
SplineSet
43 555 m 1x3e
 43 639 l 1
 106 639 l 1
 106 555 l 1
 43 555 l 1x3e
192 555 m 1
 192 639 l 1
 255 639 l 1
 255 555 l 1
 192 555 l 1
43 0 m 1
 43 465 l 1
 106 465 l 1
 106 0 l 1
 43 0 l 1
255 465 m 1
 255 -59 l 2
 255 -110 234 -161 168 -161 c 0xbe
 147 -161 126 -156 112 -150 c 1
 112 -108 l 1x7e
 151 -108 l 2xbe
 178 -108 192 -93 192 -65 c 2
 192 465 l 1
 255 465 l 1
EndSplineSet
EndChar

StartChar: imacron
Encoding: 299 299 180
Width: 202
GlyphClass: 2
Flags: W
HStem: 0 21G<70 132> 445 20G<70 132> 530 59<-10 211>
VStem: 70 62<0 465>
LayerCount: 2
Fore
SplineSet
-10 589 m 1
 211 589 l 1
 211 530 l 1
 -10 530 l 1
 -10 589 l 1
70 465 m 1
 132 465 l 1
 132 0 l 1
 70 0 l 1
 70 465 l 1
EndSplineSet
EndChar

StartChar: iogonek
Encoding: 303 303 181
Width: 149
GlyphClass: 2
Flags: W
HStem: -159 57<92.3813 156.156> -147 45<105.751 157> 445 20G<43 106> 560 79<38 111>
VStem: 23 63<-97.7692 -10.2398> 43 63<0 465 560 639>
LayerCount: 2
Fore
SplineSet
38 560 m 1x30
 38 639 l 1
 111 639 l 1
 111 560 l 1
 38 560 l 1x30
106 465 m 1xb4
 106 0 l 1xb4
 97 -13 86 -33 86 -53 c 0
 86 -79 97 -102 126 -102 c 2xb8
 157 -102 l 1
 157 -147 l 1x78
 139 -154 121 -159 105 -159 c 0
 67 -159 23 -140 23 -79 c 0xb8
 23 -43 36 -19 53 0 c 1
 43 0 l 1
 43 465 l 1
 106 465 l 1xb4
EndSplineSet
EndChar

StartChar: itilde
Encoding: 297 297 182
Width: 202
GlyphClass: 2
Flags: W
HStem: 0 21G<70 132> 445 20G<70 132> 552 62<79.1724 174.421> 578 61<27.2519 125.28>
VStem: -22 48<552 576.015> 70 62<0 465> 175 49<614.598 639>
LayerCount: 2
Fore
SplineSet
175 639 m 1xde
 224 639 l 1xde
 224 600 203 552 153 552 c 0xee
 116 552 88 578 55 578 c 0xde
 40 578 29 572 26 552 c 1
 -22 552 l 1xee
 -22 590 -1 639 49 639 c 0xde
 85 639 113 614 147 614 c 0xee
 160 614 173 620 175 639 c 1xde
70 465 m 1
 132 465 l 1
 132 0 l 1
 70 0 l 1
 70 465 l 1
EndSplineSet
EndChar

StartChar: j
Encoding: 106 106 183
Width: 149
GlyphClass: 2
Flags: W
HStem: -161 53<-36.3372 39.0727> -150 42<-37 18.1065> 445 20G<43 106> 555 84<43 106>
VStem: 43 63<-103.087 465 555 639>
LayerCount: 2
Fore
SplineSet
43 639 m 1x38
 106 639 l 1
 106 555 l 1
 43 555 l 1
 43 639 l 1x38
106 465 m 1
 106 -59 l 2
 106 -110 85 -161 19 -161 c 0xb8
 0 -161 -23 -156 -37 -150 c 1
 -37 -108 l 1x78
 2 -108 l 2xb8
 29 -108 43 -93 43 -65 c 2
 43 465 l 1
 106 465 l 1
EndSplineSet
EndChar

StartChar: jcircumflex
Encoding: 309 309 184
Width: 149
GlyphClass: 2
Flags: W
HStem: -161 53<-36.3372 39.0727> -150 42<-37 18.1065> 445 20G<43 106>
VStem: 43 63<-103.087 465>
LayerCount: 2
Fore
SplineSet
75 591 m 1x30
 35 519 l 1
 -34 519 l 1
 42 638 l 1
 106 638 l 1
 182 519 l 1
 114 519 l 1
 75 591 l 1x30
106 465 m 1
 106 -59 l 2
 106 -110 85 -161 19 -161 c 0xb0
 0 -161 -23 -156 -37 -150 c 1
 -37 -108 l 1x70
 2 -108 l 2xb0
 29 -108 43 -93 43 -65 c 2
 43 465 l 1
 106 465 l 1
EndSplineSet
EndChar

StartChar: k
Encoding: 107 107 185
Width: 350
GlyphClass: 2
Flags: W
HStem: 0 21G<54 117 268.908 350> 445 20G<259.133 343> 619 20G<54 117>
VStem: 54 63<0 162 240 639>
AnchorPoint: "Anchor-1" 175 0 basechar 0
AnchorPoint: "Anchor-0" 0 0 basechar 0
LayerCount: 2
Fore
SplineSet
343 465 m 1
 207 273 l 1
 350 0 l 1
 279 0 l 1
 169 218 l 1
 117 162 l 1
 117 0 l 1
 54 0 l 1
 54 639 l 1
 117 639 l 1
 117 240 l 1
 273 465 l 1
 343 465 l 1
EndSplineSet
EndChar

StartChar: kcommaaccent
Encoding: 311 311 186
Width: 350
GlyphClass: 2
Flags: W
HStem: -126 72<143 169> 0 21G<54 117 268.908 350> 445 20G<259.133 343> 619 20G<54 117>
VStem: 54 63<0 162 240 639> 143 65<-126 -54> 153 34<-185 -163.667>
LayerCount: 2
Fore
SplineSet
343 465 m 1xf8
 207 273 l 1
 350 0 l 1
 279 0 l 1
 169 218 l 1
 117 162 l 1
 117 0 l 1
 54 0 l 1
 54 639 l 1
 117 639 l 1
 117 240 l 1
 273 465 l 1
 343 465 l 1xf8
153 -185 m 1xfa
 169 -126 l 1
 143 -126 l 1
 143 -54 l 1
 208 -54 l 1
 208 -121 l 1xfc
 187 -185 l 1
 153 -185 l 1xfa
EndSplineSet
EndChar

StartChar: kgreenlandic
Encoding: 312 312 187
Width: 348
GlyphClass: 2
Flags: W
HStem: 0 21G<54 117 268.908 350> 445 20G<54 117 259.133 343>
VStem: 54 63<0 162 240 465>
LayerCount: 2
Fore
SplineSet
279 0 m 1
 169 218 l 1
 117 162 l 1
 117 0 l 1
 54 0 l 1
 54 465 l 1
 117 465 l 1
 117 240 l 1
 273 465 l 1
 343 465 l 1
 207 273 l 1
 350 0 l 1
 279 0 l 1
EndSplineSet
EndChar

StartChar: l
Encoding: 108 108 188
Width: 149
GlyphClass: 2
Flags: W
HStem: 0 21G<43 106> 619 20G<43 106>
VStem: 43 63<0 639>
AnchorPoint: "Anchor-1" 74 0 basechar 0
AnchorPoint: "Anchor-0" 74 465 basechar 0
LayerCount: 2
Fore
SplineSet
43 639 m 1
 106 639 l 1
 106 0 l 1
 43 0 l 1
 43 639 l 1
EndSplineSet
EndChar

StartChar: lacute
Encoding: 314 314 189
Width: 149
GlyphClass: 2
Flags: W
HStem: 0 21G<43 106> 619 20G<43 106>
VStem: 43 63<0 639>
LayerCount: 2
Fore
SplineSet
77 664 m 1
 24 664 l 1
 100 781 l 1
 172 781 l 1
 172 778 l 1
 77 664 l 1
43 0 m 1
 43 639 l 1
 106 639 l 1
 106 0 l 1
 43 0 l 1
EndSplineSet
EndChar

StartChar: lcaron
Encoding: 318 318 190
Width: 191
GlyphClass: 2
Flags: W
HStem: 0 21G<43 106> 519 87<138 169> 619 20G<43 106>
VStem: 43 63<0 639> 138 78<526 606>
LayerCount: 2
Fore
SplineSet
43 639 m 1
 106 639 l 1
 106 0 l 1
 43 0 l 1
 43 639 l 1
138 417 m 1
 169 519 l 1
 138 519 l 1
 138 606 l 1
 216 606 l 1
 216 526 l 1
 179 417 l 1
 138 417 l 1
EndSplineSet
EndChar

StartChar: lcommaaccent
Encoding: 316 316 191
Width: 149
GlyphClass: 2
Flags: W
HStem: -126 72<42 68> 0 21G<43 106> 619 20G<43 106>
VStem: 43 63<-126 -54 0 639> 53 33<-185 -163.667>
LayerCount: 2
Fore
SplineSet
43 639 m 1xf0
 106 639 l 1
 106 0 l 1
 43 0 l 1
 43 639 l 1xf0
53 -185 m 1xe8
 68 -126 l 1
 42 -126 l 1
 42 -54 l 1
 107 -54 l 1
 107 -121 l 1
 86 -185 l 1
 53 -185 l 1xe8
EndSplineSet
EndChar

StartChar: ldot
Encoding: 320 320 192
Width: 283
GlyphClass: 2
Flags: W
HStem: 0 21G<43 106> 258 92<141 225> 619 20G<43 106>
VStem: 43 63<0 639> 141 84<258 350>
LayerCount: 2
Fore
SplineSet
43 639 m 1
 106 639 l 1
 106 0 l 1
 43 0 l 1
 43 639 l 1
141 350 m 1
 225 350 l 1
 225 258 l 1
 141 258 l 1
 141 350 l 1
EndSplineSet
Ligature2: "Ligature Substitution lookup 31 subtable" l periodcentered
EndChar

StartChar: lslash
Encoding: 322 322 193
Width: 149
GlyphClass: 2
Flags: W
HStem: 0 21G<43 106> 619 20G<43 106>
VStem: 43 63<0 221 335 639>
LayerCount: 2
Fore
SplineSet
185 347 m 1
 106 277 l 1
 106 0 l 1
 43 0 l 1
 43 221 l 1
 -21 167 l 1
 -21 222 l 1
 43 279 l 1
 43 639 l 1
 106 639 l 1
 106 335 l 1
 185 405 l 1
 185 347 l 1
EndSplineSet
EndChar

StartChar: m
Encoding: 109 109 194
Width: 592
GlyphClass: 2
Flags: W
HStem: 0 21G<54 117 264 328 474 537> 420 56<153.79 250.141 364.364 460.259> 445 20G<54 102.774>
VStem: 54 63<0 377.672> 54 45<427.9 465> 264 64<0 377.914> 474 63<0 405.014>
LayerCount: 2
Fore
SplineSet
428 476 m 0xce
 494 476 537 438 537 338 c 2
 537 0 l 1
 474 0 l 1
 474 340 l 2
 474 405 446 420 411 420 c 0
 366 420 328 370 328 281 c 2
 328 0 l 1
 264 0 l 1
 264 340 l 2
 264 405 236 420 202 420 c 0
 157 420 117 371 117 283 c 2
 117 0 l 1
 54 0 l 1xd6
 54 465 l 1
 99 465 l 1xae
 109 412 l 1
 114 412 l 1
 140 461 177 476 219 476 c 0
 265 476 301 456 318 408 c 1
 343 456 388 476 428 476 c 0xce
EndSplineSet
EndChar

StartChar: n
Encoding: 110 110 195
Width: 391
GlyphClass: 2
Flags: W
HStem: 0 21G<54 117 275 337> 420 56<156.071 260.837> 445 20G<54 102.774>
VStem: 54 63<0 375.268> 54 45<427.9 465> 275 62<0 405.444>
AnchorPoint: "Anchor-1" 196 0 basechar 0
AnchorPoint: "Anchor-0" 196 465 basechar 0
LayerCount: 2
Fore
SplineSet
224 476 m 0xcc
 294 476 337 439 337 338 c 2
 337 0 l 1
 275 0 l 1
 275 340 l 2
 275 405 247 420 207 420 c 0
 160 420 117 371 117 283 c 2
 117 0 l 1
 54 0 l 1xd4
 54 465 l 1
 99 465 l 1xac
 109 412 l 1
 114 412 l 1
 141 461 181 476 224 476 c 0xcc
EndSplineSet
Substitution2: "'sups' Superscript lookup 10 subtable" nsuperior
Substitution2: "'aalt' Access All Alternates lookup 0 subtable" nsuperior
EndChar

StartChar: nacute
Encoding: 324 324 196
Width: 391
GlyphClass: 2
Flags: W
HStem: 0 21G<54 117 275 337> 420 56<156.071 260.837> 445 20G<54 102.774> 619 20G<208.009 293>
VStem: 54 63<0 375.268> 54 45<427.9 465> 275 62<0 405.444>
LayerCount: 2
Fore
SplineSet
198 522 m 1x92
 145 522 l 1
 221 639 l 1
 292 639 l 1
 293 636 l 1
 198 522 l 1x92
224 476 m 0xd6
 294 476 337 439 337 338 c 2
 337 0 l 1
 275 0 l 1
 275 340 l 2
 275 405 247 420 207 420 c 0
 160 420 117 371 117 283 c 2
 117 0 l 1
 54 0 l 1xda
 54 465 l 1
 99 465 l 1xb6
 109 412 l 1
 114 412 l 1
 141 461 181 476 224 476 c 0xd6
EndSplineSet
EndChar

StartChar: napostrophe
Encoding: 329 329 197
Width: 480
GlyphClass: 2
Flags: W
HStem: 0 21G<142 205 363 425> 420 56<244.534 347.849> 445 20G<142 190.774> 473 21G<46 87.7692> 533 73<37 63>
VStem: 37 66<538 606> 142 63<0 375.268> 142 45<427.9 465> 363 62<0 405.444>
LayerCount: 2
Fore
SplineSet
81 473 m 1x9c80
 46 473 l 1
 63 533 l 1
 37 533 l 1
 37 606 l 1
 103 606 l 1
 103 538 l 1
 81 473 l 1x9c80
314 476 m 0xcd80
 382 476 425 439 425 338 c 2
 425 0 l 1
 363 0 l 1
 363 340 l 2
 363 405 334 420 295 420 c 0
 249 420 205 371 205 283 c 2
 205 0 l 1
 142 0 l 1xce80
 142 465 l 1
 187 465 l 1xad80
 197 412 l 1
 202 412 l 1
 229 461 270 476 314 476 c 0xcd80
EndSplineSet
EndChar

StartChar: ncaron
Encoding: 328 328 198
Width: 391
GlyphClass: 2
Flags: W
HStem: 0 21G<54 117 275 337> 420 56<156.071 260.837> 445 20G<54 102.774> 619 20G<89 168.411 224.315 304>
VStem: 54 63<0 375.268> 54 45<427.9 465> 275 62<0 405.444>
LayerCount: 2
Fore
SplineSet
89 639 m 1x92
 158 639 l 1
 196 566 l 1
 235 639 l 1
 304 639 l 1
 228 520 l 1
 162 520 l 1
 89 639 l 1x92
224 476 m 0xd6
 294 476 337 439 337 338 c 2
 337 0 l 1
 275 0 l 1
 275 340 l 2
 275 405 247 420 207 420 c 0
 160 420 117 371 117 283 c 2
 117 0 l 1
 54 0 l 1xda
 54 465 l 1
 99 465 l 1xb6
 109 412 l 1
 114 412 l 1
 141 461 181 476 224 476 c 0xd6
EndSplineSet
EndChar

StartChar: ncommaaccent
Encoding: 326 326 199
Width: 391
GlyphClass: 2
Flags: W
HStem: -126 72<163 189> 0 21G<54 117 275 337> 420 56<156.071 260.837> 445 20G<54 102.774>
VStem: 54 63<0 375.268> 54 45<427.9 465> 163 66<-121 -54> 275 62<0 405.444>
LayerCount: 2
Fore
SplineSet
224 476 m 0xe7
 294 476 337 439 337 338 c 2
 337 0 l 1
 275 0 l 1
 275 340 l 2
 275 405 247 420 207 420 c 0
 160 420 117 371 117 283 c 2
 117 0 l 1
 54 0 l 1xeb
 54 465 l 1
 99 465 l 1xd7
 109 412 l 1
 114 412 l 1
 141 461 181 476 224 476 c 0xe7
172 -185 m 1
 189 -126 l 1
 163 -126 l 1
 163 -54 l 1
 229 -54 l 1
 229 -121 l 1
 207 -185 l 1
 172 -185 l 1
EndSplineSet
EndChar

StartChar: eng
Encoding: 331 331 200
Width: 391
GlyphClass: 2
Flags: W
HStem: -161 53<194.662 270.073> -150 42<194 249.061> 0 21G<54 117> 420 56<156.071 260.837> 445 20G<54 102.774>
VStem: 54 63<0 375.268> 54 45<427.9 465> 275 62<-103.087 405.444>
LayerCount: 2
Fore
SplineSet
224 476 m 0x33
 294 476 337 439 337 338 c 2
 337 -59 l 2
 337 -110 316 -161 250 -161 c 0xb3
 230 -161 208 -156 194 -150 c 1
 194 -108 l 1x63
 233 -108 l 2
 260 -108 275 -93 275 -65 c 2
 275 340 l 2
 275 405 247 420 207 420 c 0
 160 420 117 371 117 283 c 2
 117 0 l 1
 54 0 l 1xb5
 54 465 l 1
 99 465 l 1x2b
 109 412 l 1
 114 412 l 1
 141 461 181 476 224 476 c 0x33
EndSplineSet
EndChar

StartChar: ntilde
Encoding: 241 241 201
Width: 391
GlyphClass: 2
Flags: W
HStem: 0 21G<54 117 275 337> 420 56<156.071 260.837> 445 20G<54 102.774> 552 62<174.849 269.159> 578 61<122.911 220.115>
VStem: 54 63<0 375.268> 54 45<427.9 465> 72 50<552 576.015> 270 50<614.598 639> 275 62<0 405.444>
LayerCount: 2
Fore
SplineSet
270 639 m 1x8980
 320 639 l 1x8980
 320 600 298 552 247 552 c 0x9180
 211 552 183 578 151 578 c 0x8980
 135 578 124 572 122 552 c 1
 72 552 l 1x9180
 72 590 94 639 145 639 c 0x8980
 181 639 209 614 241 614 c 0x9180
 256 614 268 620 270 639 c 1x8980
224 476 m 0xc2
 294 476 337 439 337 338 c 2
 337 0 l 1
 275 0 l 1
 275 340 l 2
 275 405 247 420 207 420 c 0
 160 420 117 371 117 283 c 2
 117 0 l 1
 54 0 l 1xc440
 54 465 l 1
 99 465 l 1xa2
 109 412 l 1
 114 412 l 1
 141 461 181 476 224 476 c 0xc2
EndSplineSet
EndChar

StartChar: o
Encoding: 111 111 202
Width: 391
GlyphClass: 2
Flags: W
HStem: -11 58<141.182 250.081> 418 58<141.182 250.081>
VStem: 35 65<96.4723 368.224> 290 67<96.4723 368.224>
AnchorPoint: "Anchor-1" 0 0 basechar 0
AnchorPoint: "Anchor-0" 196 465 basechar 0
LayerCount: 2
Fore
SplineSet
196 476 m 0
 300 476 357 400 357 232 c 0
 357 65 300 -11 196 -11 c 0
 92 -11 35 65 35 232 c 0
 35 400 92 476 196 476 c 0
196 418 m 0
 133 418 100 361 100 249 c 2
 100 216 l 2
 100 104 133 47 196 47 c 0
 257 47 290 104 290 216 c 2
 290 249 l 2
 290 361 257 418 196 418 c 0
EndSplineSet
Substitution2: "Single Substitution lookup 32 subtable" ordmasculine
Substitution2: "'aalt' Access All Alternates lookup 0 subtable" ordmasculine
EndChar

StartChar: oacute
Encoding: 243 243 203
Width: 391
GlyphClass: 2
Flags: W
HStem: -11 58<141.182 250.081> 418 58<141.182 250.081> 619 20G<208.009 293>
VStem: 35 65<96.4723 368.224> 290 67<96.4723 368.224>
LayerCount: 2
Fore
SplineSet
198 522 m 1
 145 522 l 1
 221 639 l 1
 292 639 l 1
 293 636 l 1
 198 522 l 1
196 476 m 0
 300 476 357 400 357 232 c 0
 357 65 300 -11 196 -11 c 0
 92 -11 35 65 35 232 c 0
 35 400 92 476 196 476 c 0
196 418 m 0
 133 418 100 361 100 249 c 2
 100 216 l 2
 100 104 133 47 196 47 c 0
 257 47 290 104 290 216 c 2
 290 249 l 2
 290 361 257 418 196 418 c 0
EndSplineSet
EndChar

StartChar: obreve
Encoding: 335 335 204
Width: 391
GlyphClass: 2
Flags: W
HStem: -11 58<141.182 250.081> 418 58<141.182 250.081> 555 55<146.849 246.572> 619 20G<89 145 249 303>
VStem: 35 65<96.4723 368.224> 89 54<618.618 639> 250 53<616.942 639> 290 67<96.4723 368.224>
LayerCount: 2
Fore
SplineSet
250 639 m 1xf6
 303 639 l 1
 303 600 263 555 197 555 c 0
 130 555 89 600 89 639 c 1
 143 639 l 1
 147 627 165 610 197 610 c 0
 227 610 248 627 250 639 c 1xf6
196 476 m 0
 300 476 357 400 357 232 c 0
 357 65 300 -11 196 -11 c 0
 92 -11 35 65 35 232 c 0xf9
 35 400 92 476 196 476 c 0
196 418 m 0
 133 418 100 361 100 249 c 2
 100 216 l 2
 100 104 133 47 196 47 c 0
 257 47 290 104 290 216 c 2
 290 249 l 2
 290 361 257 418 196 418 c 0
EndSplineSet
EndChar

StartChar: ocircumflex
Encoding: 244 244 205
Width: 391
GlyphClass: 2
Flags: W
HStem: -11 58<141.182 250.081> 418 58<141.182 250.081>
VStem: 35 65<96.4723 368.224> 290 67<96.4723 368.224>
LayerCount: 2
Fore
SplineSet
196 591 m 1
 158 519 l 1
 89 519 l 1
 164 638 l 1
 229 638 l 1
 304 519 l 1
 235 519 l 1
 196 591 l 1
196 476 m 0
 300 476 357 400 357 232 c 0
 357 65 300 -11 196 -11 c 0
 92 -11 35 65 35 232 c 0
 35 400 92 476 196 476 c 0
196 418 m 0
 133 418 100 361 100 249 c 2
 100 216 l 2
 100 104 133 47 196 47 c 0
 257 47 290 104 290 216 c 2
 290 249 l 2
 290 361 257 418 196 418 c 0
EndSplineSet
EndChar

StartChar: odieresis
Encoding: 246 246 206
Width: 391
GlyphClass: 2
Flags: W
HStem: -11 58<141.182 250.081> 418 58<141.182 250.081> 559 80<95 169 221 296>
VStem: 35 65<96.4723 368.224> 95 74<559 639> 221 75<559 639> 290 67<96.4723 368.224>
LayerCount: 2
Fore
SplineSet
95 559 m 1xe8
 95 639 l 1
 169 639 l 1
 169 559 l 1
 95 559 l 1xe8
221 559 m 1xe4
 221 639 l 1
 296 639 l 1
 296 559 l 1
 221 559 l 1xe4
196 476 m 0
 300 476 357 400 357 232 c 0
 357 65 300 -11 196 -11 c 0
 92 -11 35 65 35 232 c 0xf2
 35 400 92 476 196 476 c 0
196 418 m 0
 133 418 100 361 100 249 c 2
 100 216 l 2
 100 104 133 47 196 47 c 0
 257 47 290 104 290 216 c 2
 290 249 l 2
 290 361 257 418 196 418 c 0
EndSplineSet
EndChar

StartChar: ograve
Encoding: 242 242 207
Width: 391
GlyphClass: 2
Flags: W
HStem: -11 58<141.182 250.081> 418 58<141.182 250.081> 619 20G<96 183.991>
VStem: 35 65<96.4723 368.224> 290 67<96.4723 368.224>
LayerCount: 2
Fore
SplineSet
194 522 m 1
 96 636 l 1
 97 639 l 1
 171 639 l 1
 247 522 l 1
 194 522 l 1
196 476 m 0
 300 476 357 400 357 232 c 0
 357 65 300 -11 196 -11 c 0
 92 -11 35 65 35 232 c 0
 35 400 92 476 196 476 c 0
196 418 m 0
 133 418 100 361 100 249 c 2
 100 216 l 2
 100 104 133 47 196 47 c 0
 257 47 290 104 290 216 c 2
 290 249 l 2
 290 361 257 418 196 418 c 0
EndSplineSet
EndChar

StartChar: ohungarumlaut
Encoding: 337 337 208
Width: 391
GlyphClass: 2
Flags: W
HStem: -11 58<141.182 250.081> 418 58<141.182 250.081> 619 20G<123.769 211 309.598 398>
VStem: 35 65<96.4723 368.224> 290 67<96.4723 368.224>
LayerCount: 2
Fore
SplineSet
79 522 m 1
 133 639 l 1
 210 639 l 1
 211 636 l 1
 137 522 l 1
 79 522 l 1
264 522 m 1
 319 639 l 1
 397 639 l 1
 398 636 l 1
 322 522 l 1
 264 522 l 1
196 476 m 0
 300 476 357 400 357 232 c 0
 357 65 300 -11 196 -11 c 0
 92 -11 35 65 35 232 c 0
 35 400 92 476 196 476 c 0
196 418 m 0
 133 418 100 361 100 249 c 2
 100 216 l 2
 100 104 133 47 196 47 c 0
 257 47 290 104 290 216 c 2
 290 249 l 2
 290 361 257 418 196 418 c 0
EndSplineSet
EndChar

StartChar: omacron
Encoding: 333 333 209
Width: 391
GlyphClass: 2
Flags: W
HStem: -11 58<141.182 250.081> 418 58<141.182 250.081> 530 59<86 307>
VStem: 35 65<96.4723 368.224> 290 67<96.4723 368.224>
LayerCount: 2
Fore
SplineSet
86 589 m 1
 307 589 l 1
 307 530 l 1
 86 530 l 1
 86 589 l 1
196 476 m 0
 300 476 357 400 357 232 c 0
 357 65 300 -11 196 -11 c 0
 92 -11 35 65 35 232 c 0
 35 400 92 476 196 476 c 0
196 418 m 0
 133 418 100 361 100 249 c 2
 100 216 l 2
 100 104 133 47 196 47 c 0
 257 47 290 104 290 216 c 2
 290 249 l 2
 290 361 257 418 196 418 c 0
EndSplineSet
EndChar

StartChar: oslash
Encoding: 248 248 210
Width: 443
GlyphClass: 2
Flags: W
HStem: -11 58<164.417 275.089> 418 58<166.279 275.944>
VStem: 61 65<119.243 368.224> 315 66<96.4723 342.706>
AnchorPoint: "Anchor-1" 0 0 basechar 0
AnchorPoint: "Anchor-0" 222 465 basechar 0
LayerCount: 2
Fore
SplineSet
385 493 m 1
 342 414 l 1
 368 376 381 315 381 232 c 0
 381 65 326 -11 221 -11 c 0
 183 -11 151 -1 126 20 c 1
 101 -28 l 1
 58 -28 l 1
 99 50 l 1
 74 89 61 150 61 232 c 0
 61 400 116 476 221 476 c 0
 259 476 290 466 316 445 c 1
 342 493 l 1
 385 493 l 1
220 418 m 0
 159 418 126 361 126 249 c 2
 126 216 l 2
 126 177 128 144 137 118 c 1
 283 389 l 1
 267 408 246 418 220 418 c 0
303 345 m 1
 158 76 l 1
 173 57 193 47 220 47 c 0
 282 47 315 104 315 216 c 2
 315 249 l 2
 315 288 312 320 303 345 c 1
EndSplineSet
EndChar

StartChar: oslashacute
Encoding: 511 511 211
Width: 443
GlyphClass: 2
Flags: W
HStem: -11 58<164.417 275.089> 418 58<166.279 275.944> 619 20G<234.009 319>
VStem: 61 65<119.243 368.224> 315 66<96.4723 342.706>
LayerCount: 2
Fore
SplineSet
224 522 m 1
 171 522 l 1
 247 639 l 1
 318 639 l 1
 319 636 l 1
 224 522 l 1
385 493 m 1
 342 414 l 1
 368 376 381 315 381 232 c 0
 381 65 326 -11 221 -11 c 0
 183 -11 151 -1 126 20 c 1
 101 -28 l 1
 58 -28 l 1
 99 50 l 1
 74 89 61 150 61 232 c 0
 61 400 116 476 221 476 c 0
 259 476 290 466 316 445 c 1
 342 493 l 1
 385 493 l 1
220 418 m 0
 159 418 126 361 126 249 c 2
 126 216 l 2
 126 177 128 144 137 118 c 1
 283 389 l 1
 267 408 246 418 220 418 c 0
303 345 m 1
 158 76 l 1
 173 57 193 47 220 47 c 0
 282 47 315 104 315 216 c 2
 315 249 l 2
 315 288 312 320 303 345 c 1
EndSplineSet
EndChar

StartChar: otilde
Encoding: 245 245 212
Width: 391
GlyphClass: 2
Flags: W
HStem: -11 58<141.182 250.081> 418 58<141.182 250.081> 552 62<174.849 269.159> 578 61<122.911 220.115>
VStem: 35 65<96.4723 368.224> 72 50<552 576.015> 270 50<614.598 639> 290 67<96.4723 368.224>
LayerCount: 2
Fore
SplineSet
270 639 m 1xd6
 320 639 l 1xd6
 320 600 298 552 247 552 c 0xe6
 211 552 183 578 151 578 c 0xd6
 135 578 124 572 122 552 c 1
 72 552 l 1xe6
 72 590 94 639 145 639 c 0xd6
 181 639 209 614 241 614 c 0xe6
 256 614 268 620 270 639 c 1xd6
196 476 m 0
 300 476 357 400 357 232 c 0
 357 65 300 -11 196 -11 c 0
 92 -11 35 65 35 232 c 0xc9
 35 400 92 476 196 476 c 0
196 418 m 0
 133 418 100 361 100 249 c 2
 100 216 l 2
 100 104 133 47 196 47 c 0
 257 47 290 104 290 216 c 2
 290 249 l 2
 290 361 257 418 196 418 c 0
EndSplineSet
EndChar

StartChar: oe
Encoding: 339 339 213
Width: 684
GlyphClass: 2
Flags: W
HStem: -11 58<155.965 265.413 418.078 534.968> 212 62<374 564> 418 58<155.965 265.413 417.474 529.126>
VStem: 50 66<96.4723 368.224> 305 68<97.8142 212 274 364.25> 564 66<76.9928 156 274 380.75>
AnchorPoint: "Anchor-1" 0 0 basechar 0
AnchorPoint: "Anchor-0" 342 465 basechar 0
LayerCount: 2
Fore
SplineSet
481 476 m 0
 580 476 630 417 630 264 c 2
 630 212 l 1
 373 212 l 1
 374 97 410 48 484 48 c 0
 533 48 567 90 567 156 c 1
 630 156 l 1
 630 57 570 -11 481 -11 c 0
 416 -11 367 11 339 60 c 1
 313 12 269 -11 210 -11 c 0
 106 -11 50 65 50 232 c 0
 50 400 106 476 210 476 c 0
 269 476 313 452 339 405 c 1
 368 452 415 476 481 476 c 0
210 418 m 0
 149 418 116 361 116 249 c 2
 116 216 l 2
 116 104 149 47 210 47 c 0
 272 47 305 104 305 216 c 2
 305 249 l 2
 305 361 272 418 210 418 c 0
481 417 m 0
 410 417 381 369 374 274 c 1
 564 274 l 1
 564 368 534 417 481 417 c 0
EndSplineSet
EndChar

StartChar: p
Encoding: 112 112 214
Width: 391
GlyphClass: 2
Flags: W
HStem: -11 56<153.719 256.046> 420 56<154.248 255.863> 445 20G<54 102.774>
VStem: 54 63<-153 39 87.75 377.25> 54 45<427.9 465> 290 66<86.2139 378.786>
LayerCount: 2
Fore
SplineSet
214 476 m 0xcc
 301 476 356 403 356 232 c 0
 356 63 294 -11 219 -11 c 0
 174 -11 137 8 121 39 c 1
 117 39 l 1
 117 -153 l 1
 54 -153 l 1xd4
 54 465 l 1
 99 465 l 1xac
 109 412 l 1
 113 412 l 1
 135 453 171 476 214 476 c 0xcc
204 420 m 0
 146 420 117 363 117 249 c 2
 117 216 l 2
 117 102 146 45 204 45 c 0
 260 45 290 91 290 216 c 2
 290 249 l 2
 290 374 260 420 204 420 c 0
EndSplineSet
EndChar

StartChar: thorn
Encoding: 254 254 215
Width: 391
GlyphClass: 2
Flags: W
HStem: -11 56<153.719 256.046> 420 56<154.221 255.863> 619 20G<54 117>
VStem: 54 63<-153 39 87.75 377.25 429 639> 290 66<86.2139 378.786>
LayerCount: 2
Fore
SplineSet
117 429 m 1
 122 428 l 1
 140 456 174 476 214 476 c 0
 301 476 356 403 356 232 c 0
 356 63 294 -11 219 -11 c 0
 174 -11 137 8 121 39 c 1
 117 39 l 1
 117 -153 l 1
 54 -153 l 1
 54 639 l 1
 117 639 l 1
 117 429 l 1
204 420 m 0
 146 420 117 363 117 249 c 2
 117 216 l 2
 117 102 146 45 204 45 c 0
 260 45 290 91 290 216 c 2
 290 249 l 2
 290 374 260 420 204 420 c 0
EndSplineSet
EndChar

StartChar: q
Encoding: 113 113 216
Width: 391
GlyphClass: 2
Flags: W
HStem: -11 56<135.08 236.489> 420 56<134.978 236.86> 445 20G<288.981 337>
VStem: 35 65<86.2139 378.786> 275 62<-153 39 90.4636 374.536> 292 45<418.625 465>
LayerCount: 2
Fore
SplineSet
177 476 m 0xd8
 220 476 257 453 278 412 c 1
 284 412 l 1
 292 465 l 1
 337 465 l 1xb4
 337 -153 l 1
 275 -153 l 1
 275 39 l 1
 270 39 l 1
 254 8 217 -11 173 -11 c 0
 97 -11 35 63 35 232 c 0
 35 403 90 476 177 476 c 0xd8
187 420 m 0xd8
 131 420 100 374 100 249 c 2
 100 216 l 2
 100 91 131 45 187 45 c 0
 244 45 275 102 275 216 c 2
 275 249 l 2
 275 363 244 420 187 420 c 0xd8
EndSplineSet
EndChar

StartChar: r
Encoding: 114 114 217
Width: 229
GlyphClass: 2
Flags: W
HStem: 0 21G<54 117> 401 75<145.769 222.989> 401 68<192.749 223>
VStem: 54 63<0 371.625> 54 45<423.7 465>
AnchorPoint: "Anchor-1" 115 0 basechar 0
AnchorPoint: "Anchor-0" 115 465 basechar 0
LayerCount: 2
Fore
SplineSet
192 476 m 0xc8
 208 476 223 469 223 469 c 1
 223 401 l 1xa8
 203 401 l 2
 157 401 117 373 117 291 c 2
 117 0 l 1
 54 0 l 1xd0
 54 465 l 1
 99 465 l 1
 109 406 l 1
 113 406 l 1
 124 440 148 476 192 476 c 0xc8
EndSplineSet
EndChar

StartChar: racute
Encoding: 341 341 218
Width: 229
GlyphClass: 2
Flags: W
HStem: 0 21G<54 117> 401 75<145.769 222.989> 401 68<192.749 223> 619 20G<90.0085 176>
VStem: 54 63<0 371.625> 54 45<423.7 465>
LayerCount: 2
Fore
SplineSet
81 522 m 1x90
 27 522 l 1
 103 639 l 1
 175 639 l 1
 176 636 l 1
 81 522 l 1x90
192 476 m 0xd4
 208 476 223 469 223 469 c 1
 223 401 l 1xb4
 203 401 l 2
 157 401 117 373 117 291 c 2
 117 0 l 1
 54 0 l 1xd8
 54 465 l 1
 99 465 l 1
 109 406 l 1
 113 406 l 1
 124 440 148 476 192 476 c 0xd4
EndSplineSet
EndChar

StartChar: rcaron
Encoding: 345 345 219
Width: 229
GlyphClass: 2
Flags: W
HStem: 0 21G<54 117> 401 75<145.769 222.989> 401 68<192.749 223> 619 20G<2 82.6849 140.041 218>
VStem: 54 63<0 371.625> 54 45<423.7 465>
LayerCount: 2
Fore
SplineSet
2 639 m 1x90
 72 639 l 1
 111 566 l 1
 151 639 l 1
 218 639 l 1
 142 520 l 1
 78 520 l 1
 2 639 l 1x90
192 476 m 0xd4
 208 476 223 469 223 469 c 1
 223 401 l 1xb4
 203 401 l 2
 157 401 117 373 117 291 c 2
 117 0 l 1
 54 0 l 1xd8
 54 465 l 1
 99 465 l 1
 109 406 l 1
 113 406 l 1
 124 440 148 476 192 476 c 0xd4
EndSplineSet
EndChar

StartChar: rcommaaccent
Encoding: 343 343 220
Width: 229
GlyphClass: 2
Flags: W
HStem: -126 72<60 87> 0 21G<54 117> 401 75<145.769 222.989> 401 68<192.749 223>
VStem: 54 63<0 371.625> 54 45<423.7 465> 60 66<-126 -54> 71 35<-185 -162.6>
LayerCount: 2
Fore
SplineSet
192 476 m 0xe4
 208 476 223 469 223 469 c 1
 223 401 l 1xd4
 203 401 l 2
 157 401 117 373 117 291 c 2
 117 0 l 1
 54 0 l 1xe8
 54 465 l 1
 99 465 l 1
 109 406 l 1
 113 406 l 1
 124 440 148 476 192 476 c 0xe4
71 -185 m 1xc1
 87 -126 l 1
 60 -126 l 1
 60 -54 l 1
 126 -54 l 1
 126 -121 l 1xc2
 106 -185 l 1
 71 -185 l 1xc1
EndSplineSet
EndChar

StartChar: s
Encoding: 115 115 221
Width: 350
GlyphClass: 2
Flags: W
HStem: -11 57<119.614 229.147> 419 57<120.602 223.143>
VStem: 29 68<69.267 144> 41 65<305.151 404.947> 239 67<332 403.766> 249 65<67.0938 173.093>
AnchorPoint: "Anchor-1" 175 0 basechar 0
AnchorPoint: "Anchor-0" 175 465 basechar 0
LayerCount: 2
Fore
SplineSet
180 476 m 0xd4
 265 476 306 413 306 348 c 0
 306 343 305 334 305 332 c 1
 239 332 l 1
 239 341 l 1
 240 378 226 419 172 419 c 0
 114 419 106 375 106 349 c 0xd8
 106 245 314 301 314 131 c 0
 314 35 254 -11 173 -11 c 0
 66 -11 29 59 29 123 c 0
 29 137 30 142 30 144 c 1
 97 144 l 1
 97 135 l 1xe4
 96 74 131 46 176 46 c 0
 217 46 249 74 249 121 c 0
 249 243 41 182 41 346 c 0
 41 424 92 476 180 476 c 0xd4
EndSplineSet
EndChar

StartChar: sacute
Encoding: 347 347 222
Width: 350
GlyphClass: 2
Flags: W
HStem: -11 57<119.614 229.147> 419 57<120.602 223.143> 619 20G<187.179 273>
VStem: 29 68<69.267 144> 41 65<305.151 404.947> 239 67<332 403.766> 249 65<67.0938 173.093>
LayerCount: 2
Fore
SplineSet
178 522 m 1xe0
 125 522 l 1
 200 639 l 1
 272 639 l 1
 273 636 l 1
 178 522 l 1xe0
180 476 m 0
 265 476 306 413 306 348 c 0
 306 343 305 334 305 332 c 1
 239 332 l 1
 239 341 l 1
 240 378 226 419 172 419 c 0
 114 419 106 375 106 349 c 0xec
 106 245 314 301 314 131 c 0
 314 35 254 -11 173 -11 c 0
 66 -11 29 59 29 123 c 0
 29 137 30 142 30 144 c 1
 97 144 l 1
 97 135 l 1xf2
 96 74 131 46 176 46 c 0
 217 46 249 74 249 121 c 0
 249 243 41 182 41 346 c 0xea
 41 424 92 476 180 476 c 0
EndSplineSet
EndChar

StartChar: scaron
Encoding: 353 353 223
Width: 350
GlyphClass: 2
Flags: W
HStem: -11 57<119.614 229.147> 419 57<120.602 223.143> 619 20G<69 146.685 204.041 284>
VStem: 29 68<69.267 144> 41 65<305.151 404.947> 239 67<332 403.766> 249 65<67.0938 173.093>
LayerCount: 2
Fore
SplineSet
144 520 m 1xe0
 69 639 l 1
 136 639 l 1
 175 566 l 1
 215 639 l 1
 284 639 l 1
 207 520 l 1
 144 520 l 1xe0
180 476 m 0
 265 476 306 413 306 348 c 0
 306 343 305 334 305 332 c 1
 239 332 l 1
 239 341 l 1
 240 378 226 419 172 419 c 0
 114 419 106 375 106 349 c 0xec
 106 245 314 301 314 131 c 0
 314 35 254 -11 173 -11 c 0
 66 -11 29 59 29 123 c 0
 29 137 30 142 30 144 c 1
 97 144 l 1
 97 135 l 1xf2
 96 74 131 46 176 46 c 0
 217 46 249 74 249 121 c 0
 249 243 41 182 41 346 c 0xea
 41 424 92 476 180 476 c 0
EndSplineSet
EndChar

StartChar: scedilla
Encoding: 351 351 224
Width: 350
GlyphClass: 2
Flags: W
HStem: -161 50<92.9909 191.978> -154 43<92 164.917> -9 55<120.779 143 188 227.107> 419 57<120.602 223.143>
VStem: 29 68<69.1011 144> 41 65<305.151 404.947> 193 64<-109.873 -68.7826> 239 67<332 403.766> 249 65<65.5234 173.093>
LayerCount: 2
Fore
SplineSet
180 476 m 0xb480
 265 476 306 413 306 348 c 0
 306 343 305 334 305 332 c 1
 239 332 l 1
 239 341 l 1xb5
 240 378 226 419 172 419 c 0
 114 419 106 375 106 349 c 0
 106 245 314 301 314 131 c 0xb480
 314 40 262 -4 188 -10 c 1
 186 -33 l 1
 224 -35 257 -49 257 -89 c 0
 257 -149 203 -161 166 -161 c 0xb2
 143 -161 113 -158 92 -154 c 1
 92 -111 l 1x72
 161 -111 l 2
 181 -111 193 -106 193 -89 c 0
 193 -75 186 -68 163 -68 c 2
 134 -68 l 1
 143 -9 l 1
 59 3 29 65 29 123 c 0
 29 137 30 142 30 144 c 1
 97 144 l 1
 97 135 l 1xba
 96 74 131 46 176 46 c 0
 217 46 249 74 249 121 c 0
 249 243 41 182 41 346 c 0
 41 424 92 476 180 476 c 0xb480
EndSplineSet
Substitution2: "'locl' Localized Forms in Latin lookup 5 subtable" scommaaccent
Substitution2: "'locl' Localized Forms in Latin lookup 4 subtable" scommaaccent
Substitution2: "'aalt' Access All Alternates lookup 0 subtable" scommaaccent
EndChar

StartChar: scircumflex
Encoding: 349 349 225
Width: 350
GlyphClass: 2
Flags: W
HStem: -11 57<119.614 229.147> 419 57<120.602 223.143>
VStem: 29 68<69.267 144> 41 65<305.151 404.947> 239 67<332 403.766> 249 65<67.0938 173.093>
LayerCount: 2
Fore
SplineSet
215 519 m 1xc0
 176 591 l 1
 136 519 l 1
 69 519 l 1
 145 638 l 1
 209 638 l 1
 284 519 l 1
 215 519 l 1xc0
180 476 m 0
 265 476 306 413 306 348 c 0
 306 343 305 334 305 332 c 1
 239 332 l 1
 239 341 l 1
 240 378 226 419 172 419 c 0
 114 419 106 375 106 349 c 0xd8
 106 245 314 301 314 131 c 0
 314 35 254 -11 173 -11 c 0
 66 -11 29 59 29 123 c 0
 29 137 30 142 30 144 c 1
 97 144 l 1
 97 135 l 1xe4
 96 74 131 46 176 46 c 0
 217 46 249 74 249 121 c 0
 249 243 41 182 41 346 c 0xd4
 41 424 92 476 180 476 c 0
EndSplineSet
EndChar

StartChar: scommaaccent
Encoding: 537 537 226
Width: 350
GlyphClass: 2
Flags: W
HStem: -126 72<142 168> -11 57<119.614 229.147> 419 57<120.602 223.143>
VStem: 29 68<69.267 144> 41 65<305.151 404.947> 142 65<-121 -54> 239 67<332 403.766> 249 65<67.0938 173.093>
AnchorPoint: "Anchor-1" 175 0 basechar 0
AnchorPoint: "Anchor-0" 175 465 basechar 0
LayerCount: 2
Fore
SplineSet
180 476 m 0xed
 265 476 306 413 306 348 c 0
 306 343 305 334 305 332 c 1
 239 332 l 1
 239 341 l 1
 240 378 226 419 172 419 c 0
 114 419 106 375 106 349 c 0xee
 106 245 314 301 314 131 c 0
 314 35 254 -11 173 -11 c 0
 66 -11 29 59 29 123 c 0
 29 137 30 142 30 144 c 1
 97 144 l 1
 97 135 l 1xf5
 96 74 131 46 176 46 c 0
 217 46 249 74 249 121 c 0
 249 243 41 182 41 346 c 0
 41 424 92 476 180 476 c 0xed
150 -185 m 1
 168 -126 l 1
 142 -126 l 1
 142 -54 l 1
 207 -54 l 1
 207 -121 l 1
 185 -185 l 1
 150 -185 l 1
EndSplineSet
EndChar

StartChar: germandbls
Encoding: 223 223 227
Width: 443
GlyphClass: 2
Flags: W
HStem: 0 58<161 287.251> 316 54<161 277.9> 592 58<154.513 287.419>
VStem: 47 63<0 544.109> 323 66<415.789 555.17> 342 65<114.639 262.721>
LayerCount: 2
Fore
SplineSet
225 650 m 0xf8
 319 650 389 588 389 484 c 0xf8
 389 426 354 369 305 349 c 1
 305 346 l 1
 365 324 407 257 407 189 c 0
 407 75 329 0 230 0 c 2
 161 0 l 1
 161 58 l 1
 224 58 l 2
 290 58 342 117 342 190 c 0xf4
 342 259 290 316 224 316 c 2
 161 316 l 1
 161 370 l 1
 216 370 l 2
 275 370 323 421 323 482 c 0
 323 549 288 592 220 592 c 0
 153 592 110 546 110 455 c 2
 110 0 l 1
 47 0 l 1
 47 455 l 2
 47 594 126 650 225 650 c 0xf8
EndSplineSet
EndChar

StartChar: longs
Encoding: 383 383 228
Width: 149
GlyphClass: 2
Flags: W
HStem: 0 21G<47 109> 407 58<8 47> 593 53<113.667 190.292> 593 43<134.939 191>
VStem: 8 101<407 465> 47 62<0 407 465 588.087>
LayerCount: 2
Fore
SplineSet
134 646 m 0xe4
 154 646 176 641 191 636 c 1
 191 593 l 1xd4
 153 593 l 2
 124 593 109 578 109 550 c 2
 109 0 l 1
 47 0 l 1
 47 407 l 1xe4
 8 407 l 1
 8 465 l 1xe8
 47 465 l 1
 47 544 l 2
 47 595 67 646 134 646 c 0xe4
EndSplineSet
EndChar

StartChar: t
Encoding: 116 116 229
Width: 191
GlyphClass: 2
Flags: W
HStem: -8 55<118.239 174.477> 5 42<126.8 175> 407 58<13 51 114 175>
VStem: 51 63<51.7321 407 465 521> 67 47<537 593>
AnchorPoint: "Anchor-1" 110 0 basechar 0
AnchorPoint: "Anchor-0" 0 0 basechar 0
LayerCount: 2
Fore
SplineSet
175 407 m 1xb0
 114 407 l 1
 114 90 l 2
 114 62 129 47 156 47 c 2xb0
 175 47 l 1
 175 5 l 1x70
 164 -4 143 -8 126 -8 c 0
 69 -8 51 43 51 93 c 2
 51 407 l 1
 13 407 l 1
 13 465 l 1
 51 465 l 1xb0
 67 593 l 1
 114 593 l 1xa8
 114 465 l 1
 175 465 l 1
 175 407 l 1xb0
EndSplineSet
EndChar

StartChar: tbar
Encoding: 359 359 230
Width: 191
GlyphClass: 2
Flags: W
HStem: -8 55<118.239 174.477> 5 42<126.8 175> 253 56<15 51 114 170> 407 58<13 51 114 175>
VStem: 13 162<253 309 407 465> 51 63<51.7321 253 309 407 465 521> 67 47<537 593>
LayerCount: 2
Fore
SplineSet
175 465 m 1xb8
 175 407 l 1xb8
 114 407 l 1
 114 309 l 1
 170 309 l 1
 170 253 l 1
 114 253 l 1
 114 90 l 2
 114 62 129 47 156 47 c 2xb4
 175 47 l 1
 175 5 l 1x78
 164 -4 143 -8 126 -8 c 0
 69 -8 51 43 51 93 c 2
 51 253 l 1
 15 253 l 1
 15 309 l 1
 51 309 l 1
 51 407 l 1xb4
 13 407 l 1
 13 465 l 1xb8
 51 465 l 1xb4
 67 593 l 1
 114 593 l 1xb2
 114 465 l 1xb4
 175 465 l 1xb8
EndSplineSet
EndChar

StartChar: tcaron
Encoding: 357 357 231
Width: 249
GlyphClass: 2
Flags: W
HStem: -8 55<118.239 174.477> 5 42<126.8 175> 407 58<13 51 114 175> 519 87<210 241>
VStem: 51 63<51.7321 407 465 521> 67 47<537 593> 210 80<526 606>
LayerCount: 2
Fore
SplineSet
207 408 m 1x32
 241 519 l 1
 210 519 l 1
 210 606 l 1
 290 606 l 1
 290 526 l 1
 248 408 l 1
 207 408 l 1x32
175 407 m 1
 114 407 l 1
 114 90 l 2
 114 62 129 47 156 47 c 2xba
 175 47 l 1
 175 5 l 1x7a
 164 -4 143 -8 126 -8 c 0
 69 -8 51 43 51 93 c 2
 51 407 l 1
 13 407 l 1
 13 465 l 1
 51 465 l 1xba
 67 593 l 1
 114 593 l 1xb6
 114 465 l 1xba
 175 465 l 1
 175 407 l 1
EndSplineSet
EndChar

StartChar: tcedilla
Encoding: 355 355 232
Width: 191
GlyphClass: 2
Flags: W
HStem: -161 50<28.9895 127.177> -154 43<28 100.826> -8 55<125 174.477> 5 42<125.016 175> 407 58<13 51 114 175>
VStem: 51 63<51.9018 407 465 521> 67 47<537 593> 128 65<-109.873 -68.7826>
AnchorPoint: "Anchor-1" 110 0 basechar 0
AnchorPoint: "Anchor-0" 0 0 basechar 0
LayerCount: 2
Fore
SplineSet
125 -8 m 1x2d
 120 -33 l 1
 158 -35 193 -49 193 -89 c 0
 193 -149 137 -161 102 -161 c 0xad
 77 -161 49 -158 28 -154 c 1
 28 -111 l 1x4d
 96 -111 l 2
 115 -111 128 -106 128 -89 c 0
 128 -75 121 -68 98 -68 c 2
 69 -68 l 1
 81 7 l 1
 59 26 51 60 51 93 c 2
 51 407 l 1
 13 407 l 1
 13 465 l 1
 51 465 l 1x8d
 67 593 l 1
 114 593 l 1x8b
 114 465 l 1
 175 465 l 1
 175 407 l 1
 114 407 l 1
 114 90 l 2
 114 62 129 47 156 47 c 2xad
 175 47 l 1
 175 5 l 1x1d
 164 -4 143 -8 126 -8 c 2
 125 -8 l 1x2d
EndSplineSet
Substitution2: "'locl' Localized Forms in Latin lookup 5 subtable" tcommaaccent
Substitution2: "'locl' Localized Forms in Latin lookup 4 subtable" tcommaaccent
Substitution2: "'aalt' Access All Alternates lookup 0 subtable" tcommaaccent
EndChar

StartChar: tcommaaccent
Encoding: 539 539 233
Width: 191
GlyphClass: 2
Flags: W
HStem: -126 72<63 89> -8 55<118.239 174.477> 5 42<126.8 175> 407 58<13 51 114 175>
VStem: 51 63<51.7321 407 465 521> 63 65<-121 -54> 67 47<537 593>
LayerCount: 2
Fore
SplineSet
175 407 m 1xd8
 114 407 l 1
 114 90 l 2
 114 62 129 47 156 47 c 2xd8
 175 47 l 1
 175 5 l 1xb8
 164 -4 143 -8 126 -8 c 0
 69 -8 51 43 51 93 c 2
 51 407 l 1
 13 407 l 1
 13 465 l 1
 51 465 l 1xd8
 67 593 l 1
 114 593 l 1xd2
 114 465 l 1
 175 465 l 1
 175 407 l 1xd8
71 -185 m 1
 89 -126 l 1
 63 -126 l 1
 63 -54 l 1
 128 -54 l 1
 128 -121 l 1x94
 106 -185 l 1
 71 -185 l 1
EndSplineSet
EndChar

StartChar: u
Encoding: 117 117 234
Width: 391
GlyphClass: 2
Flags: W
HStem: -11 56<130.588 234.534> 0 21G<288.604 337> 445 20G<54 117 275 337>
VStem: 54 63<59.5565 465> 275 62<89.7319 465> 292 45<0 41.2222>
AnchorPoint: "Anchor-1" 0 0 basechar 0
AnchorPoint: "Anchor-0" 196 465 basechar 0
LayerCount: 2
Fore
SplineSet
283 53 m 1x74
 277 53 l 1
 252 4 210 -11 167 -11 c 0
 97 -11 54 26 54 127 c 2
 54 465 l 1
 117 465 l 1
 117 125 l 2
 117 60 145 45 183 45 c 0
 231 45 275 94 275 182 c 2
 275 465 l 1
 337 465 l 1xb8
 337 0 l 1
 292 0 l 1
 283 53 l 1x74
EndSplineSet
EndChar

StartChar: uacute
Encoding: 250 250 235
Width: 391
GlyphClass: 2
Flags: W
HStem: -11 56<130.588 234.534> 0 21G<288.604 337> 445 20G<54 117 275 337> 619 20G<208.009 293>
VStem: 54 63<59.5565 465> 275 62<89.7319 465> 292 45<0 41.2222>
LayerCount: 2
Fore
SplineSet
198 522 m 1x3a
 145 522 l 1
 221 639 l 1
 292 639 l 1
 293 636 l 1
 198 522 l 1x3a
292 0 m 1x7a
 283 53 l 1
 277 53 l 1
 252 4 210 -11 167 -11 c 0
 97 -11 54 26 54 127 c 2
 54 465 l 1
 117 465 l 1
 117 125 l 2
 117 60 145 45 183 45 c 0
 231 45 275 94 275 182 c 2
 275 465 l 1
 337 465 l 1xbc
 337 0 l 1
 292 0 l 1x7a
EndSplineSet
EndChar

StartChar: ubreve
Encoding: 365 365 236
Width: 391
GlyphClass: 2
Flags: W
HStem: -11 56<130.588 234.534> 0 21G<288.604 337> 445 20G<54 117 275 337> 555 55<146.849 246.572> 619 20G<89 145 249 303>
VStem: 54 63<59.5565 465> 89 54<618.618 639> 250 53<616.942 639> 275 62<89.7319 465> 292 45<0 41.2222>
LayerCount: 2
Fore
SplineSet
250 639 m 1x3b
 303 639 l 1
 303 600 263 555 197 555 c 0
 130 555 89 600 89 639 c 1
 143 639 l 1
 147 627 165 610 197 610 c 0
 227 610 248 627 250 639 c 1x3b
283 53 m 1
 277 53 l 1
 252 4 210 -11 167 -11 c 0
 97 -11 54 26 54 127 c 2
 54 465 l 1
 117 465 l 1
 117 125 l 2
 117 60 145 45 183 45 c 0
 231 45 275 94 275 182 c 2
 275 465 l 1
 337 465 l 1xbc80
 337 0 l 1
 292 0 l 1x7840
 283 53 l 1
EndSplineSet
EndChar

StartChar: ucircumflex
Encoding: 251 251 237
Width: 391
GlyphClass: 2
Flags: W
HStem: -11 56<130.588 234.534> 0 21G<288.604 337> 445 20G<54 117 275 337>
VStem: 54 63<59.5565 465> 275 62<89.7319 465> 292 45<0 41.2222>
LayerCount: 2
Fore
SplineSet
196 591 m 1x30
 158 519 l 1
 89 519 l 1
 164 638 l 1
 229 638 l 1
 304 519 l 1
 235 519 l 1
 196 591 l 1x30
283 53 m 1
 277 53 l 1
 252 4 210 -11 167 -11 c 0
 97 -11 54 26 54 127 c 2
 54 465 l 1
 117 465 l 1
 117 125 l 2
 117 60 145 45 183 45 c 0
 231 45 275 94 275 182 c 2
 275 465 l 1
 337 465 l 1xb8
 337 0 l 1
 292 0 l 1x74
 283 53 l 1
EndSplineSet
EndChar

StartChar: udieresis
Encoding: 252 252 238
Width: 391
GlyphClass: 2
Flags: W
HStem: -11 56<130.588 234.534> 0 21G<288.604 337> 445 20G<54 117 275 337> 559 80<95 169 221 296>
VStem: 54 63<59.5565 465> 95 74<559 639> 221 75<559 639> 275 62<89.7319 465> 292 45<0 41.2222>
LayerCount: 2
Fore
SplineSet
95 559 m 1x34
 95 639 l 1
 169 639 l 1
 169 559 l 1
 95 559 l 1x34
221 559 m 1x32
 221 639 l 1
 296 639 l 1
 296 559 l 1
 221 559 l 1x32
292 0 m 1x7080
 283 53 l 1
 277 53 l 1
 252 4 210 -11 167 -11 c 0
 97 -11 54 26 54 127 c 2
 54 465 l 1
 117 465 l 1
 117 125 l 2
 117 60 145 45 183 45 c 0
 231 45 275 94 275 182 c 2
 275 465 l 1
 337 465 l 1xb9
 337 0 l 1
 292 0 l 1x7080
EndSplineSet
EndChar

StartChar: ugrave
Encoding: 249 249 239
Width: 391
GlyphClass: 2
Flags: W
HStem: -11 56<130.588 234.534> 0 21G<288.604 337> 445 20G<54 117 275 337> 619 20G<96 183.991>
VStem: 54 63<59.5565 465> 275 62<89.7319 465> 292 45<0 41.2222>
LayerCount: 2
Fore
SplineSet
194 522 m 1x38
 96 636 l 1
 97 639 l 1
 171 639 l 1
 247 522 l 1
 194 522 l 1x38
292 0 m 1x7a
 283 53 l 1
 277 53 l 1
 252 4 210 -11 167 -11 c 0
 97 -11 54 26 54 127 c 2
 54 465 l 1
 117 465 l 1
 117 125 l 2
 117 60 145 45 183 45 c 0
 231 45 275 94 275 182 c 2
 275 465 l 1
 337 465 l 1xbc
 337 0 l 1
 292 0 l 1x7a
EndSplineSet
EndChar

StartChar: uhungarumlaut
Encoding: 369 369 240
Width: 391
GlyphClass: 2
Flags: W
HStem: -11 56<130.588 234.534> 0 21G<288.604 337> 445 20G<54 117 275 337> 619 20G<160.769 248 273.598 362>
VStem: 54 63<59.5565 465> 275 62<89.7319 465> 292 45<0 41.2222>
LayerCount: 2
Fore
SplineSet
174 522 m 1x38
 116 522 l 1
 170 639 l 1
 247 639 l 1
 248 636 l 1
 174 522 l 1x38
286 522 m 1
 228 522 l 1
 283 639 l 1
 361 639 l 1
 362 636 l 1
 286 522 l 1
292 0 m 1x7a
 283 53 l 1
 277 53 l 1
 252 4 210 -11 167 -11 c 0
 97 -11 54 26 54 127 c 2
 54 465 l 1
 117 465 l 1
 117 125 l 2
 117 60 145 45 183 45 c 0
 231 45 275 94 275 182 c 2
 275 465 l 1
 337 465 l 1xbc
 337 0 l 1
 292 0 l 1x7a
EndSplineSet
EndChar

StartChar: umacron
Encoding: 363 363 241
Width: 391
GlyphClass: 2
Flags: W
HStem: -11 56<130.588 234.534> 0 21G<288.604 337> 445 20G<54 117 275 337> 530 59<86 307>
VStem: 54 63<59.5565 465> 275 62<89.7319 465> 292 45<0 41.2222>
LayerCount: 2
Fore
SplineSet
86 589 m 1x38
 307 589 l 1
 307 530 l 1
 86 530 l 1
 86 589 l 1x38
283 53 m 1
 277 53 l 1
 252 4 210 -11 167 -11 c 0
 97 -11 54 26 54 127 c 2
 54 465 l 1
 117 465 l 1
 117 125 l 2
 117 60 145 45 183 45 c 0
 231 45 275 94 275 182 c 2
 275 465 l 1
 337 465 l 1xbc
 337 0 l 1
 292 0 l 1x7a
 283 53 l 1
EndSplineSet
EndChar

StartChar: uogonek
Encoding: 371 371 242
Width: 391
GlyphClass: 2
Flags: W
HStem: -159 57<322.675 387.112> -147 45<335.842 388> -11 56<130.588 234.534> 445 20G<54 117 275 337>
VStem: 54 63<59.5565 465> 254 63<-97.7692 -8.80155> 275 62<89.7319 465>
LayerCount: 2
Fore
SplineSet
388 -102 m 1x7c
 388 -147 l 1x7c
 369 -154 353 -159 335 -159 c 0
 298 -159 254 -140 254 -79 c 0xbc
 254 -41 268 -16 286 4 c 1
 292 1 l 1
 283 53 l 1
 277 53 l 1
 252 4 210 -11 167 -11 c 0
 97 -11 54 26 54 127 c 2
 54 465 l 1
 117 465 l 1
 117 125 l 2
 117 60 145 45 183 45 c 0
 231 45 275 94 275 182 c 2
 275 465 l 1
 337 465 l 1
 337 0 l 1xba
 327 -13 317 -33 317 -53 c 0
 317 -79 327 -102 357 -102 c 2xbc
 388 -102 l 1x7c
EndSplineSet
EndChar

StartChar: uring
Encoding: 367 367 243
Width: 391
GlyphClass: 2
Flags: W
HStem: -11 56<130.588 234.534> 0 21G<288.604 337> 445 20G<54 117 275 337> 497 39<159.09 232.667> 629 38<158.872 232.885>
VStem: 54 63<59.5565 465> 111 38<546.876 618.468> 243 37<547.457 617.908> 275 62<89.7319 465> 292 45<0 41.2222>
LayerCount: 2
Fore
SplineSet
196 667 m 0x3b
 243 667 280 628 280 584 c 0
 280 535 242 497 196 497 c 0
 150 497 111 534 111 584 c 0
 111 629 149 667 196 667 c 0x3b
196 629 m 0
 171 629 149 608 149 584 c 0
 149 558 171 536 196 536 c 0
 220 536 243 558 243 584 c 0
 243 608 220 629 196 629 c 0
283 53 m 1
 277 53 l 1
 252 4 210 -11 167 -11 c 0
 97 -11 54 26 54 127 c 2
 54 465 l 1
 117 465 l 1
 117 125 l 2
 117 60 145 45 183 45 c 0
 231 45 275 94 275 182 c 2
 275 465 l 1
 337 465 l 1xbc80
 337 0 l 1
 292 0 l 1x7840
 283 53 l 1
EndSplineSet
EndChar

StartChar: utilde
Encoding: 361 361 244
Width: 391
GlyphClass: 2
Flags: W
HStem: -11 56<130.588 234.534> 0 21G<288.604 337> 445 20G<54 117 275 337> 552 62<174.849 269.159> 578 61<122.911 220.115>
VStem: 54 63<59.5565 465> 72 50<552 576.015> 270 50<614.598 639> 275 62<89.7319 465> 292 45<0 41.2222>
LayerCount: 2
Fore
SplineSet
270 639 m 1x2b
 320 639 l 1x2b
 320 600 298 552 247 552 c 0x33
 211 552 183 578 151 578 c 0x2b
 135 578 124 572 122 552 c 1
 72 552 l 1x33
 72 590 94 639 145 639 c 0x2b
 181 639 209 614 241 614 c 0x33
 256 614 268 620 270 639 c 1x2b
283 53 m 1
 277 53 l 1
 252 4 210 -11 167 -11 c 0
 97 -11 54 26 54 127 c 2
 54 465 l 1
 117 465 l 1
 117 125 l 2
 117 60 145 45 183 45 c 0
 231 45 275 94 275 182 c 2
 275 465 l 1
 337 465 l 1xa480
 337 0 l 1
 292 0 l 1x6040
 283 53 l 1
EndSplineSet
EndChar

StartChar: v
Encoding: 118 118 245
Width: 350
GlyphClass: 2
Flags: W
HStem: 0 21G<134.409 216.548> 445 20G<10 85.2209 271.841 340>
VStem: 10 330
LayerCount: 2
Fore
SplineSet
140 0 m 1
 10 465 l 1
 80 465 l 1
 145 216 l 2
 155 179 165 144 176 107 c 1
 180 107 l 1
 189 142 202 178 212 213 c 2
 277 465 l 1
 340 465 l 1
 211 0 l 1
 140 0 l 1
EndSplineSet
EndChar

StartChar: w
Encoding: 119 119 246
Width: 511
GlyphClass: 2
Flags: W
HStem: 0 21G<112.968 193.538 315.547 398.032> 445 20G<1 76.4523 215.537 299.617 438.532 510>
VStem: 1 71<437.179 465> 219 77<426.294 465> 443 67<437.179 465>
AnchorPoint: "Anchor-1" 0 0 basechar 0
AnchorPoint: "Anchor-0" 256 465 basechar 0
LayerCount: 2
Fore
SplineSet
319 0 m 1
 271 278 l 2
 262 326 257 382 257 382 c 1
 253 382 l 1
 253 382 248 327 239 277 c 2
 190 0 l 1
 118 0 l 1
 1 465 l 1
 72 465 l 1
 135 182 l 1
 143 151 153 83 153 83 c 1
 157 83 l 1
 157 83 163 141 170 182 c 2
 219 465 l 1
 296 465 l 1
 347 183 l 1
 354 135 359 83 359 83 c 1
 362 83 l 1
 362 83 367 129 380 183 c 2
 443 465 l 1
 510 465 l 1
 393 0 l 1
 319 0 l 1
EndSplineSet
EndChar

StartChar: wacute
Encoding: 7811 7811 247
Width: 511
GlyphClass: 2
Flags: W
HStem: 0 21G<112.968 193.538 315.547 398.032> 445 20G<1 76.4523 215.537 299.617 438.532 510> 619 20G<268.009 353>
VStem: 1 71<437.179 465> 219 77<426.294 465> 443 67<437.179 465>
LayerCount: 2
Fore
SplineSet
259 522 m 1
 205 522 l 1
 281 639 l 1
 352 639 l 1
 353 636 l 1
 259 522 l 1
319 0 m 1
 271 278 l 2
 262 326 257 382 257 382 c 1
 253 382 l 1
 253 382 248 327 239 277 c 2
 190 0 l 1
 118 0 l 1
 1 465 l 1
 72 465 l 1
 135 182 l 1
 143 151 153 83 153 83 c 1
 157 83 l 1
 157 83 163 141 170 182 c 2
 219 465 l 1
 296 465 l 1
 347 183 l 1
 354 135 359 83 359 83 c 1
 362 83 l 1
 362 83 367 129 380 183 c 2
 443 465 l 1
 510 465 l 1
 393 0 l 1
 319 0 l 1
EndSplineSet
EndChar

StartChar: wcircumflex
Encoding: 373 373 248
Width: 511
GlyphClass: 2
Flags: W
HStem: 0 21G<112.968 193.538 315.547 398.032> 445 20G<1 76.4523 215.537 299.617 438.532 510>
VStem: 1 71<437.179 465> 219 77<426.294 465> 443 67<437.179 465>
LayerCount: 2
Fore
SplineSet
257 591 m 1
 216 519 l 1
 147 519 l 1
 223 638 l 1
 287 638 l 1
 363 519 l 1
 295 519 l 1
 257 591 l 1
319 0 m 1
 271 278 l 2
 262 326 257 382 257 382 c 1
 253 382 l 1
 253 382 248 327 239 277 c 2
 190 0 l 1
 118 0 l 1
 1 465 l 1
 72 465 l 1
 135 182 l 1
 143 151 153 83 153 83 c 1
 157 83 l 1
 157 83 163 141 170 182 c 2
 219 465 l 1
 296 465 l 1
 347 183 l 1
 354 135 359 83 359 83 c 1
 362 83 l 1
 362 83 367 129 380 183 c 2
 443 465 l 1
 510 465 l 1
 393 0 l 1
 319 0 l 1
EndSplineSet
EndChar

StartChar: wdieresis
Encoding: 7813 7813 249
Width: 511
GlyphClass: 2
Flags: W
HStem: 0 21G<112.968 193.538 315.547 398.032> 445 20G<1 76.4523 215.537 299.617 438.532 510> 559 80<155 229 281 356>
VStem: 1 71<437.179 465> 155 74<559 639> 219 77<426.294 465> 281 75<559 639> 443 67<437.179 465>
LayerCount: 2
Fore
SplineSet
155 559 m 1xf9
 155 639 l 1
 229 639 l 1
 229 559 l 1
 155 559 l 1xf9
281 559 m 1xf3
 281 639 l 1
 356 639 l 1
 356 559 l 1
 281 559 l 1xf3
319 0 m 1
 271 278 l 2
 262 326 257 382 257 382 c 1
 253 382 l 1
 253 382 248 327 239 277 c 2
 190 0 l 1
 118 0 l 1
 1 465 l 1
 72 465 l 1
 135 182 l 1
 143 151 153 83 153 83 c 1
 157 83 l 1
 157 83 163 141 170 182 c 2
 219 465 l 1
 296 465 l 1xf5
 347 183 l 1
 354 135 359 83 359 83 c 1
 362 83 l 1
 362 83 367 129 380 183 c 2
 443 465 l 1
 510 465 l 1
 393 0 l 1
 319 0 l 1
EndSplineSet
EndChar

StartChar: wgrave
Encoding: 7809 7809 250
Width: 511
GlyphClass: 2
Flags: W
HStem: 0 21G<112.968 193.538 315.547 398.032> 445 20G<1 76.4523 215.537 299.617 438.532 510> 619 20G<156 243.65>
VStem: 1 71<437.179 465> 219 77<426.294 465> 443 67<437.179 465>
LayerCount: 2
Fore
SplineSet
254 522 m 1
 156 636 l 1
 157 639 l 1
 231 639 l 1
 305 522 l 1
 254 522 l 1
319 0 m 1
 271 278 l 2
 262 326 257 382 257 382 c 1
 253 382 l 1
 253 382 248 327 239 277 c 2
 190 0 l 1
 118 0 l 1
 1 465 l 1
 72 465 l 1
 135 182 l 1
 143 151 153 83 153 83 c 1
 157 83 l 1
 157 83 163 141 170 182 c 2
 219 465 l 1
 296 465 l 1
 347 183 l 1
 354 135 359 83 359 83 c 1
 362 83 l 1
 362 83 367 129 380 183 c 2
 443 465 l 1
 510 465 l 1
 393 0 l 1
 319 0 l 1
EndSplineSet
EndChar

StartChar: x
Encoding: 120 120 251
Width: 350
GlyphClass: 2
Flags: W
HStem: 0 21G<5 86.1364 256.318 344> 445 20G<10 98.4819 255.916 339>
LayerCount: 2
Fore
SplineSet
267 0 m 1
 173 176 l 1
 75 0 l 1
 5 0 l 1
 141 234 l 1
 10 465 l 1
 88 465 l 1
 175 299 l 1
 267 465 l 1
 339 465 l 1
 207 240 l 1
 344 0 l 1
 267 0 l 1
EndSplineSet
EndChar

StartChar: y
Encoding: 121 121 252
Width: 350
GlyphClass: 2
Flags: W
HStem: -161 49<32.887 106.398> -154 42<32 78.3437> 445 20G<10 84.551 272.366 340>
VStem: 10 330
AnchorPoint: "Anchor-1" 0 0 basechar 0
AnchorPoint: "Anchor-0" 175 465 basechar 0
LayerCount: 2
Fore
SplineSet
340 465 m 1xb0
 225 24 l 2
 199 -78 158 -161 79 -161 c 0xb0
 65 -161 51 -160 32 -154 c 1
 32 -112 l 1x70
 50 -112 l 2
 92 -112 130 -89 148 0 c 1
 10 465 l 1
 79 465 l 1
 147 220 l 2
 159 180 172 139 185 98 c 1
 188 98 l 1
 199 139 210 179 220 219 c 2
 277 465 l 1
 340 465 l 1xb0
EndSplineSet
EndChar

StartChar: yacute
Encoding: 253 253 253
Width: 350
GlyphClass: 2
Flags: W
HStem: -161 49<32.887 106.398> -154 42<32 78.3437> 445 20G<10 84.551 272.366 340> 619 20G<187.179 273>
VStem: 10 330
LayerCount: 2
Fore
SplineSet
178 522 m 1x38
 125 522 l 1
 200 639 l 1
 272 639 l 1
 273 636 l 1
 178 522 l 1x38
340 465 m 1
 225 24 l 2
 199 -78 158 -161 79 -161 c 0xb8
 65 -161 51 -160 32 -154 c 1
 32 -112 l 1x78
 50 -112 l 2xb8
 92 -112 130 -89 148 0 c 1
 10 465 l 1
 79 465 l 1
 147 220 l 2
 159 180 172 139 185 98 c 1
 188 98 l 1
 199 139 210 179 220 219 c 2
 277 465 l 1
 340 465 l 1
EndSplineSet
EndChar

StartChar: ycircumflex
Encoding: 375 375 254
Width: 350
GlyphClass: 2
Flags: W
HStem: -161 49<32.887 106.398> -154 42<32 78.3437> 445 20G<10 84.551 272.366 340>
VStem: 10 330
LayerCount: 2
Fore
SplineSet
176 591 m 1x30
 136 519 l 1
 69 519 l 1
 145 638 l 1
 209 638 l 1
 284 519 l 1
 215 519 l 1
 176 591 l 1x30
340 465 m 1
 225 24 l 2
 199 -78 158 -161 79 -161 c 0xb0
 65 -161 51 -160 32 -154 c 1
 32 -112 l 1x70
 50 -112 l 2xb0
 92 -112 130 -89 148 0 c 1
 10 465 l 1
 79 465 l 1
 147 220 l 2
 159 180 172 139 185 98 c 1
 188 98 l 1
 199 139 210 179 220 219 c 2
 277 465 l 1
 340 465 l 1
EndSplineSet
EndChar

StartChar: ydieresis
Encoding: 255 255 255
Width: 350
GlyphClass: 2
Flags: W
HStem: -161 49<32.887 106.398> -154 42<32 78.3437> 445 20G<10 84.551 272.366 340> 559 80<75 148 201 274>
VStem: 75 73<559 639> 201 73<559 639>
LayerCount: 2
Fore
SplineSet
75 559 m 1x3c
 75 639 l 1
 148 639 l 1
 148 559 l 1
 75 559 l 1x3c
201 559 m 1
 201 639 l 1
 274 639 l 1
 274 559 l 1
 201 559 l 1
340 465 m 1
 225 24 l 2
 199 -78 158 -161 79 -161 c 0xbc
 65 -161 51 -160 32 -154 c 1
 32 -112 l 1x7c
 50 -112 l 2xbc
 92 -112 130 -89 148 0 c 1
 10 465 l 1
 79 465 l 1
 147 220 l 2
 159 180 172 139 185 98 c 1
 188 98 l 1
 199 139 210 179 220 219 c 2
 277 465 l 1
 340 465 l 1
EndSplineSet
EndChar

StartChar: ygrave
Encoding: 7923 7923 256
Width: 350
GlyphClass: 2
Flags: W
HStem: -161 49<32.887 106.398> -154 42<32 78.3437> 445 20G<10 84.551 272.366 340> 619 20G<76 161.991>
VStem: 10 330
LayerCount: 2
Fore
SplineSet
172 522 m 1x38
 76 636 l 1
 77 639 l 1
 149 639 l 1
 225 522 l 1
 172 522 l 1x38
340 465 m 1
 225 24 l 2
 199 -78 158 -161 79 -161 c 0xb8
 65 -161 51 -160 32 -154 c 1
 32 -112 l 1x78
 50 -112 l 2xb8
 92 -112 130 -89 148 0 c 1
 10 465 l 1
 79 465 l 1
 147 220 l 2
 159 180 172 139 185 98 c 1
 188 98 l 1
 199 139 210 179 220 219 c 2
 277 465 l 1
 340 465 l 1
EndSplineSet
EndChar

StartChar: z
Encoding: 122 122 257
Width: 362
GlyphClass: 2
Flags: W
HStem: 0 58<111 337> 407 58<40 236>
VStem: 25 312<0 31>
AnchorPoint: "Anchor-1" 0 0 basechar 0
AnchorPoint: "Anchor-0" 181 465 basechar 0
LayerCount: 2
Fore
SplineSet
337 58 m 1
 337 0 l 1
 25 0 l 1
 25 31 l 1
 236 407 l 1
 40 407 l 1
 40 465 l 1
 323 465 l 1
 323 434 l 1
 111 58 l 1
 337 58 l 1
EndSplineSet
EndChar

StartChar: zacute
Encoding: 378 378 258
Width: 362
GlyphClass: 2
Flags: W
HStem: 0 58<111 337> 407 58<40 236> 619 20G<194.179 280>
VStem: 25 312<0 31>
LayerCount: 2
Fore
SplineSet
185 522 m 1
 132 522 l 1
 207 639 l 1
 279 639 l 1
 280 636 l 1
 185 522 l 1
111 58 m 1
 337 58 l 1
 337 0 l 1
 25 0 l 1
 25 31 l 1
 236 407 l 1
 40 407 l 1
 40 465 l 1
 323 465 l 1
 323 434 l 1
 111 58 l 1
EndSplineSet
EndChar

StartChar: zcaron
Encoding: 382 382 259
Width: 362
GlyphClass: 2
Flags: W
HStem: 0 58<111 337> 407 58<40 236> 619 20G<75 152.685 210.041 290>
VStem: 25 312<0 31>
LayerCount: 2
Fore
SplineSet
75 639 m 1
 142 639 l 1
 181 566 l 1
 221 639 l 1
 290 639 l 1
 214 520 l 1
 150 520 l 1
 75 639 l 1
337 58 m 1
 337 0 l 1
 25 0 l 1
 25 31 l 1
 236 407 l 1
 40 407 l 1
 40 465 l 1
 323 465 l 1
 323 434 l 1
 111 58 l 1
 337 58 l 1
EndSplineSet
EndChar

StartChar: zdotaccent
Encoding: 380 380 260
Width: 362
GlyphClass: 2
Flags: W
HStem: 0 58<111 337> 407 58<40 236> 560 79<146 218>
VStem: 146 72<560 639>
LayerCount: 2
Fore
SplineSet
146 639 m 1
 218 639 l 1
 218 560 l 1
 146 560 l 1
 146 639 l 1
337 58 m 1
 337 0 l 1
 25 0 l 1
 25 31 l 1
 236 407 l 1
 40 407 l 1
 40 465 l 1
 323 465 l 1
 323 434 l 1
 111 58 l 1
 337 58 l 1
EndSplineSet
EndChar

StartChar: fi
Encoding: 64257 64257 261
Width: 338
GlyphClass: 3
Flags: W
HStem: 0 21G<47 109 233 295> 407 58<8 47 109 191> 555 84<233 295> 593 53<113.667 190.292> 593 43<134.939 191>
VStem: 47 62<0 407 465 588.087> 233 62<0 465 555 639>
LayerCount: 2
Fore
SplineSet
134 646 m 0xd6
 154 646 176 641 191 636 c 1
 191 593 l 1xce
 153 593 l 2
 124 593 109 578 109 550 c 2
 109 465 l 1
 191 465 l 1
 191 407 l 1
 109 407 l 1
 109 0 l 1
 47 0 l 1
 47 407 l 1
 8 407 l 1
 8 465 l 1
 47 465 l 1
 47 544 l 2
 47 595 67 646 134 646 c 0xd6
233 639 m 1xe6
 295 639 l 1
 295 555 l 1
 233 555 l 1
 233 639 l 1xe6
233 465 m 1
 295 465 l 1
 295 0 l 1
 233 0 l 1
 233 465 l 1
EndSplineSet
Ligature2: "'liga' Standard Ligatures lookup 13 subtable" f i
EndChar

StartChar: fl
Encoding: 64258 64258 262
Width: 338
GlyphClass: 3
Flags: W
HStem: 0 21G<47 109 233 295> 407 58<8 47 109 191> 593 53<113.667 190.292> 593 43<134.939 191> 619 20G<233 295>
VStem: 47 62<0 407 465 588.087> 233 62<0 639>
LayerCount: 2
Fore
SplineSet
134 646 m 0xe6
 154 646 176 641 191 636 c 1
 191 593 l 1xd6
 153 593 l 2
 124 593 109 578 109 550 c 2
 109 465 l 1
 191 465 l 1
 191 407 l 1
 109 407 l 1
 109 0 l 1
 47 0 l 1
 47 407 l 1
 8 407 l 1
 8 465 l 1
 47 465 l 1
 47 544 l 2
 47 595 67 646 134 646 c 0xe6
233 639 m 1xce
 295 639 l 1
 295 0 l 1
 233 0 l 1
 233 639 l 1xce
EndSplineSet
Ligature2: "'liga' Standard Ligatures lookup 13 subtable" f l
EndChar

StartChar: ordfeminine
Encoding: 170 170 263
Width: 268
GlyphClass: 2
Flags: W
HStem: 320 42<72.2246 157.336 225.271 260.715> 331 31<231.608 261> 470 45<82.7079 180> 609 41<86.135 172.291>
VStem: 20 47<366.278 452.993> 31 45<545 600.641> 180 45<383.22 470 515 601.395>
LayerCount: 2
Fore
SplineSet
261 362 m 1x76
 261 331 l 1x76
 255 326 244 324 231 324 c 0
 206 324 188 337 181 359 c 1
 164 335 135 320 105 320 c 0
 73 320 20 331 20 409 c 0xba
 20 499 88 515 180 515 c 1
 180 555 l 2
 180 587 168 609 127 609 c 0
 90 609 76 581 76 554 c 2
 76 545 l 1
 31 545 l 1
 31 561 l 2
 31 622 73 650 132 650 c 0
 193 650 225 618 225 562 c 2
 225 380 l 2
 225 366 233 362 239 362 c 2xb6
 261 362 l 1x76
111 362 m 0xba
 139 362 180 386 180 440 c 2
 180 470 l 1
 112 470 67 461 67 411 c 0
 67 373 83 362 111 362 c 0xba
EndSplineSet
EndChar

StartChar: ordmasculine
Encoding: 186 186 264
Width: 264
GlyphClass: 2
Flags: W
HStem: 319 41<90.9587 171.673> 609 41<90.9587 171.673>
VStem: 22 47<382.135 588.786> 194 47<382.135 586.621>
LayerCount: 2
Fore
SplineSet
131 650 m 0
 203 650 241 598 241 484 c 0
 241 371 203 319 131 319 c 0
 60 319 22 371 22 484 c 0
 22 598 60 650 131 650 c 0
132 609 m 0
 90 609 69 571 69 496 c 2
 69 473 l 2
 69 398 90 360 132 360 c 0
 172 360 194 398 194 473 c 2
 194 496 l 2
 194 571 172 609 132 609 c 0
EndSplineSet
EndChar

StartChar: nsuperior
Encoding: 8319 8319 265
Width: 257
GlyphClass: 2
Flags: W
HStem: 609 41<98.7831 174.56> 623 20G<32 70.375>
VStem: 32 46<325 589.754> 32 34<611 643> 181 45<325 603.086>
LayerCount: 2
Fore
SplineSet
150 650 m 0x98
 196 650 226 625 226 553 c 2
 226 325 l 1
 181 325 l 1
 181 555 l 2
 181 598 163 609 137 609 c 0
 106 609 78 577 78 518 c 2
 78 325 l 1
 32 325 l 1xa8
 32 643 l 1
 66 643 l 1x58
 73 611 l 1
 91 640 120 650 150 650 c 0x98
EndSplineSet
EndChar

StartChar: Delta
Encoding: 916 916 266
Width: 486
GlyphClass: 2
Flags: W
HStem: 0 66<93 389> 586 20G<194.542 298.493>
LayerCount: 2
Fore
SplineSet
479 0 m 1
 15 0 l 1
 15 30 l 1
 201 606 l 1
 292 606 l 1
 479 30 l 1
 479 0 l 1
93 66 m 1
 389 66 l 1
 246 534 l 1
 243 534 l 1
 93 66 l 1
EndSplineSet
Position2: "'cpsp' Capital Spacing lookup 0 subtable" dx=5 dy=0 dh=10 dv=0
EndChar

StartChar: Omega
Encoding: 937 937 267
Width: 679
GlyphClass: 2
Flags: W
HStem: 0 66<105 184 494 574> 0 49<258.432 311 367 420.258> 552 65<257.588 421.306>
VStem: 105 71<164.325 455.078> 504 70<162.065 455.078>
LayerCount: 2
Fore
SplineSet
339 617 m 0xb8
 486 617 574 513 574 303 c 0
 574 199 546 120 494 66 c 1
 521 66 547 66 574 66 c 1
 574 0 l 1xb8
 367 0 l 1
 367 49 l 1
 450 66 504 136 504 267 c 2
 504 325 l 2
 504 481 439 552 339 552 c 0
 240 552 176 481 176 325 c 2
 176 272 l 2
 176 138 229 66 311 49 c 1
 311 0 l 1x78
 105 0 l 1
 105 66 l 1
 131 66 158 66 184 66 c 1
 133 120 105 199 105 303 c 0
 105 513 194 617 339 617 c 0xb8
EndSplineSet
Position2: "'cpsp' Capital Spacing lookup 0 subtable" dx=5 dy=0 dh=10 dv=0
EndChar

StartChar: mu
Encoding: 956 956 268
Width: 391
GlyphClass: 2
Flags: W
HStem: -11 56<129.099 234.249> 0 21G<288.604 337> 445 20G<54 117 275 337>
VStem: 54 63<-153 -4 56.6592 465> 275 62<89.7319 465> 292 45<0 41.2222>
LayerCount: 2
Fore
SplineSet
283 53 m 1x74
 277 53 l 1
 250 4 207 -11 161 -11 c 0
 144 -11 130 -9 117 -4 c 1
 117 -153 l 1
 54 -153 l 1
 54 465 l 1
 117 465 l 1
 117 114 l 2
 117 58 147 45 183 45 c 0
 231 45 275 94 275 182 c 2
 275 465 l 1
 337 465 l 1xb8
 337 0 l 1
 292 0 l 1
 283 53 l 1x74
EndSplineSet
EndChar

StartChar: pi
Encoding: 960 960 269
Width: 473
GlyphClass: 2
Flags: W
HStem: 0 21G<57 133 336 401> 407 58<19.8511 114 176 327 390 458>
VStem: 114 62<183.158 407> 327 63<1.27377 407>
LayerCount: 2
Fore
SplineSet
390 407 m 1
 390 138 l 2
 390 65 394 27 401 0 c 1
 340 0 l 1
 332 14 327 59 327 130 c 2
 327 407 l 1
 176 407 l 1
 171 291 147 81 119 0 c 1
 57 0 l 1
 86 96 111 291 114 407 c 1
 65 407 37 404 19 396 c 1
 9 438 l 1
 28 455 66 465 133 465 c 2
 465 465 l 1
 458 407 l 1
 390 407 l 1
EndSplineSet
EndChar

StartChar: kadeva
Encoding: 2325 2325 270
Width: 541
GlyphClass: 2
Flags: W
HStem: 0 21G<244 307> 117 56<113.956 220.367 371 434.793> 417 54<114.698 219.906 330.544 436.771> 549 57<-10 244 307 551>
VStem: 27 65<194.538 393.425> 244 63<0 154 197.287 392.507 437 549> 459 65<194.982 394.513>
CounterMasks: 1 0e
AnchorPoint: "Anchor-3" 275 0 basechar 0
AnchorPoint: "Anchor-2" 275 606 basechar 0
LayerCount: 2
Fore
SplineSet
307 437 m 1
 310 437 l 1
 327 457 355 471 396 471 c 0
 473 471 524 419 524 295 c 0
 524 171 462 117 389 117 c 0
 384 117 378 118 371 119 c 1
 371 173 l 1
 382 173 l 2
 433 173 459 202 459 283 c 2
 459 305 l 2
 459 388 433 417 382 417 c 0
 332 417 307 380 307 305 c 2
 307 0 l 1
 244 0 l 1
 244 154 l 1
 241 154 l 1
 224 133 196 117 155 117 c 0
 78 117 27 170 27 295 c 0
 27 425 82 471 155 471 c 0
 197 471 224 457 241 437 c 1
 244 437 l 1
 244 549 l 1
 -10 549 l 1
 -10 606 l 1
 551 606 l 1
 551 549 l 1
 307 549 l 1
 307 437 l 1
244 283 m 2
 244 306 l 2
 244 380 219 417 168 417 c 0
 117 417 92 388 92 305 c 2
 92 283 l 2
 92 202 117 173 168 173 c 0
 219 173 244 210 244 283 c 2
EndSplineSet
Ligature2: "'abvs' Above Base Substitutions lookup 3 subtable" rephdeva kadeva
Ligature2: "Ligature Substitution lookup 2 subtable" kadeva reph_anusvaradeva
Ligature2: "Ligature Substitution lookup 2 subtable" kadeva reph_candraBindudeva
Ligature2: "Ligature Substitution lookup 2 subtable" kadeva rephdeva
Ligature2: "Ligature Substitution lookup 2 subtable" kadeva anusvaradeva
Ligature2: "Ligature Substitution lookup 2 subtable" kadeva candraBindudeva
EndChar

StartChar: khadeva
Encoding: 2326 2326 271
Width: 596
GlyphClass: 2
Flags: W
HStem: 0 21G<467 530> 39 54<194.017 408.38> 159 55<357.225 450.46> 417 54<356.538 450.502> 549 57<-10 157 220 467 530 606>
VStem: 157 63<350.256 549> 275 65<230.401 402.022> 467 63<0 89 144.639 195 228.69 401.633 437 549>
AnchorPoint: "Anchor-3" 499 0 basechar 0
AnchorPoint: "Anchor-2" 499 606 basechar 0
LayerCount: 2
Fore
SplineSet
530 549 m 1
 530 440 l 1
 531 440 l 1
 531 192 l 1
 530 192 l 1
 530 0 l 1
 467 0 l 1
 467 89 l 1
 431 51 366 39 299 39 c 0
 134 39 28 128 28 318 c 1
 61 318 l 2
 124 318 157 355 157 424 c 2
 157 549 l 1
 -10 549 l 1
 -10 606 l 1
 606 606 l 1
 606 549 l 1
 530 549 l 1
302 93 m 0
 388 93 453 121 467 193 c 1
 467 195 l 1
 465 195 l 1
 448 174 422 159 384 159 c 0
 320 159 275 205 275 316 c 0
 275 429 324 471 384 471 c 0
 423 471 448 457 465 437 c 1
 467 437 l 1
 467 549 l 1
 220 549 l 1
 220 428 l 2
 220 332 177 277 96 271 c 1
 113 138 196 93 302 93 c 0
467 285 m 2
 467 346 l 1
 462 394 441 417 404 417 c 0
 362 417 340 392 340 325 c 2
 340 306 l 2
 340 240 362 214 404 214 c 0
 441 214 467 238 467 285 c 2
EndSplineSet
Ligature2: "'abvs' Above Base Substitutions lookup 3 subtable" rephdeva khadeva
Ligature2: "Ligature Substitution lookup 2 subtable" khadeva reph_anusvaradeva
Ligature2: "Ligature Substitution lookup 2 subtable" khadeva reph_candraBindudeva
Ligature2: "Ligature Substitution lookup 2 subtable" khadeva rephdeva
Ligature2: "Ligature Substitution lookup 2 subtable" khadeva anusvaradeva
Ligature2: "Ligature Substitution lookup 2 subtable" khadeva candraBindudeva
EndChar

StartChar: gadeva
Encoding: 2327 2327 272
Width: 483
GlyphClass: 2
Flags: W
HStem: 0 21G<353 416> 119 56<88.2787 163.086> 277 57<86.7958 171> 549 57<-10 171 234 353 416 492>
VStem: 15 64<183.427 270.518> 171 63<182.703 277 334 549> 353 63<0 549>
AnchorPoint: "Anchor-3" 384 0 basechar 0
AnchorPoint: "Anchor-2" 384 606 basechar 0
LayerCount: 2
Fore
SplineSet
492 549 m 1
 416 549 l 1
 416 0 l 1
 353 0 l 1
 353 549 l 1
 234 549 l 1
 234 227 l 2
 234 162 190 119 125 119 c 0
 63 119 15 166 15 227 c 0
 15 291 58 334 124 334 c 2
 171 334 l 1
 171 549 l 1
 -10 549 l 1
 -10 606 l 1
 492 606 l 1
 492 549 l 1
125 175 m 0
 155 175 171 196 171 227 c 2
 171 277 l 1
 124 277 l 2
 98 277 79 257 79 227 c 0
 79 198 99 175 125 175 c 0
EndSplineSet
Ligature2: "'abvs' Above Base Substitutions lookup 3 subtable" rephdeva gadeva
Ligature2: "Ligature Substitution lookup 2 subtable" gadeva reph_anusvaradeva
Ligature2: "Ligature Substitution lookup 2 subtable" gadeva reph_candraBindudeva
Ligature2: "Ligature Substitution lookup 2 subtable" gadeva rephdeva
Ligature2: "Ligature Substitution lookup 2 subtable" gadeva anusvaradeva
Ligature2: "Ligature Substitution lookup 2 subtable" gadeva candraBindudeva
EndChar

StartChar: ghadeva
Encoding: 2328 2328 273
Width: 400
GlyphClass: 2
Flags: W
HStem: 0 21G<271 334> 130 55<119.227 241.216> 351 53<125.922 207> 549 57<-10 55 104.358 271 334 410>
VStem: 36 64<205.077 328.787 428.944 547.46> 271 63<0 172 214.94 549>
AnchorPoint: "Anchor-3" 302 0 basechar 0
AnchorPoint: "Anchor-2" 302 606 basechar 0
LayerCount: 2
Fore
SplineSet
410 549 m 1
 334 549 l 1
 334 0 l 1
 271 0 l 1
 271 172 l 1
 248 145 215 130 171 130 c 0
 93 130 36 177 36 263 c 0
 36 324 69 363 112 382 c 1
 68 395 37 425 37 483 c 0
 37 511 43 533 55 549 c 1
 -10 549 l 1
 -10 606 l 1
 410 606 l 1
 410 549 l 1
178 185 m 0
 232 185 271 216 271 291 c 2
 271 549 l 1
 131 549 l 2
 109 549 100 527 100 496 c 0
 100 432 138 404 182 404 c 2
 207 404 l 1
 207 351 l 1
 183 351 l 2
 141 351 100 331 100 266 c 0
 100 206 133 185 178 185 c 0
EndSplineSet
Ligature2: "'abvs' Above Base Substitutions lookup 3 subtable" rephdeva ghadeva
Ligature2: "Ligature Substitution lookup 2 subtable" ghadeva reph_anusvaradeva
Ligature2: "Ligature Substitution lookup 2 subtable" ghadeva reph_candraBindudeva
Ligature2: "Ligature Substitution lookup 2 subtable" ghadeva rephdeva
Ligature2: "Ligature Substitution lookup 2 subtable" ghadeva anusvaradeva
Ligature2: "Ligature Substitution lookup 2 subtable" ghadeva candraBindudeva
EndChar

StartChar: ngadeva
Encoding: 2329 2329 274
Width: 392
GlyphClass: 2
Flags: W
HStem: -11 57<123.703 240.201> 290 64<319 383> 375 55<150.688 240> 549 57<-10 240 303 402>
VStem: 31 67<72.5167 144> 68 67<274.434 360.202> 240 63<430 549> 261 67<67.7787 179.267> 319 64<290 354>
AnchorPoint: "Anchor-3" 197 0 basechar 0
AnchorPoint: "Anchor-2" 271 606 basechar 0
LayerCount: 2
Fore
SplineSet
402 606 m 1xf6
 402 549 l 1
 303 549 l 1
 303 375 l 1
 203 375 l 2
 166 375 135 352 135 317 c 0xf6
 135 268 180 264 207 256 c 0
 264 243 328 230 328 131 c 0
 328 36 276 -11 180 -11 c 0
 69 -11 31 58 31 125 c 0
 31 129 31 136 33 144 c 1
 98 144 l 1
 98 135 l 2
 98 73 135 46 182 46 c 0
 225 46 261 69 261 124 c 0xf9
 261 186 222 192 181 201 c 0
 135 211 68 226 68 315 c 0
 68 393 125 430 207 430 c 2
 240 430 l 1
 240 549 l 1
 -10 549 l 1
 -10 606 l 1
 402 606 l 1xf6
319 354 m 1xf080
 383 354 l 1
 383 290 l 1
 319 290 l 1
 319 354 l 1xf080
EndSplineSet
Ligature2: "'abvs' Above Base Substitutions lookup 3 subtable" rephdeva ngadeva
Ligature2: "Ligature Substitution lookup 2 subtable" ngadeva reph_anusvaradeva
Ligature2: "Ligature Substitution lookup 2 subtable" ngadeva reph_candraBindudeva
Ligature2: "Ligature Substitution lookup 2 subtable" ngadeva rephdeva
Ligature2: "Ligature Substitution lookup 2 subtable" ngadeva anusvaradeva
Ligature2: "Ligature Substitution lookup 2 subtable" ngadeva candraBindudeva
EndChar

StartChar: cadeva
Encoding: 2330 2330 275
Width: 413
GlyphClass: 2
Flags: W
HStem: 0 21G<284 347> 112 55<150.026 260.145> 364 58<14 99 150.073 224> 549 57<-10 284 347 423>
VStem: 67 65<183.863 345.406> 284 63<0 147 191.39 549>
AnchorPoint: "Anchor-3" 315 0 basechar 0
AnchorPoint: "Anchor-2" 315 606 basechar 0
LayerCount: 2
Fore
SplineSet
423 549 m 1
 347 549 l 1
 347 0 l 1
 284 0 l 1
 284 147 l 1
 281 147 l 1
 263 126 236 112 195 112 c 0
 117 112 67 156 67 263 c 0
 67 309 79 342 99 364 c 1
 14 364 l 1
 14 422 l 1
 224 422 l 1
 224 364 l 1
 208 364 l 2
 158 364 132 340 132 273 c 2
 132 255 l 2
 132 189 158 167 208 167 c 0
 259 167 284 204 284 278 c 2
 284 549 l 1
 -10 549 l 1
 -10 606 l 1
 423 606 l 1
 423 549 l 1
EndSplineSet
Ligature2: "'abvs' Above Base Substitutions lookup 3 subtable" rephdeva cadeva
Ligature2: "Ligature Substitution lookup 2 subtable" cadeva reph_anusvaradeva
Ligature2: "Ligature Substitution lookup 2 subtable" cadeva reph_candraBindudeva
Ligature2: "Ligature Substitution lookup 2 subtable" cadeva rephdeva
Ligature2: "Ligature Substitution lookup 2 subtable" cadeva anusvaradeva
Ligature2: "Ligature Substitution lookup 2 subtable" cadeva candraBindudeva
EndChar

StartChar: chadeva
Encoding: 2331 2331 276
Width: 463
GlyphClass: 2
Flags: W
HStem: 55 55<142.189 298.596> 321 53<126.671 195> 549 57<-7 60 112.596 314 377 473>
VStem: 39 64<148.15 296.768 393.964 543.011> 256 60<354 403.985> 314 63<445.085 549> 381 59<200.884 400.581>
AnchorPoint: "Anchor-3" 247 0 basechar 0
AnchorPoint: "Anchor-2" 345 606 basechar 0
LayerCount: 2
Fore
SplineSet
377 549 m 1xf6
 377 457 l 1
 420 442 440 391 440 307 c 0
 440 159 355 55 217 55 c 0
 109 55 39 113 39 210 c 0
 39 274 67 329 115 352 c 1
 77 359 40 386 40 471 c 0
 40 507 47 532 60 549 c 1
 -7 549 l 1
 -7 606 l 1
 473 606 l 1
 473 549 l 1
 377 549 l 1xf6
314 549 m 1
 142 549 l 2
 114 549 103 514 103 473 c 0
 103 403 133 374 166 374 c 2
 195 374 l 1
 195 321 l 1
 167 321 l 2
 135 321 103 286 103 223 c 0
 103 143 150 110 217 110 c 0
 321 110 381 195 381 298 c 2
 381 322 l 2
 381 360 373 406 346 406 c 0
 324 406 316 385 316 365 c 2
 316 354 l 1
 260 354 l 1
 257 359 256 369 256 380 c 0xfa
 256 420 284 444 314 455 c 1
 314 549 l 1
EndSplineSet
Ligature2: "'abvs' Above Base Substitutions lookup 3 subtable" rephdeva chadeva
Ligature2: "Ligature Substitution lookup 2 subtable" chadeva reph_anusvaradeva
Ligature2: "Ligature Substitution lookup 2 subtable" chadeva reph_candraBindudeva
Ligature2: "Ligature Substitution lookup 2 subtable" chadeva rephdeva
Ligature2: "Ligature Substitution lookup 2 subtable" chadeva anusvaradeva
Ligature2: "Ligature Substitution lookup 2 subtable" chadeva candraBindudeva
EndChar

StartChar: jadeva
Encoding: 2332 2332 277
Width: 457
GlyphClass: 2
Flags: W
HStem: 0 21G<329 392> 112 59<102.145 187.962> 361 58<199 200 263 329> 549 57<-10 329 392 468>
VStem: 29 62<182.034 419> 200 63<182.034 361> 329 63<0 361 419 549>
AnchorPoint: "Anchor-3" 360 0 basechar 0
AnchorPoint: "Anchor-2" 360 606 basechar 0
LayerCount: 2
Fore
SplineSet
468 549 m 1
 392 549 l 1
 392 0 l 1
 329 0 l 1
 329 361 l 1
 263 361 l 1
 263 240 l 2
 263 157 219 112 146 112 c 0
 68 112 29 157 29 240 c 2
 29 419 l 1
 91 419 l 1
 91 234 l 2
 91 193 110 171 146 171 c 0
 178 171 200 193 200 234 c 2
 200 361 l 1
 199 361 l 1
 199 419 l 1
 329 419 l 1
 329 549 l 1
 -10 549 l 1
 -10 606 l 1
 468 606 l 1
 468 549 l 1
EndSplineSet
Ligature2: "'abvs' Above Base Substitutions lookup 3 subtable" rephdeva jadeva
Ligature2: "Ligature Substitution lookup 2 subtable" jadeva reph_anusvaradeva
Ligature2: "Ligature Substitution lookup 2 subtable" jadeva reph_candraBindudeva
Ligature2: "Ligature Substitution lookup 2 subtable" jadeva rephdeva
Ligature2: "Ligature Substitution lookup 2 subtable" jadeva anusvaradeva
Ligature2: "Ligature Substitution lookup 2 subtable" jadeva candraBindudeva
EndChar

StartChar: jhadeva
Encoding: 2333 2333 278
Width: 552
GlyphClass: 2
Flags: W
HStem: -11 57<122.593 242.21> 0 21G<422 485> 201 49<298 422> 375 55<154.484 240> 549 57<-10 240 303 422 485 561>
VStem: 36 62<-84 14 70.4567 144> 68 67<264.357 355.275> 240 63<430 549> 262 66<66.982 176.532> 422 63<0 201 250 549>
AnchorPoint: "Anchor-3" 454 0 basechar 0
AnchorPoint: "Anchor-2" 454 606 basechar 0
LayerCount: 2
Fore
SplineSet
561 549 m 1xbb40
 485 549 l 1
 485 0 l 1
 422 0 l 1x7b40
 422 201 l 1
 298 201 l 1
 318 184 328 157 328 118 c 0
 328 33 264 -11 189 -11 c 0
 151 -11 121 -1 98 14 c 1
 98 -84 l 1
 36 -84 l 1
 36 144 l 1
 98 144 l 1
 98 135 l 2
 98 74 134 46 184 46 c 0
 228 46 262 70 262 123 c 0xbcc0
 262 183 224 188 187 192 c 0
 106 199 68 238 68 306 c 0
 68 388 128 430 213 430 c 2
 240 430 l 1
 240 549 l 1
 -10 549 l 1
 -10 606 l 1
 561 606 l 1
 561 549 l 1xbb40
422 549 m 1
 303 549 l 1
 303 375 l 1
 210 375 l 2
 168 375 135 348 135 308 c 0
 135 259 179 250 212 250 c 2
 422 250 l 1
 422 549 l 1
EndSplineSet
Substitution2: "'locl' Localized Forms in Devanagari2 lookup 9 subtable" jhadeva.loclNEP
Ligature2: "'abvs' Above Base Substitutions lookup 3 subtable" rephdeva jhadeva
Ligature2: "Ligature Substitution lookup 2 subtable" jhadeva reph_anusvaradeva
Ligature2: "Ligature Substitution lookup 2 subtable" jhadeva reph_candraBindudeva
Ligature2: "Ligature Substitution lookup 2 subtable" jhadeva rephdeva
Ligature2: "Ligature Substitution lookup 2 subtable" jhadeva anusvaradeva
Ligature2: "Ligature Substitution lookup 2 subtable" jhadeva candraBindudeva
Substitution2: "'aalt' Access All Alternates lookup 0 subtable" jhadeva.loclNEP
EndChar

StartChar: nyadeva
Encoding: 2334 2334 279
Width: 463
GlyphClass: 2
Flags: W
HStem: 0 21G<334 397> 115 58<93.8352 186.06> 250 58<263.135 334> 381 58<97.553 186.668> 549 57<-10 334 397 473>
VStem: 27 63<179 234 319 372.681> 203 62<187.806 250 308 365.172> 334 63<0 250 308 549>
AnchorPoint: "Anchor-3" 365 0 basechar 0
AnchorPoint: "Anchor-2" 365 606 basechar 0
LayerCount: 2
Fore
SplineSet
473 549 m 1
 397 549 l 1
 397 0 l 1
 334 0 l 1
 334 250 l 1
 265 250 l 1
 259 160 220 115 143 115 c 0
 70 115 27 153 27 217 c 0
 27 223 28 229 29 234 c 1
 85 234 l 1
 85 231 l 2
 85 194 101 173 143 173 c 0
 185 173 203 206 203 266 c 2
 203 288 l 2
 203 348 185 381 142 381 c 0
 102 381 90 361 90 323 c 2
 90 319 l 1
 29 319 l 1
 28 324 27 331 27 337 c 0
 27 401 69 439 142 439 c 0
 218 439 257 395 265 308 c 1
 334 308 l 1
 334 549 l 1
 -10 549 l 1
 -10 606 l 1
 473 606 l 1
 473 549 l 1
EndSplineSet
Ligature2: "'abvs' Above Base Substitutions lookup 3 subtable" rephdeva nyadeva
Ligature2: "Ligature Substitution lookup 2 subtable" nyadeva reph_anusvaradeva
Ligature2: "Ligature Substitution lookup 2 subtable" nyadeva reph_candraBindudeva
Ligature2: "Ligature Substitution lookup 2 subtable" nyadeva rephdeva
Ligature2: "Ligature Substitution lookup 2 subtable" nyadeva anusvaradeva
Ligature2: "Ligature Substitution lookup 2 subtable" nyadeva candraBindudeva
EndChar

StartChar: ttadeva
Encoding: 2335 2335 280
Width: 359
GlyphClass: 2
Flags: W
HStem: 54 57<127.604 250.624> 379 55<135.777 221> 549 57<-10 221 283 369>
VStem: 26 66<150.773 332.371> 221 62<434 549> 274 60.0174<135.205 218>
AnchorPoint: "Anchor-3" 190 0 basechar 0
AnchorPoint: "Anchor-2" 252 606 basechar 0
LayerCount: 2
Fore
SplineSet
283 379 m 1xf8
 193 379 l 2
 136 379 92 335 92 241 c 0
 92 155 126 111 192 111 c 0
 251 111 273 147 274 210 c 1
 274 218 l 1
 332 218 l 1
 333.179621929 212.101890353 334.017408984 205.38074049 334.017408984 198.154542577 c 0xf4
 334.017408984 117.501378944 291.770921818 54 187 54 c 0
 88 54 26 119 26 240 c 0
 26 363 90 434 194 434 c 2
 221 434 l 1
 221 549 l 1
 -10 549 l 1
 -10 606 l 1
 369 606 l 1
 369 549 l 1
 283 549 l 1
 283 379 l 1xf8
EndSplineSet
Ligature2: "'abvs' Above Base Substitutions lookup 3 subtable" rephdeva ttadeva
Ligature2: "Ligature Substitution lookup 2 subtable" ttadeva reph_anusvaradeva
Ligature2: "Ligature Substitution lookup 2 subtable" ttadeva reph_candraBindudeva
Ligature2: "Ligature Substitution lookup 2 subtable" ttadeva rephdeva
Ligature2: "Ligature Substitution lookup 2 subtable" ttadeva anusvaradeva
Ligature2: "Ligature Substitution lookup 2 subtable" ttadeva candraBindudeva
EndChar

StartChar: tthadeva
Encoding: 2336 2336 281
Width: 377
GlyphClass: 2
Flags: W
HStem: 54 57<126.863 248.311> 379 55<135.628 220> 549 57<-10 220 282 387>
VStem: 26 66<150.741 332.948> 220 62<434 549> 284 67<150.659 337.023>
AnchorPoint: "Anchor-3" 197 0 basechar 0
AnchorPoint: "Anchor-2" 251 606 basechar 0
LayerCount: 2
Fore
SplineSet
282 549 m 1
 282 412 l 1
 327 374 351 315 351 241 c 0
 351 118 289 54 187 54 c 0
 86 54 26 118 26 241 c 0
 26 363 87 434 196 434 c 2
 220 434 l 1
 220 549 l 1
 -10 549 l 1
 -10 606 l 1
 387 606 l 1
 387 549 l 1
 282 549 l 1
187 111 m 0
 249 111 284 155 284 240 c 0
 284 305 262 353 229 379 c 1
 195 379 l 2
 133 379 92 331 92 241 c 0
 92 155 127 111 187 111 c 0
EndSplineSet
Ligature2: "'abvs' Above Base Substitutions lookup 3 subtable" rephdeva tthadeva
Ligature2: "Ligature Substitution lookup 2 subtable" tthadeva reph_anusvaradeva
Ligature2: "Ligature Substitution lookup 2 subtable" tthadeva reph_candraBindudeva
Ligature2: "Ligature Substitution lookup 2 subtable" tthadeva rephdeva
Ligature2: "Ligature Substitution lookup 2 subtable" tthadeva anusvaradeva
Ligature2: "Ligature Substitution lookup 2 subtable" tthadeva candraBindudeva
EndChar

